<?xml version="1.0" ?><svg viewBox="0 0 500 500" xmlns="http://www.w3.org/2000/svg"><defs><style>.cls-1{fill:#231815;}.cls-2{fill:#dcdddd;}.cls-3{fill:#f4ec90;}.cls-4{fill:#fff;}.cls-5{fill:#faee00;}</style></defs><title/><g data-name="图层 1" id="图层_1"><path class="cls-1" d="M228.5,79a127.77,127.77,0,0,0-5.81,17.37,122.29,122.29,0,0,1,16.83-8.9Z"/><path class="cls-2" d="M257.3,199.83a67.14,67.14,0,0,1,47.12,36.4,65.32,65.32,0,0,1,3.54,8.83,7.56,7.56,0,0,0,5.24,5.24,46.35,46.35,0,0,1,18.87,8.88,44,44,0,0,1,16.74,40.15,43.22,43.22,0,0,1-3.05,11.39A45.18,45.18,0,0,1,304.85,338c-4.78.06-7.19,3.78-7.24,7.5H274.39l4.94-5,11.93-12a7.08,7.08,0,0,0,1.71-2.74c1.55-4.53-1.65-10.06-7-10.06h-18q1.8-2.67,3.59-5.36,4.25-6.31,8.47-12.64c3.23-4.81-1.05-11.28-6.47-11.28-15.21,0-30.52-.53-45.72,0-4.14.14-6.52,2.28-8.42,5.08-1.25,1.84-2.3,4-3.49,6l-4.06,6.92L201,322.94q-5.4,9.22-10.81,18.45a7.22,7.22,0,0,0-1,4.14H171.44c0-3.73-2.44-7.45-7.24-7.5-24.5-.27-46.36-16.6-52.84-40.4A55.23,55.23,0,0,1,137,235.81a53.3,53.3,0,0,1,20.47-6.75,56.84,56.84,0,0,1,16.1.41,60.13,60.13,0,0,1,7.86,1.85c3.34,1,6.63-.74,8.47-3.45a67.42,67.42,0,0,1,48.69-28.94,63.38,63.38,0,0,1,18.46.84Z"/><path class="cls-1" d="M400,250.53l-8.47-11L391,238c1.69-.61,3.36-1.26,5-2,6.82-2.85,10.68,5.92,8.47,11a131.57,131.57,0,0,1-40.71,52,57,57,0,0,0-1.27-18.43,120.9,120.9,0,0,0,20.15-24.28A126.67,126.67,0,0,0,400,250.53Z"/><path class="cls-1" d="M391.56,239.51l8.47,11a126.67,126.67,0,0,1-17.35,5.81A123.29,123.29,0,0,0,391.56,239.51Z"/><path class="cls-1" d="M391,238l.55,1.48a123.29,123.29,0,0,1-8.88,16.83,129.77,129.77,0,0,1-29.15,4.06,60.72,60.72,0,0,0-15.75-15.69A119.18,119.18,0,0,0,391,238Z"/><path class="cls-1" d="M367.52,138.75c5.58-.67-1.95,7,1.38,7.91l-.65-.2a6.74,6.74,0,0,1-4.66-6.31c.63-.25,1.26-.5,1.9-.73A10.06,10.06,0,0,1,367.52,138.75Z"/><path class="cls-1" d="M372.88,132.19c9.28,2.66,5.31,17.13-4,14.47-3.33-.9,4.2-8.58-1.38-7.91a10.06,10.06,0,0,0-2,.67c-.64.23-1.27.48-1.9.73C363.4,135.57,367.12,130.64,372.88,132.19Z"/><path class="cls-3" d="M382.68,256.34a120.9,120.9,0,0,1-20.15,24.28,59.4,59.4,0,0,0-9-20.22A129.77,129.77,0,0,0,382.68,256.34Z"/><path class="cls-1" d="M363.64,300.69A59.9,59.9,0,0,1,304.85,353c-4.88.06-7.28-3.72-7.24-7.5h7.24A51.77,51.77,0,0,0,355.36,305q4.34-2.82,8.44-6C363.75,299.6,363.71,300.14,363.64,300.69Z"/><path class="cls-1" d="M363.59,140.15a6.74,6.74,0,0,0,4.66,6.31,53.61,53.61,0,0,1-9.76-4c.64-.33,1.27-.66,1.93-1C361.46,141,362.52,140.58,363.59,140.15Z"/><path class="cls-1" d="M362.53,280.62A57,57,0,0,1,363.8,299q-4.09,3.16-8.44,6a51.62,51.62,0,0,0,.68-18.83Q359.38,283.54,362.53,280.62Z"/><path class="cls-1" d="M353.53,260.4a59.4,59.4,0,0,1,9,20.22q-3.13,2.91-6.49,5.59A51.58,51.58,0,0,0,344.3,260.3C347.38,260.44,350.45,260.48,353.53,260.4Z"/><path class="cls-1" d="M356,286.21a51.62,51.62,0,0,1-.68,18.83q-4.68,3-9.6,5.68a43.22,43.22,0,0,0,3.05-11.39,44.63,44.63,0,0,0,.25-8Q352.64,288.9,356,286.21Z"/><path class="cls-1" d="M349.06,291.35a44.33,44.33,0,0,0-17-32.17c4,.56,8.14.94,12.23,1.12A51.58,51.58,0,0,1,356,286.21Q352.65,288.91,349.06,291.35Z"/><path class="cls-1" d="M345.76,310.72q4.92-2.64,9.6-5.68a51.77,51.77,0,0,1-50.51,40.49h-7.24c.05-3.72,2.46-7.44,7.24-7.5A45.18,45.18,0,0,0,345.76,310.72Z"/><path class="cls-1" d="M344.3,260.3a51.7,51.7,0,0,0-29.11-17.24c-.34-1.1-.72-2.2-1.11-3.28a116.94,116.94,0,0,0,23.7,4.93,60.72,60.72,0,0,1,15.75,15.69C350.45,260.48,347.38,260.44,344.3,260.3Z"/><path class="cls-1" d="M336.57,120.58a53.57,53.57,0,0,1-2.62-5.7,15.05,15.05,0,0,1-1.17-3.36c-.14-.46-.27-.92-.4-1.38h8.31c0,1.42-1.08,3.48-1.57,4.74C338.36,116.82,337.51,118.73,336.57,120.58Z"/><path class="cls-1" d="M325.79,150.3a50.3,50.3,0,0,1,10.72,14c-1.54,2.8-3.32,6.16-3.73,9.17-.35,2.53-2.15,1.38,3.75,1.38,4.86,0,4.53,1,3.54-2.06a57.11,57.11,0,0,0-2.25-5.78c-.4-.91-.85-1.82-1.31-2.71l.59-1.07a51.2,51.2,0,0,1,13.38-15.61,51.89,51.89,0,0,1,8-5.18,53.61,53.61,0,0,0,9.76,4l.65.2c9.29,2.66,13.26-11.81,4-14.47a10.71,10.71,0,0,1,7.71,11.75c-.71,5.27-4.47,7.67-9.08,9.27-9.45,3.28-17.06,9.31-21.8,18.22-2,3.72-2.42,8.45-5.2,11.66a10.64,10.64,0,0,1-12.16,2.72c-5-2.12-5.66-6.52-7.44-11a36,36,0,0,0-5.86-9.89,37.77,37.77,0,0,0-10.22-8.53c-3.47-2-7.46-2.6-10.9-4.5a10.75,10.75,0,0,1-5.2-12.22c1.25-4.54,4.71-6.46,8.83-7.84a37.29,37.29,0,0,0,19.66-14.61c4.45-6.8,5.18-19.28,15.75-18.87,9.91.38,10.56,12.28,14.88,18.87a37,37,0,0,0,21,15c-5.76-1.55-9.48,3.38-9.29,8-1.07.43-2.13.87-3.17,1.35-.66.3-1.29.63-1.93,1a52.44,52.44,0,0,1-21.92-21.88c.94-1.85,1.79-3.76,2.55-5.7.49-1.26,1.58-3.32,1.57-4.74h-8.31c.13.46.26.92.4,1.38a15.05,15.05,0,0,0,1.17,3.36,53.57,53.57,0,0,0,2.62,5.7c-.63,1.22-1.29,2.43-2,3.59a53.75,53.75,0,0,1-14.6,15.19,44,44,0,0,1-5.28,3.15,54.32,54.32,0,0,0-7.75-3.33,11.09,11.09,0,0,0-2.74-.83v4.15q-2,5.08.69,4c1.37,0,3.4-1.11,4.7-1.63,1.74-.7,3.45-1.47,5.1-2.32A53.18,53.18,0,0,1,325.79,150.3Z"/><path class="cls-1" d="M332.78,173.49c.41-3,2.19-6.37,3.73-9.17.46.89.91,1.8,1.31,2.71a57.11,57.11,0,0,1,2.25,5.78c1,3.07,1.32,2.06-3.54,2.06C330.63,174.87,332.43,176,332.78,173.49Z"/><path class="cls-4" d="M336.51,164.32a50.3,50.3,0,0,0-10.72-14,53.18,53.18,0,0,0-11.13-7.79,44,44,0,0,0,5.28-3.15,53.75,53.75,0,0,0,14.6-15.19c.74-1.16,1.4-2.37,2-3.59a52.44,52.44,0,0,0,21.92,21.88,51.89,51.89,0,0,0-8,5.18,51.2,51.2,0,0,0-13.38,15.61Z"/><path class="cls-1" d="M315.19,243.06A51.7,51.7,0,0,1,344.3,260.3c-4.09-.18-8.18-.56-12.23-1.12a46.35,46.35,0,0,0-18.87-8.88,7.56,7.56,0,0,1-5.24-5.24,65.32,65.32,0,0,0-3.54-8.83c3.17,1.33,6.4,2.51,9.66,3.55C314.47,240.86,314.85,242,315.19,243.06Z"/><path class="cls-1" d="M322.42,241.07l-5.23-5.24c1.26.28,2.49.6,3.72,1C321.45,238.2,322,239.62,322.42,241.07Z"/><path class="cls-1" d="M309.56,144.83c-1.3.52-3.33,1.67-4.7,1.63q-2.68,1.13-.69-4v-4.15a11.09,11.09,0,0,1,2.74.83,54.32,54.32,0,0,1,7.75,3.33C313,143.36,311.3,144.13,309.56,144.83Z"/><path class="cls-1" d="M251.53,191.48a73.75,73.75,0,0,1,62.55,48.3c-3.26-1-6.49-2.22-9.66-3.55a67.14,67.14,0,0,0-47.12-36.4Q254.22,195.76,251.53,191.48Z"/><path class="cls-1" d="M284,326l1.93,4.66h-6.47Z"/><path class="cls-1" d="M286,330.71,284,326c3,0,6-.09,8.94-.28a7.08,7.08,0,0,1-1.71,2.74l-11.93,12-4.94,5h-9.32l14.42-14.82Z"/><path class="cls-1" d="M280.66,317.91,284,326,273.62,325Z"/><path class="cls-1" d="M273.07,325.55c3.65.32,7.3.48,11,.5l-4.54,4.66H268Z"/><path class="cls-1" d="M284,326c-3.66,0-7.31-.18-11-.5l.55-.55Z"/><path class="cls-1" d="M267.95,315.71h18c5.36,0,8.56,5.53,7,10.06-3,.19-6,.29-8.94.28l-3.37-8.14-7,7.09-11.14-1.12Z"/><path class="cls-1" d="M273.54,286.43c5.42,0,9.7,6.47,6.47,11.28q-4.23,6.33-8.47,12.64c-2.6-.28-5.2-.64-7.78-1.1l3-7.82h6.81l-4.1-7.14-2.38-4.15-2.68,4-37.3-1.07-1.37,2.39q-3.24-1.87-6.31-4c1.9-2.8,4.28-4.94,8.42-5.08C243,285.9,258.33,286.43,273.54,286.43Z"/><path class="cls-1" d="M279.49,330.71l-14.42,14.82H253.26L268,330.71Z"/><path class="cls-1" d="M274.39,345.53l-77.39,78c.15-.24.29-.49.43-.76q3.87-7.87,7.75-15.74l59.89-61.53Z"/><path class="cls-1" d="M269.44,294.29l4.1,7.14h-6.81Z"/><path class="cls-1" d="M262.48,323.88,273.62,325l-.55.55q-5.42-.47-10.79-1.37Z"/><path class="cls-1" d="M271.54,310.35q-1.78,2.69-3.59,5.36H261.3l2.46-6.46C266.34,309.71,268.94,310.07,271.54,310.35Z"/><path class="cls-1" d="M267.06,290.14l2.38,4.15-5.06-.14Z"/><path class="cls-1" d="M269.44,294.29l-2.71,7.14H259.5l4.88-7.28Z"/><path class="cls-5" d="M268,330.71l-14.7,14.82H234.64a7.31,7.31,0,0,0-7.33-7.86H209.77L224.83,312,231,301.43H259.5l-4.07,6.06-8,11.94a6.42,6.42,0,0,0-.62,1.19c-1.9,4.62,2.11,10.09,7.09,10.09Z"/><path class="cls-1" d="M267.95,315.71l-5.47,8.17-4.12-.42,2.94-7.75Z"/><path class="cls-1" d="M266.73,301.43l-3,7.82q-4.19-.72-8.33-1.76l4.07-6.06Z"/><path class="cls-1" d="M265.07,345.53l-59.89,61.53q6.38-13,12.76-25.91,17.66-17.82,35.32-35.62Z"/><path class="cls-1" d="M246.82,320.62q5.72,1.68,11.54,2.84l2,3.54,1.89-2.82q5.37.91,10.79,1.37L268,330.71H253.91C248.93,330.71,244.92,325.24,246.82,320.62Z"/><path class="cls-1" d="M264.38,294.15l-4.88,7.28h-22q-2.58-1.12-5.08-2.35c.27-.46.54-.91.8-1.37l-1.63.94c-2-1-3.93-2.06-5.84-3.18l1.37-2.39Z"/><path class="cls-1" d="M258.36,323.46l4.12.42-.2.3C261,324,259.66,323.72,258.36,323.46Z"/><path class="cls-1" d="M262.28,324.18,260.39,327l-2-3.54C259.66,323.72,261,324,262.28,324.18Z"/><path class="cls-1" d="M261.3,315.71l-2.94,7.75q-2.22-3.87-4.45-7.75Z"/><path class="cls-1" d="M258.36,323.46q-5.82-1.17-11.54-2.84a6.42,6.42,0,0,1,.62-1.19l8-11.94q4.14,1,8.33,1.76l-2.46,6.46h-7.39Q256.14,319.58,258.36,323.46Z"/><path class="cls-5" d="M253.26,345.53q-17.65,17.81-35.32,35.62L233.79,349a8.34,8.34,0,0,0,.85-3.43Z"/><path class="cls-1" d="M257,199.77a63.38,63.38,0,0,0-18.46-.84q-2.15-3.47-4.06-7a75.73,75.73,0,0,1,10.28-.72c2.28,0,4.54.12,6.76.32q2.69,4.28,5.77,8.35Z"/><path class="cls-1" d="M322.42,241.07c-.46-1.45-1-2.87-1.51-4.28a58.78,58.78,0,0,1,16.87,7.92,116.94,116.94,0,0,1-23.7-4.93,73.75,73.75,0,0,0-62.55-48.3c-1.56-2.51-3-5.06-4.4-7.66A81.53,81.53,0,0,1,259.61,185c28.14,4.94,51.26,25.4,61.3,51.74-1.23-.36-2.46-.68-3.72-1Z"/><path class="cls-1" d="M234.49,191.88q-1.8-3.37-3.42-6.84a81,81,0,0,1,16.06-1.22c1.36,2.6,2.84,5.15,4.4,7.66-2.22-.2-4.48-.32-6.76-.32A75.73,75.73,0,0,0,234.49,191.88Z"/><path class="cls-1" d="M247.13,183.82A81,81,0,0,0,231.07,185a132.49,132.49,0,0,1-8.38-88.66,121.11,121.11,0,0,1,16.83-8.9L241,88A118.41,118.41,0,0,0,247.13,183.82Z"/><path class="cls-1" d="M231.95,74.52c5.13-2.22,13.88,1.63,11,8.47-.7,1.67-1.36,3.36-2,5l-1.48-.56-11-8.47-1.15-2.39Q229.62,75.52,231.95,74.52Z"/><path class="cls-1" d="M227.31,337.67a7.31,7.31,0,0,1,7.33,7.86H223.21l-2.37-4.14-2,4.14H205.16l4.61-7.86Z"/><path class="cls-1" d="M223.21,345.53h11.43a8.34,8.34,0,0,1-.85,3.43l-15.85,32.19-7.35,7.41,10.53-35.89h6.19Q225.27,349.1,223.21,345.53Z"/><path class="cls-1" d="M183.38,224.09a73.72,73.72,0,0,1,51.11-32.21q1.92,3.58,4.06,7a67.42,67.42,0,0,0-48.69,28.94c-1.84,2.71-5.13,4.48-8.47,3.45a60.13,60.13,0,0,0-7.86-1.85q-1.24-4-2.22-8A61.88,61.88,0,0,1,183.38,224.09Z"/><path class="cls-1" d="M233.18,297.71c-.26.46-.53.91-.8,1.37l-.83-.43Z"/><path class="cls-1" d="M232.38,299.08q2.51,1.23,5.08,2.35H231C231.46,300.64,231.92,299.86,232.38,299.08Z"/><path class="cls-1" d="M231,301.43h-4.3l4.84-2.78.83.43C231.92,299.86,231.46,300.64,231,301.43Z"/><path class="cls-1" d="M231.55,298.65l-4.84,2.78H231L224.83,312c-2.22-1.11-4.4-2.3-6.55-3.54l7.43-13C227.62,296.59,229.56,297.65,231.55,298.65Z"/><path class="cls-1" d="M227.36,76.62,228.51,79a127.89,127.89,0,0,0-5.82,17.37,116.91,116.91,0,0,0-50.71,68,114.55,114.55,0,0,0-2.22,49.54,71.06,71.06,0,0,0-15.37.57,131.15,131.15,0,0,1,73-137.88Z"/><path class="cls-1" d="M223.21,345.53q2.06,3.57,4.1,7.14h-6.19Z"/><path class="cls-1" d="M225.71,295.47l-7.43,13c-2.18-1.26-4.33-2.59-6.43-4l4.06-6.92c1.19-2,2.24-4.17,3.49-6Q222.47,293.59,225.71,295.47Z"/><path class="cls-1" d="M224.83,312l-15.06,25.71h-8.26l16.77-29.25C220.43,309.66,222.61,310.85,224.83,312Z"/><path class="cls-1" d="M220.84,341.39l2.37,4.14H218.8Z"/><path class="cls-1" d="M223.21,345.53l-2.09,7.14h-5.84l3.52-7.14Z"/><path class="cls-3" d="M172,164.39a116.91,116.91,0,0,1,50.71-68A132.49,132.49,0,0,0,231.07,185a82.65,82.65,0,0,0-50.67,30.49,70.67,70.67,0,0,0-10.64-1.6A114.55,114.55,0,0,1,172,164.39Z"/><path class="cls-1" d="M221.12,352.67l-10.53,35.89-13,13.11-11.93,12a8.08,8.08,0,0,0-1.08,1.33q15.35-31.18,30.71-62.37Z"/><path class="cls-1" d="M218.8,345.53l-3.52,7.14h-18.6a7.58,7.58,0,0,1-7.45-7.14h12l2,3.43,2-3.43Z"/><path class="cls-1" d="M218.28,308.42l-16.77,29.25h-4.83l2.41,4.21L197,345.53h-7.77a7.22,7.22,0,0,1,1-4.14q5.41-9.22,10.81-18.45l10.84-18.5C213.95,305.83,216.1,307.16,218.28,308.42Z"/><path class="cls-1" d="M217.94,381.15q-6.39,12.94-12.76,25.91l0,0,5.43-18.52Z"/><path class="cls-1" d="M209.77,337.67l-4.61,7.86h-4l-2.1-3.65,2.42-4.21Z"/><path class="cls-1" d="M205.16,345.53l-2,3.43-2-3.43Z"/><path class="cls-1" d="M201.51,337.67l-2.42,4.21-2.41-4.21Z"/><path class="cls-1" d="M199.09,341.88l2.1,3.65H197Z"/><path class="cls-1" d="M190.15,426.44c-4.39-1-8.29-5.9-5.68-11.21a1.14,1.14,0,0,1,.1-.19,8.08,8.08,0,0,1,1.08-1.33l11.93-12,13-13.11-5.43,18.52,0,0q-3.89,7.86-7.75,15.74c-.14.27-.28.52-.43.76l-.75.75A6.8,6.8,0,0,1,190.15,426.44Z"/><path class="cls-1" d="M190.15,426.44a6.8,6.8,0,0,0,6.1-2.13l.75-.75A6.15,6.15,0,0,1,190.15,426.44Z"/><path class="cls-1" d="M190.15,426.44c-4.8-.8-8.68-6.62-5.58-11.4a1.14,1.14,0,0,0-.1.19C181.86,420.54,185.76,425.47,190.15,426.44Z"/><path class="cls-1" d="M185.38,216.85l-8.47,3.45c1.11-1.64,2.28-3.23,3.49-4.77C182.07,215.91,183.73,216.34,185.38,216.85Z"/><path class="cls-1" d="M231.07,185q1.62,3.47,3.42,6.84a73.72,73.72,0,0,0-51.11,32.21,61.88,61.88,0,0,0-12.07-2.62c-.6-2.49-1.12-5-1.55-7.54a70.67,70.67,0,0,1,10.64,1.6c-1.21,1.54-2.38,3.13-3.49,4.77l8.47-3.45c-1.65-.51-3.31-.94-5-1.32A82.65,82.65,0,0,1,231.07,185Z"/><path class="cls-1" d="M171.31,221.47q1,4,2.22,8a56.84,56.84,0,0,0-16.1-.41q-1-3.68-1.77-7.4a61.43,61.43,0,0,1,15.65-.19Z"/><path class="cls-1" d="M169.76,213.93c.43,2.53,1,5.05,1.55,7.54a61.43,61.43,0,0,0-15.65.19c-.49-2.38-.91-4.76-1.27-7.16A71.06,71.06,0,0,1,169.76,213.93Z"/><path class="cls-1" d="M164.2,338c4.8.05,7.21,3.77,7.24,7.5H164.2a62.23,62.23,0,0,1-8.54-123.87q.78,3.72,1.77,7.4A53.3,53.3,0,0,0,137,235.81a55.23,55.23,0,0,0-25.6,61.82C117.84,321.43,139.7,337.76,164.2,338Z"/><path class="cls-1" d="M102,283.29a62.24,62.24,0,0,0,62.23,62.24h7.24c0,3.77-2.38,7.55-7.24,7.5a71,71,0,0,1-47.42-18.62C93.5,313,88,277.28,103.12,249.63a69.73,69.73,0,0,1,51.27-35.13c.36,2.4.78,4.78,1.27,7.16A62.22,62.22,0,0,0,102,283.29Z"/></g></svg>