<?xml version="1.0" ?><svg viewBox="0 0 500 500" xmlns="http://www.w3.org/2000/svg"><defs><style>.cls-1{fill:#fff;}.cls-2{fill:#231815;}.cls-3{fill:#f4ec90;}</style></defs><title/><g data-name="图层 1" id="图层_1"><path class="cls-1" d="M257.29,204.13a67.08,67.08,0,0,1,47.12,36.4,65.32,65.32,0,0,1,3.54,8.83,7.53,7.53,0,0,0,5.24,5.23,46.44,46.44,0,0,1,18.87,8.89,44.33,44.33,0,0,1,17,32.17,42.71,42.71,0,0,1-.25,8,43.19,43.19,0,0,1-3.05,11.4,45.18,45.18,0,0,1-40.91,27.31c-4.78.06-7.19,3.78-7.24,7.5H286.87c0-3.75-2.41-7.5-7.25-7.5H190.36c-4.83,0-7.24,3.75-7.25,7.5H171.44c0-3.73-2.45-7.45-7.24-7.5-24.51-.28-46.37-16.6-52.84-40.4A55.22,55.22,0,0,1,137,240.11a53.36,53.36,0,0,1,20.47-6.75,57.28,57.28,0,0,1,16.11.4,62.08,62.08,0,0,1,7.85,1.86c3.34,1,6.63-.74,8.47-3.45a67.42,67.42,0,0,1,48.69-28.94,63.11,63.11,0,0,1,18.47.84Zm57.09,105.26c4.64-12.68-.37-27.14-11.45-34.65-12.36-8.37-29.43-5.69-39,5.53a7.48,7.48,0,0,0-1.35,7.85c1.85,4.65,7.82,7.58,11.95,2.76,6.16-7.19,17.16-8.58,23.48-.62a14.8,14.8,0,0,1-3.71,21.55c-5.52,3.49-14,2.23-20.26,2.23H175.1c-9.65,0-9.67,15,0,15H280.8c2.36,0,4.74.09,7.09-.05a30.07,30.07,0,0,0,25.55-17.34C313.78,310.91,314.09,310.16,314.38,309.39Z"/><path class="cls-2" d="M404.51,251.38a131.75,131.75,0,0,1-40.71,52,57.25,57.25,0,0,0-1.27-18.43,120.52,120.52,0,0,0,20.14-24.28A129.57,129.57,0,0,0,400,254.83q-4.25-5.5-8.47-11l-.55-1.48c1.69-.61,3.36-1.26,5-2C402.86,237.52,406.71,246.29,404.51,251.38Z"/><path class="cls-2" d="M391.56,243.81q4.23,5.52,8.47,11a129.57,129.57,0,0,1-17.36,5.81A123.35,123.35,0,0,0,391.56,243.81Z"/><path class="cls-2" d="M391,242.33l.55,1.48a123.35,123.35,0,0,1-8.89,16.83,130.26,130.26,0,0,1-29.14,4.06A60.76,60.76,0,0,0,337.77,249,119.2,119.2,0,0,0,391,242.33Z"/><path class="cls-2" d="M368.24,150.76a6.73,6.73,0,0,1-4.65-6.31c.63-.25,1.26-.5,1.89-.73a10.76,10.76,0,0,1,2-.68c5.59-.66-1.95,7,1.38,7.92Z"/><path class="cls-2" d="M365.48,143.72c-.63.23-1.26.48-1.89.73-.2-4.59,3.52-9.51,9.29-8,9.27,2.66,5.3,17.13-4,14.47-3.33-.9,4.21-8.58-1.38-7.92A10.76,10.76,0,0,0,365.48,143.72Z"/><path class="cls-3" d="M382.67,260.64a120.52,120.52,0,0,1-20.14,24.28,59.79,59.79,0,0,0-9-20.22A130.26,130.26,0,0,0,382.67,260.64Z"/><path class="cls-2" d="M363.64,305a59.91,59.91,0,0,1-58.8,52.34c-4.87.06-7.28-3.72-7.24-7.5h7.24a51.76,51.76,0,0,0,50.51-40.49q4.33-2.84,8.45-6C363.75,303.9,363.7,304.44,363.64,305Z"/><path class="cls-2" d="M363.59,144.45a6.73,6.73,0,0,0,4.65,6.31,53.26,53.26,0,0,1-9.75-4c.63-.33,1.26-.66,1.92-1C361.45,145.32,362.52,144.87,363.59,144.45Z"/><path class="cls-2" d="M362.53,284.92a57.25,57.25,0,0,1,1.27,18.43q-4.11,3.15-8.45,6a51.6,51.6,0,0,0,1.24-11.26,51,51,0,0,0-.56-7.57Q359.39,287.84,362.53,284.92Z"/><path class="cls-2" d="M344.3,264.6c3.07.14,6.15.18,9.23.1a59.79,59.79,0,0,1,9,20.22q-3.15,2.91-6.5,5.59A51.48,51.48,0,0,0,344.3,264.6Z"/><path class="cls-2" d="M356.59,298.08a51.6,51.6,0,0,1-1.24,11.26c-3.11,2-6.32,3.92-9.6,5.68a43.19,43.19,0,0,0,3.05-11.4,42.71,42.71,0,0,0,.25-8q3.6-2.44,7-5.14A51,51,0,0,1,356.59,298.08Z"/><path class="cls-2" d="M355.35,309.34a51.76,51.76,0,0,1-50.51,40.49H297.6c0-3.72,2.46-7.44,7.24-7.5A45.18,45.18,0,0,0,345.75,315C349,313.26,352.24,311.36,355.35,309.34Z"/><path class="cls-2" d="M356,290.51q-3.39,2.7-7,5.14a44.33,44.33,0,0,0-17-32.17q6.09.84,12.24,1.12A51.48,51.48,0,0,1,356,290.51Z"/><path class="cls-2" d="M344.3,264.6a51.76,51.76,0,0,0-29.12-17.24c-.34-1.1-.71-2.2-1.11-3.28a118.31,118.31,0,0,0,23.7,4.93,60.76,60.76,0,0,1,15.76,15.69C350.45,264.78,347.37,264.74,344.3,264.6Z"/><path class="cls-2" d="M336.56,124.88a54.82,54.82,0,0,1-2.62-5.71,15.31,15.31,0,0,1-1.17-3.35c-.13-.46-.26-.92-.4-1.38h8.31c0,1.41-1.08,3.47-1.57,4.73A60.88,60.88,0,0,1,336.56,124.88Z"/><path class="cls-2" d="M304.85,150.76c1.38,0,3.4-1.11,4.71-1.63q2.61-1.05,5.1-2.32a53.7,53.7,0,0,1,11.13,7.79,50.31,50.31,0,0,1,10.71,14c-1.54,2.79-3.32,6.16-3.73,9.17-.35,2.52-2.14,1.37,3.76,1.37,4.85,0,4.52,1,3.54-2.05a59.64,59.64,0,0,0-2.26-5.78c-.4-.91-.85-1.82-1.31-2.71l.59-1.08a52.78,52.78,0,0,1,21.4-20.79,53.26,53.26,0,0,0,9.75,4l.65.2c9.29,2.66,13.26-11.81,4-14.47a10.71,10.71,0,0,1,7.7,11.75c-.71,5.27-4.46,7.66-9.08,9.27-9.45,3.28-17.06,9.31-21.79,18.22-2,3.72-2.42,8.45-5.21,11.66a10.64,10.64,0,0,1-12.16,2.72c-5-2.13-5.66-6.52-7.43-11a36.24,36.24,0,0,0-5.87-9.89,37.88,37.88,0,0,0-10.21-8.53c-3.48-2-7.46-2.6-10.91-4.51a10.72,10.72,0,0,1-5.19-12.21c1.24-4.54,4.7-6.46,8.83-7.84a37.32,37.32,0,0,0,19.65-14.61c4.45-6.81,5.18-19.29,15.76-18.87,9.9.38,10.56,12.28,14.87,18.87a37.11,37.11,0,0,0,21,15c-5.77-1.55-9.49,3.37-9.29,8-1.07.42-2.14.87-3.18,1.34-.66.3-1.29.63-1.92,1a52.44,52.44,0,0,1-21.93-21.87,60.88,60.88,0,0,0,2.55-5.71c.49-1.26,1.58-3.32,1.57-4.73h-8.31c.14.46.27.92.4,1.38a15.31,15.31,0,0,0,1.17,3.35,54.82,54.82,0,0,0,2.62,5.71c-.63,1.22-1.28,2.43-2,3.59a53.93,53.93,0,0,1-14.61,15.19,43.92,43.92,0,0,1-5.27,3.15,54.93,54.93,0,0,0-7.76-3.33,10.5,10.5,0,0,0-2.73-.83v4.15Q302.16,151.88,304.85,150.76Z"/><path class="cls-2" d="M337.81,171.33a59.64,59.64,0,0,1,2.26,5.78c1,3.06,1.31,2.05-3.54,2.05-5.9,0-4.11,1.15-3.76-1.37.41-3,2.19-6.38,3.73-9.17C337,169.51,337.41,170.42,337.81,171.33Z"/><path class="cls-1" d="M336.5,168.62a50.31,50.31,0,0,0-10.71-14,53.7,53.7,0,0,0-11.13-7.79,43.92,43.92,0,0,0,5.27-3.15,53.93,53.93,0,0,0,14.61-15.19c.74-1.16,1.39-2.37,2-3.59a52.44,52.44,0,0,0,21.93,21.87,52.78,52.78,0,0,0-21.4,20.79Z"/><path class="cls-2" d="M315.18,247.36A51.76,51.76,0,0,1,344.3,264.6q-6.15-.27-12.24-1.12a46.44,46.44,0,0,0-18.87-8.89,7.53,7.53,0,0,1-5.24-5.23,65.32,65.32,0,0,0-3.54-8.83c3.17,1.33,6.4,2.51,9.66,3.55C314.47,245.16,314.84,246.26,315.18,247.36Z"/><path class="cls-2" d="M322.42,245.37l-5.24-5.24c1.26.27,2.5.6,3.73.95C321.44,242.5,322,243.92,322.42,245.37Z"/><path class="cls-2" d="M302.93,274.74c11.08,7.51,16.09,22,11.45,34.65-.29.77-.6,1.52-.94,2.26q-5,1.27-10.11,2.11a22.14,22.14,0,1,0-34.14-28.18l-6.65,2.54a7.48,7.48,0,0,1,1.35-7.85C273.5,269,290.57,266.37,302.93,274.74Z"/><path class="cls-2" d="M303.33,313.76q5.09-.82,10.11-2.11A30.07,30.07,0,0,1,287.89,329c-2.35.14-4.73.05-7.09.05h-15a134,134,0,0,1-29-7.5h49.69A22.06,22.06,0,0,0,303.33,313.76Z"/><path class="cls-2" d="M306.9,143.48a54.93,54.93,0,0,1,7.76,3.33q-2.49,1.28-5.1,2.32c-1.31.52-3.33,1.67-4.71,1.63q-2.69,1.13-.68-4v-4.15A10.5,10.5,0,0,1,306.9,143.48Z"/><path class="cls-2" d="M251.53,195.78a73.72,73.72,0,0,1,62.54,48.3c-3.26-1-6.49-2.22-9.66-3.55a67.08,67.08,0,0,0-47.12-36.4C255.24,201.42,253.31,198.63,251.53,195.78Z"/><path class="cls-2" d="M286.87,349.83H183.11c0-3.75,2.42-7.5,7.25-7.5h89.26C284.46,342.33,286.87,346.08,286.87,349.83Z"/><path class="cls-2" d="M183.11,349.83H286.87c0,3.75-2.42,7.5-7.25,7.5H190.36C185.52,357.33,183.11,353.58,183.11,349.83Z"/><path class="cls-2" d="M266.72,314a118.6,118.6,0,0,0,36.61-.28,22.06,22.06,0,0,1-16.84,7.78H236.8c-3.49-1.34-6.94-2.82-10.31-4.45-2-1-4-2-5.9-3.05Z"/><path class="cls-2" d="M286.49,277.25a22.14,22.14,0,0,1,16.84,36.51,118.6,118.6,0,0,1-36.61.28H274c6.25,0,14.74,1.26,20.26-2.23A14.8,14.8,0,0,0,298,290.26c-6.32-8-17.32-6.57-23.48.62-4.13,4.82-10.1,1.89-11.95-2.76l6.65-2.54A22.09,22.09,0,0,1,286.49,277.25Z"/><path class="cls-2" d="M283.6,396.41A18.29,18.29,0,0,1,251,407.83l-5.87-4.07c2.41-3.67,7.5-5.47,11.17-1.24,4.35,5,11.57,6.59,16.63,1.52a10.85,10.85,0,0,0,0-15.26c-4.44-4.44-12-3.16-17.72-3.16H218.93l-10.83-7.5h57.21A18.29,18.29,0,0,1,283.6,396.41Z"/><path class="cls-2" d="M265.31,414.71a18.3,18.3,0,0,0,0-36.59H208.1l10.83,7.5H208.1c-9.67,0-9.65-15,0-15h48.64c7.33,0,14.51-.41,21.21,3.31,13.48,7.47,17.13,25.87,7.86,38a26,26,0,0,1-40.1,1.16,7.54,7.54,0,0,1-.57-9.37l5.87,4.07A18.27,18.27,0,0,0,265.31,414.71Z"/><path class="cls-2" d="M251.53,195.78c1.78,2.85,3.71,5.64,5.76,8.35l-.28-.06a63.11,63.11,0,0,0-18.47-.84c-1.43-2.31-2.77-4.66-4-7.05a74.12,74.12,0,0,1,10.27-.72C247.05,195.46,249.3,195.58,251.53,195.78Z"/><path class="cls-2" d="M247.12,188.12a81.78,81.78,0,0,1,12.49,1.23c28.13,4.94,51.25,25.4,61.3,51.73-1.23-.35-2.47-.68-3.73-.95l5.24,5.24c-.47-1.45-1-2.87-1.51-4.29A59.14,59.14,0,0,1,337.77,249a118.31,118.31,0,0,1-23.7-4.93,73.72,73.72,0,0,0-62.54-48.3Q249.18,192,247.12,188.12Z"/><path class="cls-2" d="M247.12,188.12q2.06,3.9,4.41,7.66c-2.23-.2-4.48-.32-6.77-.32a74.12,74.12,0,0,0-10.27.72q-1.81-3.37-3.42-6.84A80.87,80.87,0,0,1,247.12,188.12Z"/><path class="cls-2" d="M247.12,188.12a80.87,80.87,0,0,0-16.05,1.22,132.43,132.43,0,0,1-8.38-88.66,121.67,121.67,0,0,1,16.83-8.91l1.47.55A118.46,118.46,0,0,0,247.12,188.12Z"/><path class="cls-2" d="M232,78.82c5.13-2.22,13.87,1.63,11,8.47-.7,1.67-1.35,3.34-2,5l-1.47-.55-11-8.47-1.14-2.38Q229.63,79.82,232,78.82Z"/><path class="cls-2" d="M228.5,83.3l11,8.47a121.67,121.67,0,0,0-16.83,8.91A127.05,127.05,0,0,1,228.5,83.3Z"/><path class="cls-2" d="M236.8,321.54a134,134,0,0,0,29,7.5H175.1c-9.67,0-9.65-15,0-15h19.63l-19.63,7.5Z"/><path class="cls-2" d="M236.8,321.54H175.1l19.63-7.5h25.86c1.94,1.06,3.9,2.08,5.9,3.05C229.86,318.72,233.31,320.2,236.8,321.54Z"/><path class="cls-2" d="M183.38,228.38a73.74,73.74,0,0,1,51.11-32.2c1.28,2.39,2.62,4.74,4,7.05a67.42,67.42,0,0,0-48.69,28.94c-1.84,2.71-5.13,4.48-8.47,3.45a62.08,62.08,0,0,0-7.85-1.86c-.84-2.63-1.58-5.3-2.22-8A62.6,62.6,0,0,1,183.38,228.38Z"/><path class="cls-2" d="M227.36,80.92l1.14,2.38a127.05,127.05,0,0,0-5.81,17.38,116.89,116.89,0,0,0-50.72,68,114.55,114.55,0,0,0-2.22,49.54,71.06,71.06,0,0,0-15.37.57,131.18,131.18,0,0,1,73-137.88Z"/><path class="cls-3" d="M222.69,100.68a132.43,132.43,0,0,0,8.38,88.66,82.65,82.65,0,0,0-50.68,30.49,70.48,70.48,0,0,0-10.64-1.6A114.55,114.55,0,0,1,172,168.69,116.89,116.89,0,0,1,222.69,100.68Z"/><path class="cls-2" d="M185.37,221.15l-8.47,3.45q1.68-2.46,3.49-4.77C182.06,220.21,183.72,220.64,185.37,221.15Z"/><path class="cls-2" d="M169.75,218.23a70.48,70.48,0,0,1,10.64,1.6q-1.81,2.31-3.49,4.77l8.47-3.45c-1.65-.51-3.31-.94-5-1.32a82.65,82.65,0,0,1,50.68-30.49q1.6,3.47,3.42,6.84a73.74,73.74,0,0,0-51.11,32.2,62.6,62.6,0,0,0-12.07-2.61C170.71,223.28,170.19,220.76,169.75,218.23Z"/><path class="cls-2" d="M164.2,225.36a62,62,0,0,1,7.11.41c.64,2.69,1.38,5.36,2.22,8a57.28,57.28,0,0,0-16.11-.4q-1-3.67-1.76-7.4A61.65,61.65,0,0,1,164.2,225.36Z"/><path class="cls-2" d="M154.38,218.8a71.06,71.06,0,0,1,15.37-.57c.44,2.53,1,5.05,1.56,7.54a61.43,61.43,0,0,0-15.65.19C155.16,223.58,154.74,221.2,154.38,218.8Z"/><path class="cls-2" d="M164.2,342.33c4.79,0,7.2,3.77,7.24,7.5H164.2A62.23,62.23,0,0,1,155.66,226q.76,3.72,1.76,7.4A53.36,53.36,0,0,0,137,240.11a55.22,55.22,0,0,0-25.59,61.82C117.83,325.73,139.69,342,164.2,342.33Z"/><path class="cls-2" d="M171.44,349.83c0,3.77-2.38,7.55-7.24,7.5a70.92,70.92,0,0,1-47.42-18.62C93.49,317.29,88,281.58,103.12,253.93a69.7,69.7,0,0,1,51.26-35.13c.36,2.4.78,4.78,1.28,7.16a62.23,62.23,0,0,0,8.54,123.87Z"/></g></svg>