<?xml version="1.0" ?><svg viewBox="0 0 500 500" xmlns="http://www.w3.org/2000/svg"><defs><style>.cls-1{fill:#dcdddd;}.cls-2{fill:#231815;}.cls-3{fill:#f4ec90;}.cls-4{fill:#fff;}</style></defs><title/><g data-name="图层 1" id="图层_1"><path class="cls-1" d="M189.85,250.46a67.45,67.45,0,0,1,48.69-28.94,63.72,63.72,0,0,1,18.46.84c.1,0,.19.05.29.06a67.11,67.11,0,0,1,47.12,36.41,65.19,65.19,0,0,1,3.54,8.82,7.54,7.54,0,0,0,5.24,5.24,46.29,46.29,0,0,1,18.87,8.88,44.35,44.35,0,0,1,17,32.17,43.69,43.69,0,0,1-.25,8,43.12,43.12,0,0,1-3.05,11.39,45.18,45.18,0,0,1-40.91,27.31c-4.78.06-7.19,3.78-7.24,7.5H286.87c0-3.75-2.41-7.5-7.25-7.5H190.36c-4.83,0-7.25,3.75-7.25,7.5H171.43c0-3.72-2.44-7.45-7.24-7.5-24.5-.27-46.36-16.6-52.83-40.4A55.21,55.21,0,0,1,137,258.41a53.32,53.32,0,0,1,20.47-6.76,56.84,56.84,0,0,1,16.1.41,60.13,60.13,0,0,1,7.86,1.85C184.72,254.94,188,253.17,189.85,250.46Zm96.64,96.87c8,0,9.39-10.4,4-13.88a7.25,7.25,0,0,0-4-1.12H175.1c-9.65,0-9.67,15,0,15H286.49Z"/><path class="cls-2" d="M404.51,269.68a131.89,131.89,0,0,1-40.71,52,57.23,57.23,0,0,0-1.27-18.43,120.86,120.86,0,0,0,20.14-24.29A126.21,126.21,0,0,0,400,273.12l-8.47-11-.56-1.48c1.69-.61,3.38-1.27,5.05-2C402.85,255.81,406.71,264.59,404.51,269.68Z"/><path class="cls-2" d="M391.55,262.11l8.47,11a126.21,126.21,0,0,1-17.35,5.81A122.08,122.08,0,0,0,391.55,262.11Z"/><path class="cls-2" d="M391,260.63l.56,1.48a122.08,122.08,0,0,1-8.88,16.82A129.2,129.2,0,0,1,353.52,283a60.53,60.53,0,0,0-15.75-15.68A119.29,119.29,0,0,0,391,260.63Z"/><path class="cls-2" d="M367.51,161.34c5.59-.67-1.95,7,1.38,7.91l-.65-.2a6.73,6.73,0,0,1-4.65-6.31c.63-.25,1.26-.5,1.89-.72A10.76,10.76,0,0,1,367.51,161.34Z"/><path class="cls-2" d="M365.48,162c-.63.22-1.26.47-1.89.72-.2-4.58,3.52-9.51,9.28-7.95,9.28,2.66,5.31,17.12-4,14.46-3.33-.9,4.21-8.58-1.38-7.91A10.76,10.76,0,0,0,365.48,162Z"/><path class="cls-3" d="M382.67,278.93a120.86,120.86,0,0,1-20.14,24.29,59.67,59.67,0,0,0-9-20.23A129.2,129.2,0,0,0,382.67,278.93Z"/><path class="cls-2" d="M363.64,323.28a59.91,59.91,0,0,1-58.8,52.34c-4.87.07-7.28-3.72-7.24-7.5h7.24a51.76,51.76,0,0,0,50.51-40.49q4.33-2.82,8.45-6C363.74,322.19,363.7,322.74,363.64,323.28Z"/><path class="cls-2" d="M368.24,169a53.61,53.61,0,0,1-9.76-4c.64-.33,1.27-.66,1.93-1,1-.48,2.11-.92,3.18-1.35A6.73,6.73,0,0,0,368.24,169Z"/><path class="cls-2" d="M356,308.8q3.36-2.67,6.5-5.58a57.23,57.23,0,0,1,1.27,18.43q-4.11,3.15-8.45,6a52.15,52.15,0,0,0,1.24-11.26A51.1,51.1,0,0,0,356,308.8Z"/><path class="cls-2" d="M356,308.8a51.1,51.1,0,0,1,.56,7.57,52.15,52.15,0,0,1-1.24,11.26q-4.68,3-9.6,5.68a43.12,43.12,0,0,0,3.05-11.39,43.69,43.69,0,0,0,.25-8Q352.64,311.51,356,308.8Z"/><path class="cls-2" d="M355.35,327.63a51.76,51.76,0,0,1-50.51,40.49H297.6c.05-3.72,2.46-7.44,7.24-7.5a45.18,45.18,0,0,0,40.91-27.31Q350.67,330.67,355.35,327.63Z"/><path class="cls-2" d="M344.3,282.9A51.41,51.41,0,0,1,356,308.8q-3.39,2.7-7,5.14a44.35,44.35,0,0,0-17-32.17Q338.15,282.61,344.3,282.9Z"/><path class="cls-2" d="M314.07,262.37a117.64,117.64,0,0,0,23.7,4.94A60.53,60.53,0,0,1,353.52,283c-3.07.08-6.15.05-9.22-.09a51.7,51.7,0,0,0-29.12-17.24C314.84,264.55,314.47,263.46,314.07,262.37Z"/><path class="cls-2" d="M344.3,282.9c3.07.14,6.15.17,9.22.09a59.67,59.67,0,0,1,9,20.23q-3.15,2.91-6.5,5.58A51.41,51.41,0,0,0,344.3,282.9Z"/><path class="cls-2" d="M336.56,143.18a53.73,53.73,0,0,1-2.62-5.71,15.57,15.57,0,0,1-1.17-3.36c-.13-.46-.27-.91-.4-1.37h8.31c0,1.41-1.08,3.47-1.57,4.73C338.35,139.41,337.51,141.32,336.56,143.18Z"/><path class="cls-2" d="M309.56,167.42c1.73-.7,3.44-1.46,5.1-2.31a53.28,53.28,0,0,1,11.13,7.78,50.46,50.46,0,0,1,10.71,14c-1.54,2.8-3.32,6.16-3.73,9.17-.35,2.53-2.14,1.38,3.76,1.38,4.85,0,4.52,1,3.54-2.06a59.47,59.47,0,0,0-2.26-5.77c-.4-.92-.85-1.82-1.31-2.72l.59-1.07A52.87,52.87,0,0,1,358.48,165a53.61,53.61,0,0,0,9.76,4l.65.2c9.29,2.66,13.26-11.8,4-14.46a10.71,10.71,0,0,1,7.71,11.75c-.71,5.27-4.46,7.66-9.08,9.26-9.45,3.29-17.06,9.32-21.79,18.22-2,3.72-2.43,8.46-5.21,11.67a10.65,10.65,0,0,1-12.16,2.71c-5-2.12-5.66-6.52-7.44-11a35.9,35.9,0,0,0-5.86-9.88,37.92,37.92,0,0,0-10.21-8.54c-3.48-2-7.46-2.6-10.91-4.5a10.75,10.75,0,0,1-5.2-12.21c1.25-4.54,4.71-6.47,8.83-7.85a37.2,37.2,0,0,0,19.66-14.61c4.45-6.8,5.18-19.28,15.76-18.87,9.9.39,10.56,12.28,14.87,18.87a37.1,37.1,0,0,0,21,15c-5.76-1.56-9.48,3.37-9.28,7.95-1.07.43-2.14.87-3.18,1.35-.66.3-1.29.63-1.93,1a52.53,52.53,0,0,1-21.92-21.87c.95-1.86,1.79-3.77,2.55-5.71.49-1.26,1.58-3.32,1.57-4.73h-8.31c.13.46.27.91.4,1.37a15.57,15.57,0,0,0,1.17,3.36,53.73,53.73,0,0,0,2.62,5.71c-.63,1.22-1.29,2.42-2,3.58a53.79,53.79,0,0,1-14.61,15.19,45.35,45.35,0,0,1-5.27,3.16,53.8,53.8,0,0,0-7.76-3.33,10.9,10.9,0,0,0-2.74-.84v4.16q-2,5.08.69,3.95C306.23,169.09,308.25,167.94,309.56,167.42Z"/><path class="cls-2" d="M336.5,186.91c.46.9.91,1.8,1.31,2.72a59.47,59.47,0,0,1,2.26,5.77c1,3.07,1.31,2.06-3.54,2.06-5.9,0-4.11,1.15-3.76-1.38C333.18,193.07,335,189.71,336.5,186.91Z"/><path class="cls-4" d="M336.5,186.91a50.46,50.46,0,0,0-10.71-14,53.28,53.28,0,0,0-11.13-7.78,45.35,45.35,0,0,0,5.27-3.16,53.79,53.79,0,0,0,14.61-15.19c.73-1.16,1.39-2.36,2-3.58A52.53,52.53,0,0,0,358.48,165a52.87,52.87,0,0,0-21.39,20.79Z"/><path class="cls-2" d="M344.3,282.9q-6.15-.29-12.24-1.13a46.29,46.29,0,0,0-18.87-8.88,7.54,7.54,0,0,1-5.24-5.24,65.19,65.19,0,0,0-3.54-8.82c3.17,1.32,6.4,2.5,9.66,3.54.4,1.09.77,2.18,1.11,3.29A51.7,51.7,0,0,1,344.3,282.9Z"/><path class="cls-2" d="M322.42,263.66l-5.24-5.23c1.26.27,2.5.6,3.72.95C321.44,260.79,322,262.22,322.42,263.66Z"/><path class="cls-2" d="M317.18,258.43l5.24,5.23c-.47-1.44-1-2.87-1.52-4.28a58.54,58.54,0,0,1,16.87,7.93,117.64,117.64,0,0,1-23.7-4.94,73.77,73.77,0,0,0-62.54-48.3q-2.36-3.75-4.41-7.66a84.38,84.38,0,0,1,12.49,1.23c28.13,4.95,51.25,25.4,61.29,51.74C319.68,259,318.44,258.7,317.18,258.43Z"/><path class="cls-2" d="M308.31,388.91c9.67,0,9.65,15,0,15H208.1c-9.67,0-9.65-15,0-15H308.31Z"/><path class="cls-2" d="M304.85,169q-2.69,1.14-.69-3.95v-4.16a10.9,10.9,0,0,1,2.74.84,53.8,53.8,0,0,1,7.76,3.33c-1.66.85-3.37,1.61-5.1,2.31C308.25,167.94,306.23,169.09,304.85,169Z"/><path class="cls-2" d="M251.53,214.07a73.77,73.77,0,0,1,62.54,48.3c-3.26-1-6.49-2.22-9.66-3.54a67.11,67.11,0,0,0-47.12-36.41C255.24,219.71,253.31,216.93,251.53,214.07Z"/><path class="cls-2" d="M236.8,339.83q-5.25-2-10.32-4.45-3-1.44-5.89-3h46.12a118.59,118.59,0,0,0,23.81,1.12c5.36,3.48,4,13.88-4,13.88H265.81A133.26,133.26,0,0,1,236.8,339.83Z"/><path class="cls-2" d="M286.87,368.12H183.11c0-3.75,2.42-7.5,7.25-7.5h89.26C284.46,360.62,286.87,364.37,286.87,368.12Z"/><path class="cls-2" d="M183.11,368.12H286.87c0,3.75-2.42,7.5-7.25,7.5H190.36C185.52,375.62,183.11,371.87,183.11,368.12Z"/><path class="cls-2" d="M290.52,333.45a118.59,118.59,0,0,1-23.81-1.12h19.78A7.25,7.25,0,0,1,290.52,333.45Z"/><path class="cls-2" d="M251.53,214.07c1.78,2.86,3.71,5.64,5.76,8.35-.1,0-.19,0-.29-.06a63.72,63.72,0,0,0-18.46-.84c-1.43-2.31-2.77-4.66-4.05-7a74.12,74.12,0,0,1,10.27-.72C247,213.76,249.3,213.87,251.53,214.07Z"/><path class="cls-2" d="M231.07,207.63a82.4,82.4,0,0,1,16-1.22q2.06,3.9,4.41,7.66c-2.23-.2-4.49-.31-6.77-.31a74.12,74.12,0,0,0-10.27.72C233.28,212.23,232.14,209.94,231.07,207.63Z"/><path class="cls-2" d="M247.12,206.41a82.4,82.4,0,0,0-16,1.22A132.43,132.43,0,0,1,222.69,119a121.61,121.61,0,0,1,16.83-8.9l1.47.55A118.43,118.43,0,0,0,247.12,206.41Z"/><path class="cls-2" d="M231.94,97.12c5.14-2.22,13.88,1.62,11,8.47-.7,1.67-1.35,3.34-2,5l-1.47-.55-11-8.47-1.14-2.38C228.87,98.48,230.4,97.79,231.94,97.12Z"/><path class="cls-2" d="M239.52,110.07a121.61,121.61,0,0,0-16.83,8.9,126.92,126.92,0,0,1,5.81-17.37Z"/><path class="cls-2" d="M236.8,339.83a133.26,133.26,0,0,0,29,7.5H175.1c-9.67,0-9.65-15,0-15h45.49q2.91,1.61,5.89,3Q231.55,337.82,236.8,339.83Z"/><path class="cls-2" d="M234.49,214.48c1.28,2.38,2.62,4.73,4.05,7a67.45,67.45,0,0,0-48.69,28.94c-1.84,2.71-5.13,4.48-8.47,3.45a60.13,60.13,0,0,0-7.86-1.85c-.83-2.64-1.57-5.3-2.21-8a62.78,62.78,0,0,1,12.07,2.62A73.66,73.66,0,0,1,234.49,214.48Z"/><path class="cls-2" d="M227.36,99.22l1.14,2.38A126.92,126.92,0,0,0,222.69,119,116.92,116.92,0,0,0,172,187a114.59,114.59,0,0,0-2.22,49.55,70.43,70.43,0,0,0-15.37.56,131.16,131.16,0,0,1,73-137.87Z"/><path class="cls-3" d="M172,187a116.92,116.92,0,0,1,50.72-68,132.43,132.43,0,0,0,8.38,88.66,82.69,82.69,0,0,0-50.68,30.49,69.21,69.21,0,0,0-10.64-1.59A114.59,114.59,0,0,1,172,187Z"/><path class="cls-2" d="M185.37,239.45l-8.47,3.44c1.11-1.64,2.28-3.22,3.49-4.77C182.06,238.51,183.72,238.94,185.37,239.45Z"/><path class="cls-2" d="M183.38,246.68a62.78,62.78,0,0,0-12.07-2.62q-.9-3.73-1.56-7.53a69.21,69.21,0,0,1,10.64,1.59c-1.21,1.55-2.38,3.13-3.49,4.77l8.47-3.44c-1.65-.51-3.31-.94-5-1.33a82.69,82.69,0,0,1,50.68-30.49c1.07,2.31,2.21,4.6,3.42,6.85A73.66,73.66,0,0,0,183.38,246.68Z"/><path class="cls-2" d="M164.19,243.65a64.37,64.37,0,0,1,7.12.41c.64,2.7,1.38,5.36,2.21,8a56.84,56.84,0,0,0-16.1-.41c-.66-2.45-1.25-4.91-1.77-7.4A63.46,63.46,0,0,1,164.19,243.65Z"/><path class="cls-2" d="M169.75,236.53q.66,3.79,1.56,7.53a64.37,64.37,0,0,0-7.12-.41,63.46,63.46,0,0,0-8.54.6q-.73-3.56-1.27-7.16A70.43,70.43,0,0,1,169.75,236.53Z"/><path class="cls-2" d="M102,305.89a62.23,62.23,0,0,1,53.69-61.64c.52,2.49,1.11,4.95,1.77,7.4A53.32,53.32,0,0,0,137,258.41a55.21,55.21,0,0,0-25.59,61.81c6.47,23.8,28.33,40.13,52.83,40.4,4.8.05,7.21,3.78,7.24,7.5h-7.24A62.23,62.23,0,0,1,102,305.89Z"/><path class="cls-2" d="M154.38,237.09q.54,3.6,1.27,7.16a62.23,62.23,0,0,0,8.54,123.87h7.24c0,3.78-2.37,7.55-7.24,7.5A70.9,70.9,0,0,1,116.78,357C93.49,335.59,88,299.87,103.11,272.22A69.76,69.76,0,0,1,154.38,237.09Z"/></g></svg>