<?xml version="1.0" ?><svg viewBox="0 0 500 500" xmlns="http://www.w3.org/2000/svg"><defs><style>.cls-1{fill:#dcdddd;}.cls-2{fill:#231815;}</style></defs><title/><g data-name="图层 1" id="图层_1"><path class="cls-1" d="M325.57,304.75a51.75,51.75,0,0,0,10.34-102.46,73.71,73.71,0,0,0-131.81-19,62.24,62.24,0,1,0-19.18,121.44"/><path class="cls-2" d="M325.57,312.25a59.9,59.9,0,0,0,58.79-52.34c3.7-30-17-58.47-46.46-64.86l5.24,5.24c-9.07-28.39-33.17-50.81-62.81-56a82.4,82.4,0,0,0-82.71,35.25l8.47-3.45c-31.4-9.69-66.35,3.77-82.26,32.77-15.16,27.65-9.62,63.37,13.66,84.79a70.91,70.91,0,0,0,47.42,18.61c9.66.11,9.66-14.89,0-15-24.5-.27-46.36-16.6-52.84-40.4A55.22,55.22,0,0,1,157.67,195c13.58-7.83,29.54-9.09,44.43-4.49,3.34,1,6.63-.74,8.47-3.45C225.22,165.55,252,154,277.73,159a67.05,67.05,0,0,1,50.95,45.29,7.54,7.54,0,0,0,5.24,5.24c22.53,4.89,38.5,25.75,35.61,49-2.74,22.09-22,38.41-44,38.7-9.64.13-9.67,15.13,0,15Z"/><path class="cls-2" d="M195.82,284h79.46c3.56,0,7.23-.24,10.78,0a6.65,6.65,0,0,1,.12,13.29c-12.47,1-25.37,0-37.87,0-13.79,0-33-3.44-41.57,10.35-6.94,11.24-1.74,26.37,10.37,31.3,5.86,2.39,12.8,1.63,19,1.63h24.38c5,0,12.32-.5,12.32,6.65,0,8.64-11.59,6.65-17.13,6.65-8.8,0-17.72-.84-24.84,5.49a21.79,21.79,0,0,0,.49,32.72c5.83,4.83,12.46,5.08,19.53,5.08h49.45c9.65,0,9.67-15,0-15H261.62c-5.35,0-10.84.36-16.19,0-8.73-.59-8.94-12.59-.18-13.29,6.45-.52,13.1.06,19.57,0,11.47-.11,21.49-7.41,22.82-19.29,1.45-13-8.79-23.51-21.48-24-5.65-.22-11.35,0-17,0q-11.14,0-22.28,0c-2.37,0-4.54-.15-6.35-2a6.67,6.67,0,0,1,1-10.21c3.23-2.17,9.25-1.13,12.88-1.13H281c6.9,0,13.4-.39,19-5.08a21.77,21.77,0,0,0,0-33.13c-5.15-4.27-11.16-5.08-17.53-5.08H195.82c-9.65,0-9.67,15,0,15Z"/></g></svg>