<?xml version="1.0" ?><svg viewBox="0 0 500 500" xmlns="http://www.w3.org/2000/svg"><defs><style>.cls-1{fill:#fff;}.cls-2{fill:#231815;}.cls-3{fill:#2ea7e0;}</style></defs><title/><g data-name="图层 1" id="图层_1"><path class="cls-1" d="M325.57,301.28a51.75,51.75,0,0,0,10.34-102.46,73.71,73.71,0,0,0-131.81-19,62.24,62.24,0,1,0-19.18,121.44"/><path class="cls-2" d="M325.57,308.78a59.9,59.9,0,0,0,58.79-52.34c3.7-30-17-58.47-46.46-64.86l5.24,5.24c-9.07-28.39-33.17-50.81-62.81-56a82.4,82.4,0,0,0-82.71,35.25l8.47-3.45c-31.4-9.69-66.35,3.77-82.26,32.77-15.16,27.65-9.62,63.37,13.66,84.79a70.91,70.91,0,0,0,47.42,18.61c9.66.11,9.66-14.89,0-15-24.5-.27-46.36-16.6-52.84-40.4a55.22,55.22,0,0,1,25.59-61.82c13.58-7.83,29.54-9.09,44.43-4.49,3.34,1,6.63-.74,8.47-3.45,14.64-21.54,41.42-33.14,67.15-28.1a67.05,67.05,0,0,1,50.95,45.29,7.54,7.54,0,0,0,5.24,5.24c22.53,4.89,38.5,25.75,35.61,49-2.74,22.09-22,38.41-44,38.7-9.64.13-9.67,15.13,0,15Z"/><line class="cls-3" x1="204.97" x2="197.59" y1="267.32" y2="248.12"/><path class="cls-3" d="M212.2,265.32l-7.37-19.2c-1.45-3.78-5-6.39-9.23-5.24-3.61,1-6.7,5.42-5.24,9.23l7.37,19.2c1.45,3.78,5,6.39,9.23,5.24,3.61-1,6.7-5.42,5.24-9.23Z"/><line class="cls-3" x1="242.93" x2="235.56" y1="267.32" y2="248.12"/><path class="cls-3" d="M250.16,265.33l-7.37-19.2c-1.45-3.78-5-6.39-9.23-5.24-3.61,1-6.7,5.42-5.24,9.23l7.37,19.2c1.45,3.78,5,6.39,9.23,5.24,3.61-1,6.7-5.42,5.24-9.23Z"/><line class="cls-3" x1="280.89" x2="273.52" y1="267.32" y2="248.12"/><path class="cls-3" d="M288.12,265.33l-7.37-19.2c-1.45-3.78-5-6.39-9.23-5.24-3.61,1-6.7,5.42-5.24,9.23l7.37,19.2c1.45,3.78,5,6.39,9.23,5.24,3.61-1,6.7-5.42,5.24-9.23Z"/><line class="cls-3" x1="221.44" x2="214.06" y1="310.2" y2="291"/><path class="cls-3" d="M228.67,308.21,221.29,289c-1.45-3.78-5-6.39-9.23-5.24-3.61,1-6.7,5.42-5.24,9.23l7.37,19.2c1.45,3.78,5,6.39,9.23,5.24,3.61-1,6.7-5.42,5.24-9.23Z"/><line class="cls-3" x1="259.4" x2="252.02" y1="310.2" y2="291"/><path class="cls-3" d="M266.63,308.21,259.26,289c-1.45-3.78-5-6.39-9.23-5.24-3.61,1-6.7,5.42-5.24,9.23l7.37,19.2c1.45,3.78,5,6.39,9.23,5.24,3.61-1,6.7-5.42,5.24-9.23Z"/><line class="cls-3" x1="297.36" x2="289.98" y1="310.2" y2="291"/><path class="cls-3" d="M304.59,308.21,297.22,289c-1.45-3.78-5-6.39-9.23-5.24-3.61,1-6.7,5.42-5.24,9.23l7.37,19.2c1.45,3.78,5,6.39,9.23,5.24,3.61-1,6.7-5.42,5.24-9.23Z"/><line class="cls-3" x1="237.9" x2="230.53" y1="353.08" y2="333.88"/><path class="cls-3" d="M245.14,351.09l-7.37-19.2c-1.45-3.78-5-6.39-9.23-5.24-3.61,1-6.7,5.42-5.24,9.23l7.37,19.2c1.45,3.78,5,6.39,9.23,5.24,3.61-1,6.7-5.42,5.24-9.23Z"/><line class="cls-3" x1="275.86" x2="268.49" y1="353.08" y2="333.88"/><path class="cls-3" d="M283.1,351.09l-7.37-19.2c-1.45-3.78-5-6.39-9.23-5.24-3.61,1-6.7,5.42-5.24,9.23l7.37,19.2c1.45,3.78,5,6.39,9.23,5.24,3.61-1,6.7-5.42,5.24-9.23Z"/><line class="cls-3" x1="313.83" x2="306.45" y1="353.08" y2="333.88"/><path class="cls-3" d="M321.06,351.09l-7.37-19.2c-1.45-3.78-5-6.39-9.23-5.24-3.61,1-6.7,5.42-5.24,9.23l7.37,19.2c1.45,3.78,5,6.39,9.23,5.24,3.61-1,6.7-5.42,5.24-9.23Z"/></g></svg>