<?xml version="1.0" ?><svg viewBox="0 0 500 500" xmlns="http://www.w3.org/2000/svg"><defs><style>.cls-1{fill:#fff;}.cls-2{fill:#f8b62d;}.cls-3{fill:#231815;}</style></defs><title/><g data-name="图层 1" id="图层_1"><path class="cls-1" d="M414.21,317.72c1.12,20.53-11,40.15-30.35,47.57-8.74,3.35-17.5,3.18-26.61,3.18H232.91c-5.9,0-11.81.05-17.71,0a58.92,58.92,0,0,1-53.79-83,58,58,0,0,1,6.5-11.18c.84-1.13,1.71-2.22,2.63-3.27C186,253,211,246.53,233.7,253.55c3.6,1.11,7.14-.8,9.12-3.72,15.77-23.19,44.6-35.68,72.31-30.26A72,72,0,0,1,330,224.21c.94.41,1.86.83,2.77,1.27,1.06.52,2.09,1,3.11,1.6a72.2,72.2,0,0,1,34,41,6.86,6.86,0,0,0,5.72,5.86C396.52,278.51,413,295.94,414.21,317.72Z"/><path class="cls-2" d="M236.74,239.68A82.26,82.26,0,0,1,316,209.2a76.12,76.12,0,0,1,10.36,2.59A82.65,82.65,0,0,0,261.4,143.7c-33.28-6.74-68.23,8.91-85.76,37.86a83,83,0,0,0-4.39,76.63A71.06,71.06,0,0,1,236.74,239.68Z"/><path class="cls-3" d="M171.25,258.18a83,83,0,0,1,4.39-76.63c17.54-28.95,52.48-44.6,85.76-37.86a82.65,82.65,0,0,1,64.92,68.08A78.22,78.22,0,0,1,342.15,219a98,98,0,0,0-63.86-86.09c-37.69-13.82-81.9-1.62-107.27,29.43-25,30.58-29.25,74.26-10,108.75A67.67,67.67,0,0,1,171.25,258.18Z"/><path class="cls-3" d="M238.07,65.45V99.1c0,9.65,15,9.67,15,0V65.45C253.07,55.79,238.07,55.78,238.07,65.45Zm7.5,33.65v0Z"/><path class="cls-3" d="M189.61,112,172.79,82.9c-4.83-8.36-17.79-.81-13,7.57l16.83,29.15C181.49,128,194.46,120.42,189.61,112Zm-6.48,3.79L166.31,86.68Z"/><path class="cls-3" d="M141.22,155.05l-29.15-16.83c-8.37-4.84-15.94,8.12-7.57,13L133.65,168C142,172.84,149.59,159.88,141.22,155.05ZM108.29,144.7l29.15,16.83Z"/><path class="cls-3" d="M120.71,216.45H87.06c-9.65,0-9.67,15,0,15h33.65C130.36,231.45,130.38,216.45,120.71,216.45Zm0,7.5h0Z"/><path class="cls-3" d="M133.65,279.91l-29.15,16.83c-8.36,4.83-.81,17.79,7.57,13l29.15-16.83C149.58,288,142,275.07,133.65,279.91Zm-25.36,23.3,29.15-16.83Z"/><path class="cls-3" d="M370.42,231.45h33.65c9.65,0,9.67-15,0-15H370.42C360.77,216.45,360.75,231.45,370.42,231.45Zm0-7.5h0Z"/><path class="cls-3" d="M379.06,138.22l-29.15,16.83c-8.36,4.83-.81,17.79,7.57,13l29.15-16.83C395,146.35,387.44,133.38,379.06,138.22Zm-25.36,23.3,29.15-16.83Z"/><path class="cls-3" d="M318.35,82.9,301.52,112c-4.84,8.38,8.12,15.94,13,7.57L331.3,90.47C336.13,82.09,323.18,74.53,318.35,82.9ZM308,115.83l16.83-29.15Z"/><path class="cls-3" d="M241.72,241c-1.65-.51-3.31-.94-5-1.32q-1.82,2.31-3.49,4.77Z"/><path class="cls-3" d="M220.54,245.21a62.16,62.16,0,0,1,19.18,3,73.75,73.75,0,0,1,87.48-28.16,82.08,82.08,0,0,0-.89-8.28A76.12,76.12,0,0,0,316,209.2a82.26,82.26,0,0,0-79.21,30.48c1.67.38,3.33.81,5,1.32l-8.47,3.45q1.67-2.46,3.49-4.77a71.06,71.06,0,0,0-65.49,18.51,78.63,78.63,0,0,0,3.61,7A62.05,62.05,0,0,1,220.54,245.21Z"/><path class="cls-3" d="M158.31,307.44a61.94,61.94,0,0,1,7.23-29.12c-1-1.44-1.95-2.9-2.86-4.4-.57-.94-1.12-1.9-1.65-2.86q-.81,1.33-1.57,2.71c-15.16,27.65-9.62,63.37,13.66,84.79a70.91,70.91,0,0,0,47.42,18.61c4.86.05,7.27-3.72,7.24-7.5h-7.24A62.23,62.23,0,0,1,158.31,307.44Z"/><path class="cls-3" d="M377.25,260.93c.54,1.41,1,2.84,1.51,4.28L373.53,260c1.26.27,2.5.6,3.73,1a83.67,83.67,0,0,0-35.1-42c.1,1.65.17,3.31.18,5,0,1.3-.05,2.6-.12,3.89a73.86,73.86,0,0,1,29.32,39.37,51.75,51.75,0,0,1-10.34,102.46H354c0,3.78,2.36,7.56,7.24,7.5A59.9,59.9,0,0,0,420,324.83C423.52,296.08,404.68,268.81,377.25,260.93Z"/><path class="cls-3" d="M378.77,265.22c-.46-1.45-1-2.87-1.51-4.28-1.23-.35-2.47-.68-3.73-1Z"/><path class="cls-3" d="M327.21,220.07l1,.38c3.17-6,14.22-4.79,14.15,3.5,0-1.67-.08-3.33-.18-5a78.22,78.22,0,0,0-15.84-7.19A82.08,82.08,0,0,1,327.21,220.07Z"/><path class="cls-3" d="M328.18,220.45a73.45,73.45,0,0,1,13.39,7,7.44,7.44,0,0,0,.77-3.46C342.4,215.66,331.35,214.49,328.18,220.45Z"/><path class="cls-3" d="M342.22,227.84c.06-1.29.11-2.59.12-3.89a7.44,7.44,0,0,1-.77,3.46Z"/><path class="cls-3" d="M165.54,278.33a62.36,62.36,0,0,1,9.32-13.13,78.63,78.63,0,0,1-3.61-7A67.67,67.67,0,0,0,161,271.07c.54,1,1.08,1.91,1.65,2.86C163.59,275.43,164.56,276.89,165.54,278.33Z"/><path class="cls-3" d="M220.54,362.17c-24.5-.27-46.36-16.6-52.84-40.4a54.61,54.61,0,0,1,3-36.61q-2.71-3.29-5.14-6.84a62.23,62.23,0,0,0,55,91.35h7.24C227.75,366,225.34,362.23,220.54,362.17Z"/><path class="cls-3" d="M412.94,317.93a51.77,51.77,0,0,0-41.41-50.71,73.86,73.86,0,0,0-29.32-39.37q-.21,4.42-.82,8.77A66.85,66.85,0,0,1,364.3,269.2a7.54,7.54,0,0,0,5.24,5.24c22.53,4.89,38.5,25.75,35.61,49-2.74,22.09-22,38.41-44,38.7-4.78.06-7.2,3.78-7.24,7.5h7.24A51.75,51.75,0,0,0,412.94,317.93Z"/><path class="cls-3" d="M193.3,260c13.58-7.83,29.54-9.09,44.43-4.49,3.34,1,6.63-.74,8.47-3.45,14.65-21.54,41.42-33.14,67.15-28.1a66.9,66.9,0,0,1,13.82,4.31c.09-1.42.15-2.84.16-4.27s-.06-2.6-.13-3.88a73.75,73.75,0,0,0-87.48,28.16,62.23,62.23,0,0,0-64.87,17,77.26,77.26,0,0,0,4.29,6.55A54.17,54.17,0,0,1,193.3,260Z"/><path class="cls-3" d="M328.18,220.45l-1-.38c.07,1.29.12,2.58.13,3.88A7.48,7.48,0,0,1,328.18,220.45Z"/><path class="cls-3" d="M174.86,265.2a62.36,62.36,0,0,0-9.32,13.13q2.43,3.55,5.14,6.84a55.65,55.65,0,0,1,8.47-13.42A77.26,77.26,0,0,1,174.86,265.2Z"/><path class="cls-3" d="M329.75,229.41q1.46.71,2.88,1.48c3.34.91,7.3-.25,8.93-3.48a73.45,73.45,0,0,0-13.39-7,7.48,7.48,0,0,0-.85,3.5A6.94,6.94,0,0,0,329.75,229.41Z"/><path class="cls-3" d="M327.33,224c0,1.43-.07,2.85-.16,4.27q1.3.57,2.57,1.18A6.94,6.94,0,0,1,327.33,224Z"/><path class="cls-3" d="M332.63,230.89a67.18,67.18,0,0,1,8.76,5.72q.61-4.34.82-8.77l-.65-.43C339.93,230.65,336,231.8,332.63,230.89Z"/><path class="cls-3" d="M246.71,369.67h-7.24c0,3.75,2.41,7.5,7.24,7.5H336c4.83,0,7.24-3.75,7.25-7.5H246.71Z"/><path class="cls-3" d="M336,362.17H246.71c-4.83,0-7.24,3.75-7.24,7.5H343.22C343.22,365.92,340.81,362.17,336,362.17Z"/><path class="cls-3" d="M370.73,329.24c4.64-12.68-.36-27.14-11.45-34.65-12.35-8.37-29.43-5.69-39,5.53a7.46,7.46,0,0,0-1.34,7.84l6.64-2.54a22.14,22.14,0,1,1,17.3,36H231.45l19.63-7.5H231.45c-9.65,0-9.67,15,0,15h105.7c2.36,0,4.74.1,7.09,0A30,30,0,0,0,370.73,329.24Z"/><path class="cls-3" d="M342.84,341.38a22.14,22.14,0,1,0-17.3-36L318.89,308c1.85,4.65,7.82,7.59,11.95,2.76,6.16-7.19,17.15-8.58,23.48-.62a14.8,14.8,0,0,1-3.71,21.55c-5.52,3.49-14,2.22-20.26,2.22H251.07l-19.62,7.5Z"/><path class="cls-3" d="M334.3,393.77c-6.71-3.72-13.88-3.31-21.21-3.31H264.45c-9.65,0-9.67,15,0,15h10.83L264.45,398h57.2a18.29,18.29,0,1,1-14.3,29.71l-5.87-4.06a7.53,7.53,0,0,0,.56,9.37,26,26,0,0,0,40.1-1.16C351.43,419.65,347.78,401.25,334.3,393.77Z"/><path class="cls-3" d="M321.66,434.55a18.29,18.29,0,1,0,0-36.59h-57.2l10.83,7.5h36.29c5.72,0,13.28-1.27,17.72,3.16a10.85,10.85,0,0,1,0,15.27c-5.06,5.06-12.28,3.5-16.63-1.52-3.67-4.24-8.76-2.43-11.17,1.24l5.87,4.06A18.26,18.26,0,0,0,321.66,434.55Z"/></g></svg>