<?xml version="1.0" ?><svg viewBox="0 0 500 500" xmlns="http://www.w3.org/2000/svg"><defs><style>.cls-1{font-size:161.72px;stroke:#231815;stroke-miterlimit:10;font-family:DINAlternate-Bold, DIN Alternate;font-weight:700;}.cls-1,.cls-4{fill:#fff;}.cls-2{letter-spacing:-0.02em;}.cls-3{letter-spacing:-0.07em;}.cls-5{fill:#231815;}.cls-6{fill:#f46274;}</style></defs><title/><g data-name="图层 1" id="图层_1"><text class="cls-1" transform="translate(-3.4 -30.77)"><tspan class="cls-2"/><tspan class="cls-3" x="98.94" y="0"/><tspan x="185.56" y="0"/></text><path class="cls-4" d="M265.05,310.78,140.19,185.91a30.05,30.05,0,0,1,0-42.5h0a30.05,30.05,0,0,1,42.5,0L307.56,268.28a56.59,56.59,0,1,1-42.5,42.5Z"/><path class="cls-5" d="M270.36,305.48l-75.42-75.42-42.12-42.12c-2.44-2.44-4.93-4.83-7.31-7.31-11-11.5-7.41-31.32,7.92-37.06,16.64-6.23,27.62,8.8,37.88,19.06l46.76,46.76,48.14,48.14,13.62,13.62c.79.79,1.54,1.68,2.39,2.39,3.3,2.77,6.36,2,10.28,1.39a48.84,48.84,0,0,1,14.35-.18c18,2.45,33.94,15.29,39.71,32.6,5.43,16.28,2.37,35.08-9.1,48.11-11.15,12.66-28.18,19.27-45,16.51-17.57-2.9-32.92-15.39-38.65-32.38a50.33,50.33,0,0,1-1.54-26.79c2-9.41-12.44-13.44-14.46-4-4.82,22.49,1.9,46.35,19.16,62A65,65,0,0,0,333.93,386c20.81-4.39,38.13-19.62,45.9-39.27,7.69-19.44,5.12-42.79-7-59.89-15.29-21.55-41.54-31.34-67.25-25.82l7.3,1.93L259.59,209.7,191.49,141.6a74,74,0,0,0-7.52-6.92,37.86,37.86,0,0,0-40.75-2.87c-22.43,12.29-24.95,42.58-7.59,60.15,20.09,20.33,40.42,40.42,60.63,60.63,20.77,20.77,41.17,42,62.34,62.34.39.38.77.77,1.15,1.15C266.58,322.92,277.19,312.31,270.36,305.48Z"/><path class="cls-6" d="M291.14,305.29,156,170.13a7.73,7.73,0,0,1,0-10.93h0a7.73,7.73,0,0,1,10.93,0L302.07,294.36a34.26,34.26,0,1,1-10.93,10.93Z"/></g></svg>