<?xml version="1.0" ?><svg viewBox="0 0 500 500" xmlns="http://www.w3.org/2000/svg"><defs><style>.cls-1{fill:#fff;}.cls-2{fill:#231815;}.cls-3{fill:#2ea7e0;}</style></defs><title/><g data-name="图层 1" id="图层_1"><path class="cls-1" d="M325.57,311.22a51.75,51.75,0,0,0,10.34-102.46,73.71,73.71,0,0,0-131.81-19,62.24,62.24,0,1,0-19.18,121.44"/><path class="cls-2" d="M325.57,318.72a59.9,59.9,0,0,0,58.79-52.34c3.7-30-17-58.47-46.46-64.86l5.24,5.24c-9.07-28.39-33.17-50.81-62.81-56A82.4,82.4,0,0,0,197.62,186l8.47-3.45c-31.4-9.69-66.35,3.77-82.26,32.77-15.16,27.65-9.62,63.37,13.66,84.79a70.91,70.91,0,0,0,47.42,18.61c9.66.11,9.66-14.89,0-15-24.5-.27-46.36-16.6-52.84-40.4a55.22,55.22,0,0,1,25.59-61.82c13.58-7.83,29.54-9.09,44.43-4.49,3.34,1,6.63-.74,8.47-3.45,14.64-21.54,41.42-33.14,67.15-28.1a67.05,67.05,0,0,1,50.95,45.29,7.54,7.54,0,0,0,5.24,5.24c22.53,4.89,38.5,25.75,35.61,49-2.74,22.09-22,38.41-44,38.7-9.64.13-9.67,15.13,0,15Z"/><line class="cls-3" x1="212.97" x2="205.6" y1="300.26" y2="281.06"/><path class="cls-3" d="M220.2,298.27l-7.37-19.2c-1.45-3.78-5-6.39-9.23-5.24-3.61,1-6.7,5.42-5.24,9.23l7.37,19.2c1.45,3.78,5,6.39,9.23,5.24,3.61-1,6.7-5.42,5.24-9.23Z"/><line class="cls-3" x1="229.44" x2="222.06" y1="343.14" y2="323.94"/><path class="cls-3" d="M236.67,341.15l-7.37-19.2c-1.45-3.78-5-6.39-9.23-5.24-3.61,1-6.7,5.42-5.24,9.23l7.37,19.2c1.45,3.78,5,6.39,9.23,5.24,3.61-1,6.7-5.42,5.24-9.23Z"/><line class="cls-3" x1="250.93" x2="243.56" y1="300.26" y2="281.06"/><path class="cls-3" d="M258.16,298.27l-7.37-19.2c-1.45-3.78-5-6.39-9.23-5.24-3.61,1-6.7,5.42-5.24,9.23l7.37,19.2c1.45,3.78,5,6.39,9.23,5.24,3.61-1,6.7-5.42,5.24-9.23Z"/><line class="cls-3" x1="267.4" x2="260.02" y1="343.14" y2="323.94"/><path class="cls-3" d="M274.63,341.15l-7.37-19.2c-1.45-3.78-5-6.39-9.23-5.24-3.61,1-6.7,5.42-5.24,9.23l7.37,19.2c1.45,3.78,5,6.39,9.23,5.24,3.61-1,6.7-5.42,5.24-9.23Z"/><line class="cls-3" x1="288.89" x2="281.52" y1="300.26" y2="281.06"/><path class="cls-3" d="M296.12,298.27l-7.37-19.2c-1.45-3.78-5-6.39-9.23-5.24-3.61,1-6.7,5.42-5.24,9.23l7.37,19.2c1.45,3.78,5,6.39,9.23,5.24,3.61-1,6.7-5.42,5.24-9.23Z"/><line class="cls-3" x1="305.36" x2="297.99" y1="343.14" y2="323.94"/><path class="cls-3" d="M312.59,341.15l-7.37-19.2c-1.45-3.78-5-6.39-9.23-5.24-3.61,1-6.7,5.42-5.24,9.23l7.37,19.2c1.45,3.78,5,6.39,9.23,5.24,3.61-1,6.7-5.42,5.24-9.23Z"/></g></svg>