<?xml version="1.0" ?><svg viewBox="0 0 500 500" xmlns="http://www.w3.org/2000/svg"><defs><style>.cls-1{fill:#f4ec90;}.cls-2{fill:#fff;}.cls-3{fill:#231815;}</style></defs><title/><g data-name="图层 1" id="图层_1"><path class="cls-1" d="M335.89,296.85A121.24,121.24,0,0,0,353.45,275a132.93,132.93,0,0,1-125.84-34.14,132.94,132.94,0,0,1-34.14-125.82,116.93,116.93,0,0,0-50.72,68c-11.13,41.06,2,84.9,31.17,113.77h162Z"/><path class="cls-2" d="M307.34,139.27c-.62,1.22-1.28,2.42-2,3.58A53.73,53.73,0,0,1,290.71,158a44.56,44.56,0,0,1-5.27,3.16A53.28,53.28,0,0,1,296.56,169a50.34,50.34,0,0,1,10.71,14l.59-1.07a51.17,51.17,0,0,1,13.39-15.6,51.91,51.91,0,0,1,8-5.19A52.5,52.5,0,0,1,307.34,139.27Z"/><path class="cls-3" d="M338.29,157.43a10.47,10.47,0,0,0-2,.68c-.64.23-1.27.48-1.9.73a6.79,6.79,0,0,0,5.3,6.51C336.34,164.45,343.88,156.76,338.29,157.43Z"/><path class="cls-3" d="M274.94,157v4.15q-2,5.08.69,4c1.37,0,3.4-1.11,4.7-1.63q2.61-1,5.1-2.31a54.13,54.13,0,0,0-7.76-3.33A10.82,10.82,0,0,0,274.94,157Z"/><path class="cls-3" d="M311.46,128.83h-8.31l.4,1.38a15.23,15.23,0,0,0,1.18,3.36,53.92,53.92,0,0,0,2.61,5.71,61.94,61.94,0,0,0,2.55-5.71C310.38,132.3,311.47,130.24,311.46,128.83Z"/><path class="cls-3" d="M334.36,158.84c-1.07.43-2.13.87-3.18,1.35-.66.3-1.29.63-1.92,1a54.13,54.13,0,0,0,10.4,4.2A6.79,6.79,0,0,1,334.36,158.84Z"/><path class="cls-3" d="M307.3,193.55c4.86,0,4.53,1,3.54-2.06a58.81,58.81,0,0,0-2.25-5.77c-.41-.92-.85-1.82-1.31-2.72-1.54,2.8-3.32,6.16-3.73,9.17C303.2,194.7,301.4,193.55,307.3,193.55Z"/><path class="cls-3" d="M334.36,158.84c.63-.25,1.26-.5,1.9-.73a10.47,10.47,0,0,1,2-.68c5.59-.67-2,7,1.38,7.91,9.3,2.66,13.27-11.81,4-14.46C337.89,149.33,334.17,154.25,334.36,158.84Z"/><path class="cls-3" d="M339.67,165.34a54.13,54.13,0,0,1-10.4-4.2,51.91,51.91,0,0,0-8,5.19,51.17,51.17,0,0,0-13.39,15.6l-.59,1.07c.46.9.91,1.8,1.31,2.72a58.81,58.81,0,0,1,2.25,5.77c1,3.07,1.32,2.06-3.54,2.06-5.9,0-4.1,1.15-3.76-1.38.41-3,2.19-6.37,3.73-9.17a50.34,50.34,0,0,0-10.71-14,53.28,53.28,0,0,0-11.13-7.79q-2.49,1.28-5.1,2.31c-1.3.52-3.33,1.67-4.7,1.63q-2.69,1.13-.69-4V157a10.82,10.82,0,0,1,2.74.83,54.13,54.13,0,0,1,7.76,3.33,44.56,44.56,0,0,0,5.27-3.16,53.73,53.73,0,0,0,14.6-15.19c.74-1.16,1.4-2.36,2-3.58a53.92,53.92,0,0,1-2.61-5.71,15.23,15.23,0,0,1-1.18-3.36l-.4-1.38h8.31c0,1.41-1.08,3.47-1.57,4.73a61.94,61.94,0,0,1-2.55,5.71,52.5,52.5,0,0,0,21.93,21.87c.63-.33,1.27-.66,1.92-1,1-.48,2.11-.92,3.18-1.35-.19-4.58,3.52-9.51,9.29-8a37.08,37.08,0,0,1-21-15c-4.32-6.59-5-18.48-14.87-18.87-10.58-.41-11.3,12.07-15.76,18.87a37.24,37.24,0,0,1-19.66,14.61c-4.12,1.38-7.58,3.31-8.83,7.84a10.73,10.73,0,0,0,5.19,12.21c3.45,1.9,7.43,2.51,10.91,4.5a37.85,37.85,0,0,1,10.21,8.53,36.14,36.14,0,0,1,5.86,9.89c1.78,4.51,2.42,8.91,7.44,11a10.65,10.65,0,0,0,12.16-2.72c2.78-3.21,3.23-7.95,5.2-11.66,4.73-8.91,12.35-14.94,21.79-18.22,4.62-1.6,8.37-4,9.08-9.27a10.71,10.71,0,0,0-7.7-11.75C352.93,153.54,349,168,339.67,165.34Z"/><path class="cls-3" d="M227.61,240.89A132.93,132.93,0,0,0,353.45,275a123.43,123.43,0,0,0,8.88-16.82l8.47,11A127.8,127.8,0,0,1,353.45,275a121.24,121.24,0,0,1-17.56,21.82h20.34a130,130,0,0,0,19.06-31.08c2.2-5.09-1.65-13.86-8.47-11-44,18.36-94.59,9.12-128.6-24.47C245,237.16,234.4,247.77,227.61,240.89Z"/><path class="cls-3" d="M142.75,183.08a116.93,116.93,0,0,1,50.72-68,127.9,127.9,0,0,1,5.81-17.37l11,8.47a122.38,122.38,0,0,0-16.83,8.9,132.94,132.94,0,0,0,34.14,125.82c-6.88-6.8,3.73-17.4,10.61-10.61-33.59-34-42.83-84.64-24.47-128.6,2.86-6.84-5.89-10.69-11-8.47a131.16,131.16,0,0,0-70.34,167.31,134.13,134.13,0,0,0,21.23,36.33h20.31C144.75,268,131.61,224.14,142.75,183.08Z"/><path class="cls-3" d="M227.61,240.89c6.79,6.88,17.4-3.73,10.61-10.61S220.72,234.09,227.61,240.89Z"/><path class="cls-3" d="M199.28,97.69a127.9,127.9,0,0,0-5.81,17.37,122.38,122.38,0,0,1,16.83-8.9Z"/><path class="cls-3" d="M362.33,258.2A123.43,123.43,0,0,1,353.45,275a127.8,127.8,0,0,0,17.35-5.81Z"/><path class="cls-3" d="M335.89,296.85h-162q4,3.94,8.36,7.5h145.2Q331.86,300.8,335.89,296.85Z"/><path class="cls-3" d="M92.68,304.35h67.55q-3.45-3.62-6.62-7.5H92.68c-9.65,0-9.67,15,0,15H127.3v-7.5Z"/><path class="cls-3" d="M407.32,296.85H356.23q-3.2,3.88-6.69,7.5H372.7v7.5h34.62C417,311.85,417,296.85,407.32,296.85Z"/><path class="cls-3" d="M327.48,304.35h22.06q3.48-3.62,6.69-7.5H335.89Q331.87,300.8,327.48,304.35Z"/><path class="cls-3" d="M182.28,304.35q-4.37-3.55-8.36-7.5H153.61q3.17,3.87,6.62,7.5Z"/><path class="cls-3" d="M198.85,311.85H317.09a114.54,114.54,0,0,0,10.39-7.5H182.28a112.32,112.32,0,0,0,10.4,7.5Z"/><path class="cls-3" d="M349.54,304.35q-3.76,3.91-7.82,7.5h31v-7.5Z"/><path class="cls-3" d="M160.23,304.35H127.3v7.5H168Q164,308.26,160.23,304.35Z"/><path class="cls-3" d="M317.09,311.85h24.63q4.06-3.59,7.82-7.5H327.48A114.54,114.54,0,0,1,317.09,311.85Z"/><path class="cls-3" d="M182.28,304.35h-22q3.72,3.91,7.77,7.5h24.68A112.32,112.32,0,0,1,182.28,304.35Z"/><path class="cls-3" d="M375.15,344.45H372.7V352h2.45c9.65,0,9.67-15,0-15H372.7v7.5Z"/><path class="cls-3" d="M124.85,344.45h2.45V337h-2.45c-9.65,0-9.67,15,0,15h2.45v-7.5Z"/><path class="cls-3" d="M202.89,349.76l2.3,2.2h3Z"/><path class="cls-3" d="M208.2,344.45h11.25q-2.88-2.62-5.81-5.16c-5-4.36-15.88-2.34-22-2.34H127.3v7.5Z"/><path class="cls-3" d="M300.23,336.74q-5.32,2-10.83,3.47-2.76.75-5.54,1.37c-.76.76-1.49,1.52-2.23,2.23l-.67.64H372.7V337H313.41C309.06,337,304.64,336.78,300.23,336.74Z"/><path class="cls-3" d="M291.8,352h3l2.3-2.2Z"/><path class="cls-3" d="M291.8,344.45l-41.8,40-41.8-40H127.3V352h77.89l-2.3-2.2,5.3,2.2h-3l39.51,37.81a7.65,7.65,0,0,0,10.61,0L294.81,352h-3l5.3-2.2-2.3,2.2H372.7v-7.5Z"/><path class="cls-3" d="M291.8,337c-3.24.22-5.68,2.38-7.94,4.63q2.78-.62,5.54-1.37,5.5-1.49,10.83-3.47C297.41,336.72,294.59,336.76,291.8,337Z"/><path class="cls-3" d="M250,374.05q2.63,2.57,5.27,5.1H244.7l5.33-5.1c-10.13-9.89-20.11-20.08-30.58-29.6H208.2l41.8,40,41.8-40H281L268.47,356.4Z"/><path class="cls-3" d="M255.3,379.15q-2.65-2.53-5.27-5.1l-5.33,5.1Z"/><path class="cls-3" d="M291.8,377.06c-9.65,0-9.67,15,0,15h54.7c9.65,0,9.67-15,0-15Zm0,7.5h0Z"/><path class="cls-3" d="M208.2,377.06H153.5c-9.65,0-9.67,15,0,15h54.7C217.85,392.06,217.86,377.06,208.2,377.06Zm-54.7,7.5h0Z"/></g></svg>