<?xml version="1.0" ?><svg viewBox="0 0 500 500" xmlns="http://www.w3.org/2000/svg"><defs><style>.cls-1{fill:#dcdddd;}.cls-2{fill:#231815;}.cls-3{fill:#fff;}</style></defs><title/><g data-name="图层 1" id="图层_1"><path class="cls-1" d="M325.57,290.74a51.75,51.75,0,0,0,10.34-102.46,73.71,73.71,0,0,0-131.81-19,62.24,62.24,0,1,0-19.18,121.44"/><path class="cls-2" d="M325.57,298.24a59.9,59.9,0,0,0,58.79-52.34c3.7-30-17-58.47-46.46-64.86l5.24,5.24c-9.07-28.39-33.17-50.81-62.81-56a82.4,82.4,0,0,0-82.71,35.25l8.47-3.45c-31.4-9.69-66.35,3.77-82.26,32.77-15.16,27.65-9.62,63.37,13.66,84.79a70.91,70.91,0,0,0,47.42,18.61c9.66.11,9.66-14.89,0-15-24.5-.27-46.36-16.6-52.84-40.4A55.22,55.22,0,0,1,157.67,181c13.58-7.83,29.54-9.09,44.43-4.49,3.34,1,6.63-.74,8.47-3.45,14.64-21.54,41.42-33.14,67.15-28.1a67.05,67.05,0,0,1,50.95,45.29,7.54,7.54,0,0,0,5.24,5.24c22.53,4.89,38.5,25.75,35.61,49-2.74,22.09-22,38.41-44,38.7-9.64.13-9.67,15.13,0,15Z"/><circle class="cls-3" cx="226.24" cy="290.74" r="17.62"/><path class="cls-2" d="M236.36,290.74c-.5,13.09-20.24,13-20.24,0s19.73-13.1,20.24,0c.37,9.62,15.37,9.67,15,0-.53-13.67-11.07-25.07-25.12-25.12a25.12,25.12,0,1,0,0,50.24c14,0,24.59-11.49,25.12-25.12C251.73,281.09,236.73,281.1,236.36,290.74Z"/><circle class="cls-3" cx="284.86" cy="290.74" r="17.62"/><path class="cls-2" d="M295,290.74c-.5,13.09-20.24,13-20.24,0s19.73-13.1,20.24,0c.37,9.62,15.37,9.67,15,0-.53-13.67-11.07-25.07-25.12-25.12a25.12,25.12,0,1,0,0,50.24c14,0,24.59-11.49,25.12-25.12C310.35,281.09,295.34,281.1,295,290.74Z"/><circle class="cls-3" cx="196.94" cy="346.01" r="17.62"/><path class="cls-2" d="M207.05,346c-.5,13.09-20.24,13-20.24,0s19.73-13.1,20.24,0c.37,9.62,15.37,9.67,15,0-.53-13.67-11.07-25.07-25.12-25.12a25.12,25.12,0,0,0,0,50.24c14,0,24.59-11.49,25.12-25.12C222.43,336.35,207.42,336.37,207.05,346Z"/><circle class="cls-3" cx="255.55" cy="346.01" r="17.62"/><path class="cls-2" d="M265.67,346c-.5,13.09-20.24,13-20.24,0s19.73-13.1,20.24,0c.37,9.62,15.37,9.67,15,0-.53-13.67-11.07-25.07-25.12-25.12a25.12,25.12,0,0,0,0,50.24c14,0,24.59-11.49,25.12-25.12C281,336.35,266,336.37,265.67,346Z"/><circle class="cls-3" cx="314.16" cy="346.01" r="17.62"/><path class="cls-2" d="M324.28,346c-.5,13.09-20.24,13-20.24,0s19.73-13.1,20.24,0c.37,9.62,15.37,9.67,15,0-.53-13.67-11.07-25.07-25.12-25.12a25.12,25.12,0,0,0,0,50.24c14,0,24.59-11.49,25.12-25.12C339.65,336.35,324.65,336.37,324.28,346Z"/></g></svg>