<?xml version="1.0" ?><svg viewBox="0 0 500 500" xmlns="http://www.w3.org/2000/svg"><defs><style>.cls-1{fill:#231815;}.cls-2{fill:#fff;}.cls-3{fill:#2ea7e0;}.cls-4{fill:#f8b62d;}</style></defs><title/><g data-name="图层 1" id="图层_1"><path class="cls-1" d="M253.07,104.67V71c0-9.65-15-9.67-15,0v33.65C238.07,114.32,253.07,114.34,253.07,104.67ZM245.57,71v0Z"/><path class="cls-1" d="M176.66,125.19c4.83,8.36,17.79.81,13-7.57L172.79,88.47c-4.83-8.36-17.79-.81-13,7.57Zm6.48-3.79L166.31,92.25Z"/><path class="cls-1" d="M87.06,237h33.65c9.65,0,9.67-15,0-15H87.06C77.4,222,77.39,237,87.06,237Zm33.65-7.5h0Z"/><path class="cls-1" d="M314.47,125.19,331.3,96c4.84-8.37-8.12-15.94-13-7.57l-16.83,29.15C296.68,126,309.64,133.55,314.47,125.19Zm10.35-32.93L308,121.4Z"/><path class="cls-2" d="M336.08,375.24H318.72V367.9l3-1.73c.77.4,1.51.79,2.18,1.18l8.45,4.91a7.42,7.42,0,0,0,3.73,1.07Z"/><path class="cls-2" d="M250.05,372.26l8.44-4.91c.66-.38,1.41-.77,2.19-1.18l3.19,1.85v7.22H246.31v-1.91A7.38,7.38,0,0,0,250.05,372.26Z"/><path class="cls-2" d="M303.72,373.7v1.54H278.87V367.9l4.83-2.78,2.58-1.49,4.92-2.84.1-.06,4.92,2.84L298.7,365q2.5,1.45,5,2.9Z"/><path class="cls-2" d="M369.54,280c22.53,4.89,38.5,25.75,35.61,49-2.75,22.09-22,38.41-44,38.7-4.78.07-7.2,3.78-7.24,7.5H336.08v-1.91c6.57,0,10.91-9.92,3.84-14l-3.15-1.82,4.85-2.8c8.35-4.82.81-17.79-7.57-12.95l-4.78,2.75c0-1.19,0-2.39,0-3.59,0-9.65-15-9.67-15,0l0,9.77c0,.76,0,1.62-.07,2.52l-3,1.73-7-4.06c-1.58-.91-3.49-2.28-5.49-3.5v-3.13c.76-.48,1.49-.95,2.18-1.34l8.47-4.87c8.37-4.8.83-17.76-7.57-12.95l-3.08,1.77v-5.32a7,7,0,0,0-6.54-7.19,7.12,7.12,0,0,0-8.46,7.19v5.32l-3.09-1.77c-8.39-4.81-15.95,8.15-7.57,12.95l8.47,4.87c.69.39,1.42.86,2.19,1.34v3.28c-1.78,1.11-3.46,2.29-4.87,3.11L271.27,355l-3.1-1.8c0-.87-.07-1.73-.07-2.51l0-9.77c0-9.65-15-9.67-15,0,0,1.2,0,2.4,0,3.6l-4.77-2.76c-8.38-4.84-15.94,8.12-7.57,12.95l4.84,2.8-3.15,1.82c-7.06,4.11-2.74,14,3.84,14v1.91H227.78c0-3.72-2.44-7.44-7.24-7.5-24.5-.27-46.36-16.59-52.84-40.4a54.63,54.63,0,0,1,3-36.6,55.42,55.42,0,0,1,8.47-13.43,54.08,54.08,0,0,1,14.15-11.78c13.58-7.83,29.54-9.09,44.43-4.5,3.34,1,6.63-.73,8.47-3.44,14.64-21.54,41.42-33.14,67.15-28.1a67.43,67.43,0,0,1,13.82,4.3c.87.38,1.73.78,2.57,1.19s1.94,1,2.89,1.48a67.93,67.93,0,0,1,8.76,5.72,66.91,66.91,0,0,1,22.91,32.59A7.52,7.52,0,0,0,369.54,280Z"/><path class="cls-1" d="M404.07,222c9.67,0,9.65,15,0,15H370.42c-9.67,0-9.65-15,0-15Z"/><path class="cls-1" d="M342.21,233.41a73.85,73.85,0,0,1,29.32,39.37,51.75,51.75,0,0,1-10.34,102.46H354c0-3.72,2.46-7.43,7.24-7.5,22-.29,41.21-16.61,44-38.7,2.89-23.28-13.08-44.14-35.61-49a7.52,7.52,0,0,1-5.24-5.24,66.91,66.91,0,0,0-22.91-32.59C341.8,239.29,342.07,236.36,342.21,233.41Z"/><path class="cls-1" d="M379.05,143.79c8.38-4.84,15.93,8.13,7.57,13l-29.14,16.82c-8.39,4.84-15.93-8.12-7.57-12.95Z"/><path class="cls-1" d="M378.76,270.79l-5.24-5.24c1.27.27,2.5.6,3.73.95C377.79,267.92,378.3,269.34,378.76,270.79Z"/><path class="cls-1" d="M342.32,230.1c0-.19,0-.38,0-.58s0-.34,0-.51c0-1.49-.09-3-.17-4.46a83.66,83.66,0,0,1,35.1,41.95c-1.23-.35-2.46-.68-3.73-.95l5.24,5.24c-.46-1.45-1-2.87-1.51-4.29,27.43,7.88,46.27,35.15,42.73,63.9a59.89,59.89,0,0,1-58.79,52.34c-4.88.07-7.29-3.71-7.24-7.5h7.24a51.75,51.75,0,0,0,10.34-102.46,73.85,73.85,0,0,0-29.32-39.37C342.27,232.31,342.31,231.21,342.32,230.1Z"/><path class="cls-1" d="M341.56,233a7.32,7.32,0,0,0,.76-2.88c0,1.11-.05,2.21-.11,3.31Z"/><path class="cls-3" d="M334.05,341.73c8.38-4.84,15.92,8.13,7.57,12.95l-4.85,2.8,3.15,1.82c7.07,4.11,2.73,14-3.84,14a7.42,7.42,0,0,1-3.73-1.07l-8.45-4.91c-.67-.39-1.41-.78-2.18-1.18l-3,1.73v7.34h-15V367.9q-2.52-1.44-5-2.9l-2.48-1.43-4.92-2.84-.1.06-4.92,2.84-2.58,1.49-4.83,2.78v7.34h-15V368l-3.19-1.85c-.78.41-1.53.8-2.19,1.18l-8.44,4.91a7.38,7.38,0,0,1-3.74,1.07c-6.58,0-10.9-9.92-3.84-14l3.15-1.82-4.84-2.8c-8.37-4.83-.81-17.79,7.57-12.95l4.77,2.76c0-1.2,0-2.4,0-3.6,0-9.67,15-9.65,15,0l0,9.77c0,.78,0,1.64.07,2.51l3.1,1.8,7.56-4.36c1.41-.82,3.09-2,4.87-3.11v-3.28c-.77-.48-1.5-.95-2.19-1.34L273,338c-8.38-4.8-.82-17.76,7.57-12.95l3.09,1.77v-5.32a7.12,7.12,0,0,1,8.46-7.19,7,7,0,0,1,6.54,7.19v5.32l3.08-1.77c8.4-4.81,15.94,8.15,7.57,12.95l-8.47,4.87c-.69.39-1.42.86-2.18,1.34v3.13c2,1.22,3.91,2.59,5.49,3.5l7,4.06,3-1.73c0-.9.07-1.76.07-2.52l0-9.77c0-9.67,15-9.65,15,0,0,1.2,0,2.4,0,3.59Z"/><path class="cls-3" d="M341.42,395.46c8.37,4.83.8,17.79-7.57,13l-4.58-2.65c0,1.2,0,2.4,0,3.6,0,9.67-15,9.65-15,0l0-9.77c0-.78,0-1.64-.07-2.51l-3.1-1.8-7.36,4.25c-1.47.85-3.22,2.09-5.06,3.23V406c.76.48,1.5.95,2.18,1.34l8.47,4.87c8.38,4.8.82,17.76-7.57,12.95l-3.08-1.77V429c0,9.67-15,9.65-15,0v-5.55l-3.09,1.77c-8.39,4.81-15.94-8.15-7.57-12.95l8.47-4.87c.69-.39,1.42-.86,2.19-1.34v-3.36c-1.94-1.2-3.77-2.5-5.3-3.39l-7-4.05-3.19,1.84c0,.9-.08,1.75-.08,2.52l0,9.77c0,9.67-15,9.65-15,0,0-1.2,0-2.4,0-3.6l-4.57,2.65c-8.39,4.84-15.93-8.13-7.58-13l4.65-2.68L242.47,391c-7.07-4.11-2.73-14,3.84-14a7.45,7.45,0,0,1,3.74,1.07l8.44,4.91c.67.39,1.42.78,2.18,1.18l3.2-1.85v-7h15v7L283.7,385l2.68,1.54,4.82,2.79.1.06,4.82-2.79,2.58-1.49,4.92-2.84.1-.06v-7h15v7.12l3,1.73c.78-.41,1.53-.8,2.18-1.18l8.45-4.91a7.35,7.35,0,0,1,3.74-1.07c6.57,0,10.89,9.92,3.83,14l-3.15,1.82Z"/><path class="cls-1" d="M341.56,233c-1.63,3.23-5.6,4.39-8.93,3.48-1-.52-1.91-1-2.89-1.48a7,7,0,0,1-2.41-5.46,7.48,7.48,0,0,1,.84-3.5A73.57,73.57,0,0,1,341.56,233Z"/><path class="cls-1" d="M328.17,226c3.1-5.84,13.76-4.84,14.15,3,0,.17,0,.34,0,.51s0,.39,0,.58a7.32,7.32,0,0,1-.76,2.88A73.57,73.57,0,0,0,328.17,226Z"/><path class="cls-1" d="M332.63,236.46c3.33.91,7.3-.25,8.93-3.48l.65.43c-.14,2.95-.41,5.88-.82,8.77A67.93,67.93,0,0,0,332.63,236.46Z"/><path class="cls-1" d="M327.2,225.64a81.11,81.11,0,0,0-.89-8.29,78.41,78.41,0,0,1,15.84,7.2c.08,1.48.15,3,.17,4.46-.39-7.83-11.05-8.83-14.15-3Z"/><path class="cls-1" d="M328.17,226a7.48,7.48,0,0,0-.84,3.5c0-1.3-.06-2.59-.13-3.88Z"/><path class="cls-1" d="M327.33,229.52a7,7,0,0,0,2.41,5.46c-.84-.41-1.7-.81-2.57-1.19C327.26,232.38,327.32,231,327.33,229.52Z"/><path class="cls-1" d="M301.11,220.88a73.53,73.53,0,0,1,26.09,4.76c.07,1.29.12,2.58.13,3.88s-.07,2.86-.16,4.27a67.43,67.43,0,0,0-13.82-4.3c-25.73-5-52.51,6.56-67.15,28.1-1.84,2.71-5.13,4.47-8.47,3.44-14.89-4.59-30.85-3.33-44.43,4.5a54.08,54.08,0,0,0-14.15,11.78,74.24,74.24,0,0,1-4.29-6.54,62.19,62.19,0,0,1,58-18.76,62.94,62.94,0,0,1,6.87,1.79A73.63,73.63,0,0,1,301.11,220.88Z"/><path class="cls-1" d="M236.74,245.25A82.28,82.28,0,0,1,316,214.76a77.68,77.68,0,0,1,10.36,2.59,81.11,81.11,0,0,1,.89,8.29,73.75,73.75,0,0,0-87.48,28.16,62.94,62.94,0,0,0-6.87-1.79l.4-2,8.47-3.45C240.07,246.06,238.41,245.63,236.74,245.25Z"/><path class="cls-4" d="M175.63,187.13c17.54-28.95,52.48-44.6,85.76-37.86a82.65,82.65,0,0,1,64.92,68.08A77.68,77.68,0,0,0,316,214.76a82.28,82.28,0,0,0-79.21,30.49,71.07,71.07,0,0,0-65.5,18.5A83,83,0,0,1,175.63,187.13Z"/><path class="cls-1" d="M241.72,246.57,233.25,250c1.11-1.64,2.28-3.23,3.49-4.77C238.41,245.63,240.07,246.06,241.72,246.57Z"/><path class="cls-1" d="M171.24,263.75a71.07,71.07,0,0,1,65.5-18.5c-1.21,1.54-2.38,3.13-3.49,4.77l-.4,2a62.19,62.19,0,0,0-58,18.76A78.9,78.9,0,0,1,171.24,263.75Z"/><path class="cls-1" d="M158.31,313a62.23,62.23,0,0,0,62.23,62.23h7.24c0,3.78-2.38,7.56-7.24,7.5a70.88,70.88,0,0,1-47.42-18.61c-23.28-21.42-28.82-57.14-13.66-84.79.5-.92,1-1.82,1.57-2.7.53.95,1.08,1.91,1.65,2.85.91,1.51,1.87,3,2.86,4.41A61.89,61.89,0,0,0,158.31,313Z"/><path class="cls-1" d="M174.86,270.77a74.24,74.24,0,0,0,4.29,6.54,55.42,55.42,0,0,0-8.47,13.43c-1.81-2.19-3.52-4.48-5.14-6.84A61.51,61.51,0,0,1,174.86,270.77Z"/><path class="cls-1" d="M171.24,263.75A68.18,68.18,0,0,0,161,276.64c-19.27-34.5-15-78.17,10-108.76,25.37-31.05,69.58-43.24,107.27-29.42a97.94,97.94,0,0,1,63.86,86.09,78.41,78.41,0,0,0-15.84-7.2,82.65,82.65,0,0,0-64.92-68.08c-33.28-6.74-68.22,8.91-85.76,37.86A83,83,0,0,0,171.24,263.75Z"/><path class="cls-1" d="M161,276.64a68.18,68.18,0,0,1,10.21-12.89,78.9,78.9,0,0,0,3.62,7,61.51,61.51,0,0,0-9.32,13.13c-1-1.44-1.95-2.9-2.86-4.41C162.11,278.55,161.56,277.59,161,276.64Z"/><path class="cls-1" d="M227.78,375.24h-7.24a62.23,62.23,0,0,1-55-91.34c1.62,2.36,3.33,4.65,5.14,6.84a54.63,54.63,0,0,0-3,36.6c6.48,23.81,28.34,40.13,52.84,40.4C225.34,367.8,227.75,371.52,227.78,375.24Z"/><path class="cls-1" d="M141.22,160.62c8.37,4.83.8,17.79-7.57,12.95L104.5,156.75c-8.36-4.84-.8-17.79,7.57-13Z"/><path class="cls-1" d="M133.65,285.48c8.38-4.84,15.93,8.12,7.57,12.95l-29.15,16.82c-8.38,4.85-15.92-8.12-7.57-12.95Z"/></g></svg>