<?xml version="1.0" ?><svg viewBox="0 0 500 500" xmlns="http://www.w3.org/2000/svg"><defs><style>.cls-1{fill:#231815;}.cls-2{fill:#fff;}</style></defs><title/><g data-name="图层 1" id="图层_1"><path class="cls-1" d="M306.62,148.53c-.39-7.82-11-8.81-14.14-3l-1-.38c-.15-2.8-.46-5.56-.88-8.29a78.12,78.12,0,0,1,15.83,7.19C306.54,145.56,306.61,147,306.62,148.53Z"/><path class="cls-1" d="M291.63,149c0-.28,0-.56,0-.84a.12.12,0,0,1,.08,0A6.49,6.49,0,0,0,291.63,149Z"/><path class="cls-1" d="M329.28,244.34a22.14,22.14,0,0,1-22.14,22.14H195.75l19.63-7.5h79.27c6.26,0,14.74,1.26,20.26-2.23a14.79,14.79,0,0,0,3.72-21.55c-6.32-8-17.32-6.58-23.48.62-4.14,4.81-10.1,1.88-12-2.77l6.64-2.54a22.14,22.14,0,0,1,39.45,13.82Z"/><path class="cls-1" d="M204,173.33a61.87,61.87,0,0,0-6.9-1.81l.42-2q4.25-1.71,8.48-3.45l2,1.84C206.59,169.67,205.27,171.47,204,173.33Z"/><path class="cls-1" d="M292.48,145.55a73.43,73.43,0,0,1,13.39,7,6.31,6.31,0,0,1-1.65,2c-1.31-.84-2.66-1.63-4-2.38-1-.56-2.06-1.09-3.11-1.59s-1.83-.87-2.77-1.28-1.74-.73-2.63-1.07A7,7,0,0,1,292.48,145.55Z"/><path class="cls-1" d="M129.64,203.11c.8-1.28,1.65-2.54,2.56-3.77l.12-.15c-.89,1.38-1.71,2.79-2.48,4.23Z"/><path class="cls-1" d="M286,323.06a18.3,18.3,0,1,1-14.3,29.71l-5.87-4.06c2.41-3.67,7.51-5.48,11.18-1.24,4.35,5,11.55,6.58,16.63,1.52a10.87,10.87,0,0,0,0-15.27c-4.44-4.44-12-3.16-17.73-3.16H239.59l-10.83-7.51Z"/><path class="cls-2" d="M264.27,274h37.18c2.35,0,4.74.1,7.09,0A30,30,0,0,0,335,254.34c4.64-12.67-.37-27.14-11.46-34.64-12.35-8.37-29.43-5.7-39,5.54a7.48,7.48,0,0,0-1.35,7.84c1.85,4.65,7.82,7.58,12,2.77,6.16-7.2,17.15-8.59,23.48-.62a14.79,14.79,0,0,1-3.72,21.55c-5.51,3.49-14,2.23-20.26,2.23h-98.9c-9.65,0-9.67,15,0,15Zm43.16,19.58a7,7,0,0,0-7.16-6.28H211a7,7,0,0,0-7.15,6.28H192a7,7,0,0,0-7.14-6.29c-24.51-.28-46.37-16.61-52.84-40.4a54.63,54.63,0,0,1,3-36.6,55.74,55.74,0,0,1,8.48-13.43,54,54,0,0,1,14.15-11.78,55.07,55.07,0,0,1,40.73-5.5c1.24.29,2.48.64,3.7,1,3.34,1,6.62-.74,8.46-3.46,14.65-21.53,41.42-33.14,67.15-28.1a66.67,66.67,0,0,1,13.82,4.31c.87.38,1.73.78,2.57,1.18s1.94,1,2.89,1.49a67.66,67.66,0,0,1,8.77,5.72A66.87,66.87,0,0,1,328.6,194.3a7.55,7.55,0,0,0,5.24,5.24,44.76,44.76,0,0,1,4.78,1.31c20,6.6,33.51,26.11,30.82,47.72-2.75,22.09-22,38.41-44,38.7a7.05,7.05,0,0,0-7.13,6.28Z"/><path class="cls-1" d="M201,164.78q-1.83,2.31-3.5,4.76l-.42,2a62.28,62.28,0,0,0-58,18.77c-1.32-2.28-2.52-4.62-3.61-7A71.06,71.06,0,0,1,201,164.78Z"/><path class="cls-1" d="M291.69,148.24c.88.33,1.76.69,2.63,1.07s1.85.83,2.77,1.28,2.09,1,3.11,1.59c1.37.75,2.71,1.54,4,2.38a8.2,8.2,0,0,1-7.29,1.43c-.95-.52-1.91-1-2.89-1.49a7,7,0,0,1-2.41-5.46A6.49,6.49,0,0,1,291.69,148.24Z"/><path class="cls-1" d="M211,294.77h-7.25a7.62,7.62,0,0,1,.1-1.22H307.43a9.12,9.12,0,0,1,.09,1.22H211Z"/><path class="cls-1" d="M343.07,190.32l-5.23-5.23c1.26.27,2.5.6,3.73.95C342.1,187.45,342.6,188.87,343.07,190.32Z"/><path class="cls-1" d="M334.22,193.22a72.06,72.06,0,0,0-24.6-34.88c-1.08-.83-2.18-1.63-3.31-2.39q.13-1.5.19-3a73.87,73.87,0,0,1,29.32,39.36,51.8,51.8,0,0,1,38.8,34.48,49.44,49.44,0,0,0-34.71-27.71q-.32-.06-.65-.16A6.76,6.76,0,0,1,334.22,193.22Z"/><path class="cls-1" d="M306.32,156q-1-.71-2.1-1.39a6.31,6.31,0,0,0,1.65-2l.65.43Q306.45,154.45,306.32,156Z"/><path class="cls-1" d="M296.93,156a8.2,8.2,0,0,0,7.29-1.43q1.07.68,2.1,1.39c-.15,1.93-.36,3.86-.62,5.76A67.66,67.66,0,0,0,296.93,156Z"/><path class="cls-1" d="M291.5,145.17l1,.38a7,7,0,0,0-.8,2.69.12.12,0,0,0-.08,0C291.6,147.2,291.56,146.17,291.5,145.17Z"/><path class="cls-1" d="M179.5,293.56c4.16,0,8.32,0,12.49,0a7.49,7.49,0,0,1,.1,1.21h-7.24A62.18,62.18,0,0,1,166.46,292,60.57,60.57,0,0,0,179.5,293.56Z"/><path class="cls-1" d="M125.33,196.16a67.93,67.93,0,0,1,10.22-12.88c1.09,2.39,2.28,4.73,3.61,7a61.58,61.58,0,0,0-6.84,8.89l-.12.15c-.92,1.23-1.77,2.49-2.56,3.77q-1.39-2-2.65-4.08C126.42,198.08,125.87,197.12,125.33,196.16Z"/><path class="cls-1" d="M306.63,149v.08c0,.14,0,.27,0,.41v.1a7.45,7.45,0,0,1-.75,2.89,73.43,73.43,0,0,0-13.39-7c3.1-5.83,13.75-4.84,14.14,3C306.63,148.7,306.63,148.88,306.63,149Z"/><path class="cls-1" d="M125.71,210.53a59.6,59.6,0,0,0,3.37,54.65A59,59,0,0,0,166.46,292a62.18,62.18,0,0,0,18.39,2.77h7.24c0,3.78-2.38,7.56-7.24,7.51a71,71,0,0,1-47.43-18.62c-23.28-21.42-28.82-57.14-13.65-84.78.5-.93,1-1.82,1.56-2.71.54,1,1.09,1.92,1.66,2.86q1.26,2.08,2.65,4.08A57.58,57.58,0,0,0,125.71,210.53Z"/><path class="cls-1" d="M143.46,196.84A55.74,55.74,0,0,0,135,210.27c-1.8-2.2-3.52-4.48-5.14-6.85.76-1.44,1.58-2.85,2.48-4.23.8-1.08,1.65-2.11,2.51-3.11a56.73,56.73,0,0,1,4.82-5C140.83,193.08,142.1,195,143.46,196.84Z"/><path class="cls-1" d="M143.46,196.84c-1.36-1.86-2.63-3.76-3.8-5.72C155.2,177,177.52,172.33,198,178.64l.53.14-.19.78a55.07,55.07,0,0,0-40.73,5.5A54,54,0,0,0,143.46,196.84Z"/><path class="cls-1" d="M122.61,232.54a62,62,0,0,1,7.24-29.12c1.62,2.37,3.34,4.65,5.14,6.85a54.63,54.63,0,0,0-3,36.6c6.47,23.8,28.33,40.12,52.84,40.4a7,7,0,0,1,7.14,6.29c-4.17,0-8.34,0-12.49,0a60.57,60.57,0,0,1-13-1.55A62.25,62.25,0,0,1,122.61,232.54Z"/><path class="cls-1" d="M341.05,292.39c-6.4,1.26-12.86,1.16-19.5,1.16h-3.19a7.05,7.05,0,0,1,7.13-6.28c22-.29,41.21-16.62,44-38.7,2.69-21.6-10.87-41.12-30.82-47.72l.66-1.94q.32.1.65.16a49.44,49.44,0,0,1,34.71,27.71,51.79,51.79,0,0,1-33.59,65.6Z"/><path class="cls-1" d="M211,294.77h96.51c0,3.75-2.41,7.51-7.25,7.51H211c-4.84,0-7.25-3.76-7.25-7.51Z"/><path class="cls-1" d="M198.53,178.78c3.4.78,6.7-1.07,8.59-3.84,15.77-23.2,44.6-35.69,72.31-30.26a71.59,71.59,0,0,1,12.18,3.53c0,.28,0,.56,0,.84,0,1.43-.08,2.85-.16,4.28A66.67,66.67,0,0,0,277.66,149c-25.74-5-52.51,6.57-67.15,28.1-1.84,2.71-5.13,4.48-8.46,3.46-1.23-.38-2.47-.72-3.7-1Z"/><path class="cls-1" d="M305.87,152.52a7.45,7.45,0,0,0,.75-2.89c0,1.11-.05,2.22-.11,3.32Z"/><path class="cls-1" d="M341.05,292.39a51.57,51.57,0,0,1-15.56,2.38h-7.24a7.63,7.63,0,0,1,.11-1.22h3.19C328.19,293.56,334.66,293.65,341.05,292.39Z"/><path class="cls-1" d="M325.49,294.77a51.57,51.57,0,0,0,15.56-2.38,41.71,41.71,0,0,0,7.12-2c19.36-7.41,31.47-27,30.35-47.57a45.29,45.29,0,0,0-3.88-16,51.8,51.8,0,0,0-38.8-34.48,73.87,73.87,0,0,0-29.32-39.36c.05-1.1.1-2.21.11-3.32v-.1c0-.13,0-.27,0-.41V149c0-.17,0-.34,0-.52,0-1.49-.09-3-.17-4.46a83.7,83.7,0,0,1,35.11,42c-1.23-.34-2.47-.68-3.73-.95l5.23,5.23c-.46-1.44-1-2.86-1.51-4.29,27.43,7.88,46.27,35.15,42.73,63.9a59.91,59.91,0,0,1-58.8,52.35c-4.87.06-7.28-3.73-7.24-7.51Z"/><path class="cls-1" d="M122.61,232.54A62.25,62.25,0,0,0,166.46,292a59,59,0,0,1-37.38-26.82,59.6,59.6,0,0,1-3.37-54.65,57.58,57.58,0,0,1,3.93-7.42l.2.31A62,62,0,0,0,122.61,232.54Z"/><path class="cls-1" d="M307.14,266.48a22.14,22.14,0,1,0-17.31-36l-6.64,2.54a7.48,7.48,0,0,1,1.35-7.84c9.61-11.23,26.68-13.9,39-5.54,11.09,7.51,16.1,22,11.46,34.64a30,30,0,0,1-26.49,19.6c-2.35.14-4.74,0-7.09,0H195.75c-9.67,0-9.65-15,0-15h19.63l-19.63,7.5Z"/><path class="cls-1" d="M341.05,292.39a51.79,51.79,0,0,0,33.59-65.6,45.29,45.29,0,0,1,3.88,16c1.12,20.53-11,40.16-30.35,47.57A41.71,41.71,0,0,1,341.05,292.39Z"/><path class="cls-1" d="M291.47,153.32c.09-1.42.15-2.84.16-4.28a7,7,0,0,0,2.41,5.46C293.21,154.1,292.34,153.7,291.47,153.32Z"/><path class="cls-1" d="M139.65,191.12a56.73,56.73,0,0,0-4.82,5c-.86,1-1.71,2-2.51,3.11a61.58,61.58,0,0,1,6.84-8.89Z"/><path class="cls-1" d="M300.27,287.28a7,7,0,0,1,7.16,6.28H203.86a7,7,0,0,1,7.15-6.28h89.26Z"/><path class="cls-1" d="M304.25,341.36a18.3,18.3,0,0,0-18.3-18.3h-57.2l10.83,7.51H228.76c-9.67,0-9.65-15,0-15h48.63c7.33,0,14.52-.41,21.21,3.31,13.48,7.47,17.13,25.88,7.86,38a26,26,0,0,1-40.1,1.16,7.54,7.54,0,0,1-.57-9.37l5.87,4.06a18.3,18.3,0,0,0,32.6-11.41Z"/><path class="cls-1" d="M201,164.78c1.66.38,3.33.81,5,1.31q-4.23,1.73-8.48,3.45Q199.23,167.09,201,164.78Z"/><path class="cls-1" d="M290.62,136.88c.42,2.74.73,5.49.88,8.29A73.74,73.74,0,0,0,208,167.94l-2-1.84c-1.65-.51-3.32-.94-5-1.31a82.24,82.24,0,0,1,79.21-30.49A77.9,77.9,0,0,1,290.62,136.88Z"/><path class="cls-1" d="M197.13,171.52a61.87,61.87,0,0,1,6.9,1.81c1.24-1.86,2.56-3.66,4-5.4a73.74,73.74,0,0,1,83.52-22.77c.05,1,.1,2,.11,3a71.59,71.59,0,0,0-12.18-3.53c-27.71-5.43-56.55,7.06-72.31,30.26-1.9,2.78-5.19,4.62-8.59,3.84l-.53-.14c-20.48-6.31-42.8-1.68-58.35,12.48l-.5-.83a62.28,62.28,0,0,1,58-18.77Z"/><path class="cls-1" d="M306.62,149.53c0-.14,0-.27,0-.41C306.63,149.26,306.63,149.4,306.62,149.53Z"/><path class="cls-1" d="M339.29,198.92l-.66,1.94a44.76,44.76,0,0,0-4.78-1.31,7.55,7.55,0,0,1-5.24-5.24,66.87,66.87,0,0,0-22.91-32.59c.27-1.91.47-3.83.62-5.76,1.13.76,2.23,1.56,3.31,2.39a72.06,72.06,0,0,1,24.6,34.88A6.76,6.76,0,0,0,339.29,198.92Z"/></g></svg>