<?xml version="1.0" ?><svg viewBox="0 0 500 500" xmlns="http://www.w3.org/2000/svg"><defs><style>.cls-1{fill:#fff;}.cls-2{fill:#231815;}.cls-3{fill:none;stroke:#231815;stroke-miterlimit:10;}</style></defs><title/><g data-name="图层 1" id="图层_1"><path class="cls-1" d="M394.67,337.33c.49,14.52-8.42,28.24-22.28,33.07-6.06,2.11-12.13,1.91-18.41,1.91H263.5c-4.59,0-9.19.05-13.79,0a41.85,41.85,0,0,1-34.3-65.91c10.53-15.33,30-21,47.46-15.64,3.35,1,6.62-.74,8.47-3.45,11.27-16.48,31.82-25.42,51.57-21.55a51.65,51.65,0,0,1,39.17,34.63,6.36,6.36,0,0,0,5.29,5.41C382.38,309.12,394.14,321.59,394.67,337.33Z"/><path class="cls-2" d="M387.18,297.95a49.45,49.45,0,0,1,11.75,10.59,66.46,66.46,0,0,1-3.9,7.07,41.06,41.06,0,0,0-10.94-10.85A52.82,52.82,0,0,0,387.18,297.95Z"/><path class="cls-1" d="M348,227.82c22.46,4.83,40.56,23.46,42.46,46.81a54,54,0,0,1-3.24,23.32,48.15,48.15,0,0,0-12.11-5.63c-8.35-21-26.91-37.41-49.56-41.28a66.9,66.9,0,0,0-63.59,24,57.63,57.63,0,0,0-50.56,13.47A56.91,56.91,0,0,0,193,332.3c-6.23,0-12.45.06-18.67,0a64.91,64.91,0,0,1-1.41-129.8,68.21,68.21,0,0,1,21.73,3.24c3.33,1,6.63-.74,8.47-3.45,17.29-25.5,48.92-39.18,79.35-33.28a79.19,79.19,0,0,1,60.23,53.36A6.32,6.32,0,0,0,348,227.82Z"/><path class="cls-2" d="M387.18,297.95a52.82,52.82,0,0,1-3.09,6.81,41.54,41.54,0,0,0-7.35-3.95,7,7,0,0,0-.14-4.23q-.69-2.16-1.53-4.26A48.15,48.15,0,0,1,387.18,297.95Z"/><path class="cls-2" d="M376.6,296.58a7,7,0,0,1,.14,4.23,39.79,39.79,0,0,0-7.37-2.24,57.91,57.91,0,0,0-2.62-6.87,7.51,7.51,0,0,1,4.61-.36c1.26.28,2.49.6,3.71,1Q375.91,294.42,376.6,296.58Z"/><path class="cls-2" d="M369.37,298.57a39.79,39.79,0,0,1,7.37,2.24c-1.79,5.95-12.15,7.34-14.6-.24l-.06-.18a8.31,8.31,0,0,1,4.67-8.69A57.91,57.91,0,0,1,369.37,298.57Z"/><path class="cls-2" d="M362.14,300.57c2.45,7.58,12.81,6.19,14.6.24a41.54,41.54,0,0,1,7.35,3.95A41.06,41.06,0,0,1,395,315.61a66.46,66.46,0,0,0,3.9-7.07,48.66,48.66,0,0,1,10.74,28.79c.69,20.88-12.64,39.87-32.06,47.09-8,3-16.31,2.89-24.7,2.89H254.45c-10.75,0-21-1.36-30.78-6.29a57,57,0,0,1-28.28-33.72h7.88a49,49,0,0,1-2.9-15c0-.61,0-1.22,0-1.83a49.34,49.34,0,0,1,49.34-49.34,50.14,50.14,0,0,1,15.21,2.4,58.44,58.44,0,0,1,101.88,8.17,8.31,8.31,0,0,0-4.67,8.69,51.65,51.65,0,0,0-39.17-34.63c-19.75-3.87-40.3,5.07-51.57,21.55-1.85,2.71-5.12,4.47-8.47,3.45-17.43-5.32-36.93.31-47.46,15.64a41.85,41.85,0,0,0,34.3,65.91c4.6.05,9.2,0,13.79,0H354c6.28,0,12.35.2,18.41-1.91,13.86-4.83,22.77-18.55,22.28-33.07-.53-15.74-12.29-28.21-27.3-31.53a6.36,6.36,0,0,1-5.29-5.41Z"/><path class="cls-2" d="M357.18,218.6c2.94,9.23-11.54,13.15-14.46,4,0-.07-.05-.14-.07-.21-.66-4.68,3.17-10.33,9.3-9,1.25.27,2.5.58,3.74.92C356.22,215.71,356.72,217.14,357.18,218.6Z"/><path class="cls-2" d="M348,227.82a6.32,6.32,0,0,1-5.31-5.45c0,.07.05.14.07.21,2.92,9.17,17.4,5.25,14.46-4-.46-1.46-1-2.89-1.49-4.32a69.37,69.37,0,0,1,14.56,5.81c23.64,12.76,38,39.69,35,66.43a68.2,68.2,0,0,1-6.31,22,49.45,49.45,0,0,0-11.75-10.59,54,54,0,0,0,3.24-23.32C388.52,251.28,370.42,232.65,348,227.82Z"/><path class="cls-2" d="M266.86,276.29c-1.64-.5-3.29-.92-4.94-1.28a66.9,66.9,0,0,1,63.59-24c22.65,3.87,41.21,20.28,49.56,41.28-1.22-.38-2.45-.7-3.71-1a7.51,7.51,0,0,0-4.61.36,58.44,58.44,0,0,0-101.88-8.17,47.38,47.38,0,0,0-6.86-1.68l.38-2.11Z"/><path class="cls-2" d="M266.86,276.29l-8.47,3.45q1.68-2.46,3.53-4.73C263.57,275.37,265.22,275.79,266.86,276.29Z"/><path class="cls-2" d="M203.27,347.3h-7.88a52.52,52.52,0,0,1-1.82-7.92,58.16,58.16,0,0,1-.62-7.08h7.42A49,49,0,0,0,203.27,347.3Z"/><path class="cls-2" d="M198.59,191.28l-8.47,3.44q1.67-2.46,3.47-4.82C195.27,190.3,196.93,190.76,198.59,191.28Z"/><path class="cls-2" d="M342.65,222.37A79.19,79.19,0,0,0,282.42,169c-30.43-5.9-62.06,7.78-79.35,33.28-1.84,2.71-5.14,4.49-8.47,3.45a68.21,68.21,0,0,0-21.73-3.24,64.91,64.91,0,0,0,1.41,129.8c6.22.06,12.44,0,18.67,0a58.16,58.16,0,0,0,.62,7.08,52.52,52.52,0,0,0,1.82,7.92h-13.3c-14.32,0-28-1.36-41.3-7.38-23.68-10.72-41.31-33.75-45.31-59.46-4.11-26.39,4.81-53.69,24.66-71.83a80.83,80.83,0,0,1,73.45-18.73q-1.8,2.36-3.47,4.82l8.47-3.44c-1.66-.52-3.32-1-5-1.38a93,93,0,0,1,113.13-28.76c22.84,10.2,40.34,29.88,49,53.14-1.24-.34-2.49-.65-3.74-.92C345.82,212,342,217.69,342.65,222.37Z"/><path class="cls-2" d="M193,332.3a56.91,56.91,0,0,1,18.41-43.82A57.63,57.63,0,0,1,261.92,275q-1.84,2.26-3.53,4.73l-.38,2.11a47.85,47.85,0,0,0-8.35-.72,49.34,49.34,0,0,0-49.34,49.34c0,.61,0,1.22,0,1.83H193Z"/><path class="cls-3" d="M193.59,189.9a80.83,80.83,0,0,0-73.45,18.73c-19.85,18.14-28.77,45.44-24.66,71.83,4,25.71,21.63,48.74,45.31,59.46,13.28,6,27,7.38,41.3,7.38h13.3"/><path class="cls-3" d="M193.59,189.9c1.68.4,3.34.86,5,1.38l-8.47,3.44Q191.79,192.26,193.59,189.9Z"/><path class="cls-3" d="M355.69,214.28c-8.63-23.26-26.13-42.94-49-53.14A93,93,0,0,0,193.59,189.9"/><path class="cls-3" d="M193,332.3c-6.23,0-12.45.06-18.67,0a64.91,64.91,0,0,1-1.41-129.8,68.21,68.21,0,0,1,21.73,3.24c3.33,1,6.63-.74,8.47-3.45,17.29-25.5,48.92-39.18,79.35-33.28a79.19,79.19,0,0,1,60.23,53.36"/><path class="cls-3" d="M342.65,222.37a6.32,6.32,0,0,0,5.31,5.45c22.46,4.83,40.56,23.46,42.46,46.81a54,54,0,0,1-3.24,23.32"/><path class="cls-3" d="M398.93,308.54a68.2,68.2,0,0,0,6.31-22c3-26.74-11.35-53.67-35-66.43a69.37,69.37,0,0,0-14.56-5.81"/><path class="cls-3" d="M342.65,222.37c0,.07.05.14.07.21,2.92,9.17,17.4,5.25,14.46-4-.46-1.46-1-2.89-1.49-4.32-1.24-.34-2.49-.65-3.74-.92C345.82,212,342,217.69,342.65,222.37Z"/><path class="cls-3" d="M362.08,300.39l.06.18c2.45,7.58,12.81,6.19,14.6.24a7,7,0,0,0-.14-4.23q-.69-2.16-1.53-4.26c-8.35-21-26.91-37.41-49.56-41.28a66.9,66.9,0,0,0-63.59,24q-1.84,2.26-3.53,4.73l8.47-3.45c-1.64-.5-3.29-.92-4.94-1.28a57.63,57.63,0,0,0-50.56,13.47A56.91,56.91,0,0,0,193,332.3a58.16,58.16,0,0,0,.62,7.08,52.52,52.52,0,0,0,1.82,7.92A57,57,0,0,0,223.67,381c9.77,4.93,20,6.29,30.78,6.29h98.46c8.39,0,16.67.1,24.7-2.89,19.42-7.22,32.75-26.21,32.06-47.09a48.66,48.66,0,0,0-10.74-28.79,49.45,49.45,0,0,0-11.75-10.59,48.15,48.15,0,0,0-12.11-5.63c-1.22-.38-2.45-.7-3.71-1a7.51,7.51,0,0,0-4.61.36,8.31,8.31,0,0,0-4.67,8.69"/><path class="cls-3" d="M362.08,300.39a6.36,6.36,0,0,0,5.29,5.41c15,3.32,26.77,15.79,27.3,31.53.49,14.52-8.42,28.24-22.28,33.07-6.06,2.11-12.13,1.91-18.41,1.91H263.5c-4.59,0-9.19.05-13.79,0a41.85,41.85,0,0,1-34.3-65.91c10.53-15.33,30-21,47.46-15.64,3.35,1,6.62-.74,8.47-3.45,11.27-16.48,31.82-25.42,51.57-21.55A51.65,51.65,0,0,1,362.08,300.39Z"/></g></svg>