<?xml version="1.0" ?><svg viewBox="0 0 500 500" xmlns="http://www.w3.org/2000/svg"><defs><style>.cls-1{fill:#231815;}.cls-2{fill:#d8bf9e;}.cls-3{fill:#f8b62d;}</style></defs><title/><g data-name="图层 1" id="图层_1"><path class="cls-1" d="M404.07,234.75c9.67,0,9.65,15,0,15H370.42c-9.67,0-9.65-15,0-15Z"/><path class="cls-1" d="M341.39,254.91q.61-4.35.82-8.78a73.85,73.85,0,0,1,29.32,39.37A51.76,51.76,0,0,1,361.19,388H354c0-3.72,2.46-7.44,7.24-7.5,22-.3,41.21-16.61,44-38.71,2.89-23.28-13.08-44.14-35.61-49a7.53,7.53,0,0,1-5.24-5.23A66.86,66.86,0,0,0,341.39,254.91Z"/><path class="cls-1" d="M379.05,156.51c8.38-4.84,15.93,8.13,7.57,13l-29.14,16.82c-8.39,4.84-15.93-8.12-7.57-12.95Z"/><path class="cls-1" d="M412.94,336.22a51.77,51.77,0,0,0-41.41-50.72,73.85,73.85,0,0,0-29.32-39.37c.06-1.1.1-2.2.11-3.31v-.08c0-.14,0-.28,0-.42v-.07c0-.17,0-.34,0-.51,0-1.5-.09-3-.17-4.47a83.66,83.66,0,0,1,35.1,42c-1.23-.35-2.46-.68-3.73-.95l5.24,5.24c-.46-1.45-1-2.87-1.51-4.29,27.43,7.89,46.27,35.15,42.73,63.91a59.9,59.9,0,0,1-58.79,52.34c-4.88.06-7.29-3.72-7.24-7.5h7.24A51.75,51.75,0,0,0,412.94,336.22Z"/><path class="cls-1" d="M377.25,279.22c.54,1.42,1,2.84,1.51,4.29l-5.24-5.24C374.79,278.54,376,278.87,377.25,279.22Z"/><path class="cls-1" d="M341.56,245.7a7.28,7.28,0,0,0,.76-2.88c0,1.11-.05,2.21-.11,3.31Z"/><path class="cls-1" d="M341.56,245.7c-1.63,3.24-5.6,4.4-8.93,3.48-1-.51-1.91-1-2.89-1.48a7,7,0,0,1-2.41-5.45,7.49,7.49,0,0,1,.84-3.51A73.57,73.57,0,0,1,341.56,245.7Z"/><path class="cls-1" d="M342.33,242.32c0,.14,0,.28,0,.42v.08a7.28,7.28,0,0,1-.76,2.88,73.57,73.57,0,0,0-13.39-7c3.1-5.84,13.76-4.84,14.15,3,0,.17,0,.34,0,.51Z"/><path class="cls-1" d="M342.21,246.13q-.21,4.42-.82,8.78a67,67,0,0,0-8.76-5.73c3.33.92,7.3-.24,8.93-3.48Z"/><path class="cls-2" d="M332.63,249.18A67.21,67.21,0,0,1,364.3,287.5a7.53,7.53,0,0,0,5.24,5.23c22.53,4.89,38.5,25.75,35.61,49-2.75,22.1-22,38.41-44,38.71-4.78.06-7.2,3.78-7.24,7.5H227.78c0-3.73-2.44-7.45-7.24-7.5-24.5-.28-46.36-16.6-52.84-40.4a55.38,55.38,0,0,1,11.45-50,53.92,53.92,0,0,1,14.15-11.79c13.58-7.83,29.54-9.09,44.43-4.49,3.34,1,6.63-.74,8.47-3.45,14.64-21.54,41.42-33.14,67.15-28.1a66.85,66.85,0,0,1,13.82,4.31c.87.37,1.73.77,2.57,1.18S331.68,248.67,332.63,249.18Z"/><path class="cls-1" d="M318.34,101.19c4.83-8.37,17.79-.81,12.95,7.57L314.47,137.9c-4.83,8.37-17.79.81-13-7.57Z"/><path class="cls-1" d="M327.2,238.36a80.92,80.92,0,0,0-.89-8.28,77.83,77.83,0,0,1,15.84,7.19c.08,1.48.15,3,.17,4.47-.39-7.84-11.05-8.84-14.15-3Z"/><path class="cls-1" d="M327.2,238.36l1,.38a7.49,7.49,0,0,0-.84,3.51C327.32,240.94,327.27,239.65,327.2,238.36Z"/><path class="cls-1" d="M327.17,246.52c.09-1.42.15-2.85.16-4.27a7,7,0,0,0,2.41,5.45C328.9,247.29,328,246.89,327.17,246.52Z"/><path class="cls-1" d="M301.11,233.6a73.53,73.53,0,0,1,26.09,4.76c.07,1.29.12,2.58.13,3.89s-.07,2.85-.16,4.27a66.85,66.85,0,0,0-13.82-4.31c-25.73-5-52.51,6.56-67.15,28.1-1.84,2.71-5.13,4.48-8.47,3.45-14.89-4.6-30.85-3.34-44.43,4.49A53.92,53.92,0,0,0,179.15,290a74.39,74.39,0,0,1-4.29-6.55,62.19,62.19,0,0,1,58-18.76,62.94,62.94,0,0,1,6.87,1.79A73.63,73.63,0,0,1,301.11,233.6Z"/><path class="cls-1" d="M327.2,238.36a73.75,73.75,0,0,0-87.48,28.16,62.94,62.94,0,0,0-6.87-1.79l.4-2,8.47-3.45c-1.65-.51-3.31-.94-5-1.32A82.25,82.25,0,0,1,316,227.49a74.73,74.73,0,0,1,10.36,2.59A80.92,80.92,0,0,1,327.2,238.36Z"/><path class="cls-3" d="M171.24,276.48a83.06,83.06,0,0,1,4.39-76.63c17.54-28.95,52.48-44.6,85.76-37.86a82.65,82.65,0,0,1,64.92,68.09A74.73,74.73,0,0,0,316,227.49,82.25,82.25,0,0,0,236.74,258,71.05,71.05,0,0,0,171.24,276.48Z"/><path class="cls-1" d="M253.06,83.74v33.65c0,9.67-15,9.65-15,0V83.74C238.06,74.07,253.06,74.08,253.06,83.74Z"/><path class="cls-1" d="M241.72,259.29l-8.47,3.45c1.11-1.64,2.28-3.23,3.49-4.77C238.41,258.35,240.07,258.78,241.72,259.29Z"/><path class="cls-1" d="M236.74,258c-1.21,1.54-2.38,3.13-3.49,4.77l-.4,2a62.19,62.19,0,0,0-58,18.76c-1.33-2.28-2.53-4.63-3.62-7A71.05,71.05,0,0,1,236.74,258Z"/><path class="cls-1" d="M189.61,130.33c4.84,8.39-8.13,15.93-13,7.57l-16.83-29.14c-4.84-8.39,8.13-15.93,12.95-7.57Z"/><path class="cls-1" d="M158.31,325.73A62.24,62.24,0,0,0,220.54,388h7.24c0,3.77-2.38,7.55-7.24,7.5a70.94,70.94,0,0,1-47.42-18.62c-23.28-21.42-28.82-57.13-13.66-84.79.5-.91,1-1.82,1.57-2.7q.8,1.44,1.65,2.85c.91,1.51,1.87,3,2.86,4.41A61.92,61.92,0,0,0,158.31,325.73Z"/><path class="cls-1" d="M165.54,296.62a62,62,0,0,1,9.32-13.13,74.39,74.39,0,0,0,4.29,6.55,55.17,55.17,0,0,0-8.47,13.42Q168,300.18,165.54,296.62Z"/><path class="cls-1" d="M171.24,276.48A67.8,67.8,0,0,0,161,289.36c-19.27-34.5-15-78.17,10-108.76,25.37-31.05,69.58-43.24,107.27-29.42a98,98,0,0,1,63.86,86.09,77.83,77.83,0,0,0-15.84-7.19A82.65,82.65,0,0,0,261.39,162c-33.28-6.74-68.22,8.91-85.76,37.86A83.06,83.06,0,0,0,171.24,276.48Z"/><path class="cls-1" d="M171.24,276.48c1.09,2.38,2.29,4.73,3.62,7a62,62,0,0,0-9.32,13.13c-1-1.44-1.95-2.9-2.86-4.41q-.85-1.41-1.65-2.85A67.8,67.8,0,0,1,171.24,276.48Z"/><path class="cls-1" d="M165.54,296.62q2.43,3.56,5.14,6.84a54.65,54.65,0,0,0-3,36.61c6.48,23.8,28.34,40.12,52.84,40.4,4.8.05,7.21,3.77,7.24,7.5h-7.24a62.24,62.24,0,0,1-55-91.35Z"/><path class="cls-1" d="M141.22,173.34c8.37,4.83.8,17.79-7.57,12.95L104.5,169.47c-8.36-4.83-.8-17.79,7.57-13Z"/><path class="cls-1" d="M133.65,298.2c8.38-4.84,15.93,8.12,7.57,12.95L112.07,328c-8.38,4.84-15.92-8.13-7.57-13Z"/><path class="cls-1" d="M120.71,234.75c9.66,0,9.65,15,0,15H87.05c-9.67,0-9.65-15,0-15Z"/><path class="cls-1" d="M231.45,367.18c9.65,0,9.67-15,0-15s-9.67,15,0,15Z"/><path class="cls-1" d="M259.3,367.18c9.65,0,9.67-15,0-15s-9.67,15,0,15Z"/><path class="cls-1" d="M287.15,367.18c9.65,0,9.67-15,0-15s-9.67,15,0,15Z"/><path class="cls-1" d="M315,367.18c9.65,0,9.67-15,0-15s-9.67,15,0,15Z"/><path class="cls-1" d="M342.84,367.18c9.65,0,9.67-15,0-15s-9.67,15,0,15Z"/><path class="cls-1" d="M264.45,423.76c9.65,0,9.67-15,0-15s-9.67,15,0,15Z"/><path class="cls-1" d="M292.3,423.76c9.65,0,9.67-15,0-15s-9.67,15,0,15Z"/><path class="cls-1" d="M320.15,423.76c9.65,0,9.67-15,0-15s-9.67,15,0,15Z"/><path class="cls-1" d="M348,423.76c9.65,0,9.67-15,0-15s-9.67,15,0,15Z"/><path class="cls-1" d="M375.84,423.76c9.65,0,9.67-15,0-15s-9.67,15,0,15Z"/><path class="cls-1" d="M246.71,395.47c9.65,0,9.67-15,0-15s-9.67,15,0,15Z"/><path class="cls-1" d="M276.46,395.47c9.65,0,9.67-15,0-15s-9.67,15,0,15Z"/><path class="cls-1" d="M306.22,395.47c9.65,0,9.67-15,0-15s-9.67,15,0,15Z"/><path class="cls-1" d="M336,395.47c9.65,0,9.67-15,0-15s-9.67,15,0,15Z"/></g></svg>