<?xml version="1.0" ?><svg viewBox="0 0 500 500" xmlns="http://www.w3.org/2000/svg"><defs><style>.cls-1{fill:#fff;}.cls-2{fill:#231815;}.cls-3{fill:#f4ec90;}.cls-4{fill:#2ea7e0;}</style></defs><title/><g data-name="图层 1" id="图层_1"><path class="cls-1" d="M336.56,130.45c-.62,1.22-1.28,2.42-2,3.58a53.72,53.72,0,0,1-14.6,15.19,44.46,44.46,0,0,1-5.27,3.16,53.31,53.31,0,0,1,11.13,7.79,50.35,50.35,0,0,1,10.71,14l.59-1.07a51.17,51.17,0,0,1,13.39-15.6,51.88,51.88,0,0,1,8-5.19A52.51,52.51,0,0,1,336.56,130.45Z"/><path class="cls-2" d="M367.51,148.62a10.41,10.41,0,0,0-2,.68c-.64.23-1.27.48-1.9.73a6.79,6.79,0,0,0,5.3,6.51C365.56,155.63,373.1,147.95,367.51,148.62Z"/><path class="cls-2" d="M363.59,150c-1.07.42-2.13.87-3.18,1.35-.66.3-1.29.63-1.92,1a54.2,54.2,0,0,0,10.4,4.2A6.79,6.79,0,0,1,363.59,150Z"/><path class="cls-2" d="M363.59,150c.63-.25,1.26-.5,1.9-.73a10.41,10.41,0,0,1,2-.68c5.59-.67-2,7,1.38,7.91,9.3,2.66,13.27-11.81,4-14.46C367.12,140.51,363.4,145.44,363.59,150Z"/><path class="cls-2" d="M340.68,120h-8.31l.39,1.38a15.26,15.26,0,0,0,1.18,3.36,53.92,53.92,0,0,0,2.61,5.71,61.86,61.86,0,0,0,2.55-5.71C339.6,123.49,340.69,121.43,340.68,120Z"/><path class="cls-2" d="M304.17,148.22v4.15q-2,5.08.69,4c1.37,0,3.4-1.11,4.7-1.63,1.74-.7,3.44-1.46,5.1-2.32a54.23,54.23,0,0,0-7.76-3.33A10.83,10.83,0,0,0,304.17,148.22Z"/><path class="cls-2" d="M228.5,88.87a127.93,127.93,0,0,0-5.81,17.37,122.38,122.38,0,0,1,16.83-8.9Z"/><path class="cls-1" d="M276,352.4a7.38,7.38,0,0,0,3.74,1.07v1.92H262.37v-7.34c1-.58,2-1.16,3-1.73.76.4,1.5.79,2.18,1.18Z"/><path class="cls-1" d="M247.37,353.85v1.54H222.53V349l.74-.43,4.08-2.35,3.42-2,4.08-2.35.1-.06L239,344.2l3.32,1.92,4.18,2.42.84.48Z"/><path class="cls-1" d="M207.53,355.39H190v-1.91a7.4,7.4,0,0,0,3.75-1.08l8.45-4.9c.65-.38,1.4-.77,2.18-1.18l3.2,1.85Z"/><path class="cls-1" d="M304.41,246.1a65.19,65.19,0,0,1,3.54,8.82,7.54,7.54,0,0,0,5.24,5.24A46.29,46.29,0,0,1,332.06,269a44.35,44.35,0,0,1,17,32.18,43.61,43.61,0,0,1-.25,8,43,43,0,0,1-3.05,11.39,45.18,45.18,0,0,1-40.91,27.31c-4.78.07-7.19,3.78-7.24,7.5H279.74v-1.92c6.58,0,10.91-9.91,3.83-14l-3.14-1.82,3-1.72,1.87-1.08c6.75-3.9,3.12-13.11-3-13.95a6.16,6.16,0,0,0-1.55,0,7.7,7.7,0,0,0-3.07,1l-4.77,2.75c0-1.19,0-2.39,0-3.59,0-.24,0-.46,0-.68-.63-7.9-11.78-8.67-14.41-2.28a7.59,7.59,0,0,0-.55,3q0,4.88,0,9.77c0,.74,0,1.56-.07,2.42v.1L254,335.54,247.84,332c-1-.61-2.24-1.41-3.51-2.24-.64-.43-1.31-.85-2-1.26v-4.1c.76-.48,1.5-.95,2.18-1.35l8.48-4.86a8.06,8.06,0,0,0,1.45-1.05c5.91-5.39-1.18-16.4-9-11.9L242.35,307v-5.32c0-9.65-15-9.67-15,0V307l-3.09-1.77c-7.22-4.14-13.82,4.89-10.16,10.55a7.28,7.28,0,0,0,2.59,2.4l8.48,4.86c.68.4,1.41.86,2.18,1.35v4.25c-1.77,1.1-3.45,2.28-4.87,3.1l-6.71,3.88-3.95-2.28c0-.88-.06-1.73-.06-2.51q0-4.89,0-9.77c0-9.66-15-9.67-15,0,0,1.2,0,2.4,0,3.59L192,321.88c-8.37-4.84-15.94,8.12-7.57,12.95l4.84,2.8-3.14,1.82c-7.07,4.1-2.74,14,3.82,14v1.91H171.43c0-3.72-2.44-7.44-7.24-7.5-24.5-.27-46.36-16.59-52.83-40.4A55.21,55.21,0,0,1,137,245.68a53.49,53.49,0,0,1,20.47-6.76,57.21,57.21,0,0,1,16.1.41,60.13,60.13,0,0,1,7.86,1.85c3.34,1,6.63-.73,8.47-3.44a67.39,67.39,0,0,1,48.69-28.94,63,63,0,0,1,18.46.84c.1,0,.19,0,.29.06A67.07,67.07,0,0,1,304.41,246.1Z"/><path class="cls-2" d="M400,260.4q-4.23-5.52-8.47-11L391,247.9c1.69-.61,3.38-1.27,5.05-2,6.81-2.84,10.67,5.93,8.47,11a131.89,131.89,0,0,1-40.71,52,57.25,57.25,0,0,0-1.27-18.43,120.86,120.86,0,0,0,20.14-24.29A127.53,127.53,0,0,0,400,260.4Z"/><path class="cls-2" d="M391.55,249.38q4.25,5.51,8.47,11a127.53,127.53,0,0,1-17.35,5.8A122.08,122.08,0,0,0,391.55,249.38Z"/><path class="cls-2" d="M391,247.9l.56,1.48a122.08,122.08,0,0,1-8.88,16.82,129.79,129.79,0,0,1-29.15,4.07,60.56,60.56,0,0,0-15.75-15.69A119.29,119.29,0,0,0,391,247.9Z"/><path class="cls-3" d="M362.53,290.49a59.53,59.53,0,0,0-9-20.22,129.79,129.79,0,0,0,29.15-4.07A120.86,120.86,0,0,1,362.53,290.49Z"/><path class="cls-2" d="M355.35,314.9q4.33-2.82,8.45-6c-.06.54-.1,1.09-.16,1.63a59.91,59.91,0,0,1-58.8,52.34c-4.87.07-7.28-3.71-7.24-7.5h7.24A51.76,51.76,0,0,0,355.35,314.9Z"/><path class="cls-2" d="M356,296.07q3.36-2.67,6.5-5.58a57.25,57.25,0,0,1,1.27,18.43q-4.11,3.15-8.45,6a52.15,52.15,0,0,0,1.24-11.26A51.2,51.2,0,0,0,356,296.07Z"/><path class="cls-2" d="M362.53,290.49q-3.15,2.91-6.5,5.58a51.49,51.49,0,0,0-11.73-25.9c3.07.14,6.15.17,9.22.1A59.53,59.53,0,0,1,362.53,290.49Z"/><path class="cls-2" d="M356.59,303.64a52.15,52.15,0,0,1-1.24,11.26q-4.68,3-9.6,5.68a43,43,0,0,0,3.05-11.39,43.61,43.61,0,0,0,.25-8q3.58-2.44,7-5.15A51.2,51.2,0,0,1,356.59,303.64Z"/><path class="cls-2" d="M345.75,320.58q4.92-2.64,9.6-5.68a51.76,51.76,0,0,1-50.51,40.49H297.6c.05-3.72,2.46-7.43,7.24-7.5A45.18,45.18,0,0,0,345.75,320.58Z"/><path class="cls-2" d="M344.3,270.17A51.49,51.49,0,0,1,356,296.07q-3.39,2.7-7,5.15a44.35,44.35,0,0,0-17-32.18Q338.15,269.9,344.3,270.17Z"/><path class="cls-2" d="M337.77,254.58a60.56,60.56,0,0,1,15.75,15.69c-3.07.07-6.15,0-9.22-.1a51.76,51.76,0,0,0-29.12-17.24c-.34-1.11-.71-2.2-1.11-3.28A118.31,118.31,0,0,0,337.77,254.58Z"/><path class="cls-2" d="M336.53,184.73c4.85,0,4.52,1,3.54-2.06a60.49,60.49,0,0,0-2.26-5.77c-.4-.92-.85-1.82-1.31-2.72l.59-1.07a51.08,51.08,0,0,1,13.39-15.6,52.13,52.13,0,0,1,8-5.19,54.49,54.49,0,0,0,10.41,4.2c9.29,2.67,13.26-11.8,4-14.46a10.71,10.71,0,0,1,7.71,11.75c-.71,5.27-4.46,7.66-9.08,9.27-9.45,3.28-17.06,9.31-21.79,18.22-2,3.71-2.43,8.45-5.21,11.66a10.64,10.64,0,0,1-12.16,2.72c-5-2.13-5.66-6.52-7.44-11a36,36,0,0,0-5.86-9.88,37.92,37.92,0,0,0-10.21-8.54c-3.48-2-7.46-2.59-10.91-4.5a10.74,10.74,0,0,1-5.2-12.21c1.25-4.54,4.71-6.47,8.83-7.85a37.2,37.2,0,0,0,19.66-14.61c4.45-6.8,5.18-19.28,15.76-18.87,9.9.39,10.56,12.28,14.87,18.87a37.06,37.06,0,0,0,21,15c-5.76-1.55-9.48,3.37-9.28,8-1.07.42-2.14.87-3.18,1.34-.66.3-1.29.63-1.93,1a52.53,52.53,0,0,1-21.92-21.87,62.06,62.06,0,0,0,2.55-5.71c.49-1.26,1.58-3.32,1.57-4.73h-8.31c.13.46.27.92.4,1.38a15.49,15.49,0,0,0,1.17,3.35,53.73,53.73,0,0,0,2.62,5.71c-.63,1.22-1.29,2.42-2,3.58a53.66,53.66,0,0,1-14.61,15.19,44,44,0,0,1-5.27,3.16,53.8,53.8,0,0,0-7.76-3.33,10.45,10.45,0,0,0-2.74-.83v4.15q-2,5.08.69,4c1.38,0,3.4-1.12,4.71-1.64,1.73-.69,3.44-1.46,5.1-2.31a53.32,53.32,0,0,1,11.13,7.79,50.41,50.41,0,0,1,10.71,14c-1.54,2.8-3.32,6.16-3.73,9.17C332.42,185.88,330.63,184.73,336.53,184.73Z"/><path class="cls-2" d="M340.07,182.67c1,3.07,1.31,2.06-3.54,2.06-5.9,0-4.11,1.15-3.76-1.38.41-3,2.19-6.37,3.73-9.17.46.9.91,1.8,1.31,2.72A60.49,60.49,0,0,1,340.07,182.67Z"/><path class="cls-2" d="M315.18,252.93a51.76,51.76,0,0,1,29.12,17.24q-6.15-.29-12.24-1.13a46.29,46.29,0,0,0-18.87-8.88,7.54,7.54,0,0,1-5.24-5.24,65.19,65.19,0,0,0-3.54-8.82c3.17,1.33,6.4,2.51,9.66,3.55C314.47,250.73,314.84,251.82,315.18,252.93Z"/><path class="cls-2" d="M322.42,250.94l-5.24-5.24c1.26.27,2.5.6,3.72,1C321.44,248.06,322,249.49,322.42,250.94Z"/><path class="cls-2" d="M320.9,246.65a58.81,58.81,0,0,1,16.87,7.93,118.31,118.31,0,0,1-23.7-4.93,73.73,73.73,0,0,0-62.54-48.3q-2.36-3.76-4.41-7.67a84.38,84.38,0,0,1,12.49,1.23c28.13,4.95,51.25,25.4,61.29,51.74-1.22-.35-2.46-.68-3.72-1l5.24,5.24C322,249.49,321.44,248.06,320.9,246.65Z"/><path class="cls-2" d="M314.07,249.65c-3.26-1-6.49-2.22-9.66-3.55a67.07,67.07,0,0,0-47.12-36.4c-2.05-2.72-4-5.5-5.76-8.35A73.73,73.73,0,0,1,314.07,249.65Z"/><path class="cls-4" d="M282.32,320.88c6.07.84,9.7,10.05,3,13.95l-1.87,1.08-3,1.72,3.14,1.82c7.08,4.11,2.75,14-3.83,14A7.38,7.38,0,0,1,276,352.4l-8.44-4.9c-.68-.39-1.42-.78-2.18-1.18-1,.57-2,1.15-3,1.73v7.34h-15V349l-.84-.48-4.18-2.42L239,344.2,235,341.85l-.1.06-4.08,2.35-3.42,2-4.08,2.35-.74.43v6.37h-15v-7.22l-3.2-1.85c-.78.41-1.53.8-2.18,1.18l-8.45,4.9a7.4,7.4,0,0,1-3.75,1.08c-6.56,0-10.89-9.93-3.82-14l3.14-1.82-4.84-2.8c-8.37-4.83-.8-17.79,7.57-12.95l4.77,2.75c0-1.19,0-2.39,0-3.59,0-9.67,15-9.66,15,0q0,4.88,0,9.77c0,.78,0,1.63.06,2.51l3.95,2.28,6.71-3.88c1.42-.82,3.1-2,4.87-3.1v-4.25c-.77-.49-1.5-.95-2.18-1.35l-8.48-4.86a7.28,7.28,0,0,1-2.59-2.4c-3.66-5.66,2.94-14.69,10.16-10.55l3.09,1.77v-5.32c0-9.67,15-9.65,15,0V307l3.09-1.77c7.84-4.5,14.93,6.51,9,11.9a8.06,8.06,0,0,1-1.45,1.05L244.53,323c-.68.4-1.42.87-2.18,1.35v4.1c.67.41,1.34.83,2,1.26,1.27.83,2.46,1.63,3.51,2.24l6.19,3.57,3.84-2.21v-.1c0-.86.07-1.68.07-2.42q0-4.89,0-9.77a7.59,7.59,0,0,1,.55-3c2.63-6.39,13.78-5.62,14.41,2.28,0,.22,0,.44,0,.68,0,1.2,0,2.4,0,3.59l4.77-2.75a7.7,7.7,0,0,1,3.07-1A6.16,6.16,0,0,1,282.32,320.88Z"/><path class="cls-4" d="M285.07,375.61c8.37,4.83.81,17.79-7.57,13l-4.57-2.65c0,1.2,0,2.4,0,3.6,0,9.67-15,9.65-15,0,0-3.26,0-6.51,0-9.77,0-.79,0-1.64-.06-2.52l-2.27-1.3-8.19,4.73c-1.47.85-3.22,2.09-5.07,3.22v2.31c.77.48,1.5.95,2.18,1.34l8.48,4.86c8.38,4.81.81,17.77-7.57,13l-3.09-1.77v5.55c0,9.66-15,9.65-15,0v-5.55l-3.09,1.77c-8.39,4.81-15.94-8.15-7.57-13l8.48-4.86c.68-.39,1.42-.86,2.18-1.34v-2.4c-1.94-1.19-3.77-2.5-5.3-3.38l-7.86-4.54-2.36,1.36c0,.9-.07,1.75-.07,2.52,0,3.26,0,6.51,0,9.77,0,9.67-15,9.65-15,0,0-1.2,0-2.4,0-3.6l-4.57,2.65c-8.38,4.84-15.93-8.13-7.57-13l4.64-2.68-3.14-1.82c-7.07-4.11-2.74-14,3.83-14a7.35,7.35,0,0,1,3.74,1.07l8.45,4.91c.67.39,1.41.78,2.17,1.18l3.21-1.85v-7h15v8l4.82,2.79,1.84,1.06,5.66,3.27.1,0,5.66-3.26,1.74-1,5-2.9v-8h15v7.12l3,1.73c.78-.41,1.53-.8,2.19-1.18l8.44-4.91a7.35,7.35,0,0,1,3.74-1.07c6.57,0,10.9,9.92,3.83,14l-3.14,1.82Z"/><path class="cls-2" d="M251.53,201.35c1.78,2.85,3.71,5.63,5.76,8.35-.1,0-.19,0-.29-.06a63,63,0,0,0-18.46-.84c-1.43-2.31-2.77-4.67-4.05-7.05a74.12,74.12,0,0,1,10.27-.72Q248.18,201,251.53,201.35Z"/><path class="cls-2" d="M231.07,194.9a82.4,82.4,0,0,1,16-1.22q2.06,3.9,4.41,7.67-3.35-.32-6.77-.32a74.12,74.12,0,0,0-10.27.72C233.28,199.5,232.14,197.21,231.07,194.9Z"/><path class="cls-2" d="M247.12,193.68a82.4,82.4,0,0,0-16,1.22,132.43,132.43,0,0,1-8.38-88.66,122.7,122.7,0,0,1,16.83-8.9l1.47.55A118.43,118.43,0,0,0,247.12,193.68Z"/><path class="cls-2" d="M231.94,84.39c5.14-2.22,13.88,1.63,11,8.47-.7,1.67-1.35,3.34-2,5l-1.47-.55-11-8.47-1.14-2.38C228.87,85.75,230.4,85.06,231.94,84.39Z"/><path class="cls-2" d="M183.38,234a73.69,73.69,0,0,1,51.11-32.2c1.28,2.38,2.62,4.74,4.05,7.05a67.39,67.39,0,0,0-48.69,28.94c-1.84,2.71-5.13,4.47-8.47,3.44a60.13,60.13,0,0,0-7.86-1.85q-1.24-4-2.21-8A62,62,0,0,1,183.38,234Z"/><path class="cls-2" d="M227.36,86.49l1.14,2.38a126.92,126.92,0,0,0-5.81,17.37,117,117,0,0,0-50.72,68,114.59,114.59,0,0,0-2.22,49.55,71.7,71.7,0,0,0-15.37.56,131.17,131.17,0,0,1,73-137.87Z"/><path class="cls-3" d="M222.69,106.24a132.43,132.43,0,0,0,8.38,88.66,82.66,82.66,0,0,0-50.68,30.5,70.48,70.48,0,0,0-10.64-1.6A114.59,114.59,0,0,1,172,174.25,117,117,0,0,1,222.69,106.24Z"/><path class="cls-2" d="M185.37,226.72l-8.47,3.45c1.11-1.64,2.28-3.23,3.49-4.77C182.06,225.78,183.72,226.21,185.37,226.72Z"/><path class="cls-2" d="M231.07,194.9c1.07,2.31,2.21,4.6,3.42,6.85A73.69,73.69,0,0,0,183.38,234a62,62,0,0,0-12.07-2.61q-.9-3.75-1.56-7.54a70.48,70.48,0,0,1,10.64,1.6c-1.21,1.54-2.38,3.13-3.49,4.77l8.47-3.45c-1.65-.51-3.31-.94-5-1.32A82.66,82.66,0,0,1,231.07,194.9Z"/><path class="cls-2" d="M164.19,230.92a62,62,0,0,1,7.12.42q1,4,2.21,8a57.21,57.21,0,0,0-16.1-.41q-1-3.66-1.77-7.4A63.46,63.46,0,0,1,164.19,230.92Z"/><path class="cls-2" d="M169.75,223.8q.66,3.79,1.56,7.54a62,62,0,0,0-7.12-.42,63.46,63.46,0,0,0-8.54.6q-.73-3.56-1.27-7.16A71.7,71.7,0,0,1,169.75,223.8Z"/><path class="cls-2" d="M102,293.16a62.25,62.25,0,0,1,53.69-61.64q.78,3.73,1.77,7.4A53.49,53.49,0,0,0,137,245.68a55.21,55.21,0,0,0-25.59,61.81c6.47,23.81,28.33,40.13,52.83,40.4,4.8.06,7.21,3.78,7.24,7.5h-7.24A62.23,62.23,0,0,1,102,293.16Z"/><path class="cls-2" d="M154.38,224.36q.54,3.6,1.27,7.16a62.23,62.23,0,0,0,8.54,123.87h7.24c0,3.78-2.37,7.56-7.24,7.5a70.85,70.85,0,0,1-47.41-18.61C93.49,322.86,88,287.14,103.11,259.49A69.76,69.76,0,0,1,154.38,224.36Z"/></g></svg>