<?xml version="1.0" ?><svg viewBox="0 0 500 500" xmlns="http://www.w3.org/2000/svg"><defs><style>.cls-1{fill:#dcdddd;}.cls-2{fill:#231815;}.cls-3{fill:#f8b62d;}</style></defs><title/><g data-name="图层 1" id="图层_1"><path class="cls-1" d="M329.74,247.71c1,.47,1.94,1,2.89,1.48a67.93,67.93,0,0,1,8.76,5.72A66.91,66.91,0,0,1,364.3,287.5a7.54,7.54,0,0,0,5.24,5.24c22.53,4.89,38.5,25.75,35.61,49-2.75,22.09-22,38.41-44,38.7-4.78.07-7.2,3.78-7.24,7.5H343.21c0-3.75-2.41-7.5-7.24-7.5H246.7c-4.82,0-7.24,3.75-7.24,7.5H227.78c0-3.72-2.44-7.45-7.24-7.5-24.5-.27-46.36-16.6-52.84-40.4a54.66,54.66,0,0,1,3-36.61A55.56,55.56,0,0,1,179.15,290a53.88,53.88,0,0,1,14.15-11.78c13.58-7.83,29.54-9.09,44.43-4.5,3.34,1,6.63-.74,8.47-3.44,14.64-21.54,41.42-33.14,67.15-28.11a66.85,66.85,0,0,1,13.82,4.31C328,246.9,328.9,247.29,329.74,247.71Zm13.1,119.47c9.65,0,9.67-15,0-15H231.45c-9.66,0-9.67,15,0,15H342.84Z"/><path class="cls-2" d="M404.07,234.75c9.67,0,9.65,15,0,15H370.42c-9.67,0-9.65-15,0-15Z"/><path class="cls-2" d="M371.53,285.51A51.75,51.75,0,0,1,361.19,388H354c0-3.72,2.46-7.43,7.24-7.5,22-.29,41.21-16.61,44-38.7,2.89-23.28-13.08-44.14-35.61-49a7.54,7.54,0,0,1-5.24-5.24,66.91,66.91,0,0,0-22.91-32.59c.41-2.89.68-5.82.82-8.77A73.81,73.81,0,0,1,371.53,285.51Z"/><path class="cls-2" d="M379.05,156.52c8.38-4.84,15.93,8.13,7.57,13L357.48,186.3c-8.39,4.84-15.93-8.13-7.57-12.95Z"/><path class="cls-2" d="M412.94,336.22a51.76,51.76,0,0,0-41.41-50.71,73.81,73.81,0,0,0-29.32-39.37c.06-1.1.1-2.21.11-3.32v-.08c0-.14,0-.28,0-.42v-.07c0-.17,0-.34,0-.51,0-1.5-.09-3-.17-4.47a83.68,83.68,0,0,1,35.1,42c-1.23-.35-2.46-.68-3.73-.95l5.24,5.23c-.46-1.44-1-2.87-1.51-4.28,27.43,7.88,46.27,35.15,42.73,63.9a59.9,59.9,0,0,1-58.79,52.34c-4.88.07-7.29-3.72-7.24-7.5h7.24A51.75,51.75,0,0,0,412.94,336.22Z"/><path class="cls-2" d="M377.25,279.23c.54,1.41,1,2.84,1.51,4.28l-5.24-5.23C374.79,278.55,376,278.88,377.25,279.23Z"/><path class="cls-2" d="M364.65,408.76c9.67,0,9.66,15,0,15H264.45c-9.67,0-9.65-15,0-15h100.2Z"/><path class="cls-2" d="M342.84,352.18c9.67,0,9.65,15,0,15H231.45c-9.67,0-9.66-15,0-15H342.84Z"/><path class="cls-2" d="M336,380.47c4.83,0,7.25,3.75,7.24,7.5H239.46c0-3.75,2.42-7.5,7.24-7.5H336Z"/><path class="cls-2" d="M239.46,388H343.21c0,3.75-2.41,7.5-7.24,7.5H246.7C241.87,395.47,239.46,391.72,239.46,388Z"/><path class="cls-2" d="M341.56,245.71a7.37,7.37,0,0,0,.76-2.89c0,1.11-.05,2.22-.11,3.32Z"/><path class="cls-2" d="M328.17,238.75a73,73,0,0,1,13.39,7c-1.63,3.23-5.6,4.39-8.93,3.48-1-.52-1.91-1-2.89-1.48a7,7,0,0,1-2.41-5.46A7.48,7.48,0,0,1,328.17,238.75Z"/><path class="cls-2" d="M341.56,245.71a73,73,0,0,0-13.39-7c3.1-5.84,13.76-4.84,14.15,3,0,.17,0,.34,0,.51v.07c0,.14,0,.28,0,.42v.08A7.37,7.37,0,0,1,341.56,245.71Z"/><path class="cls-2" d="M332.63,249.19c3.33.91,7.3-.25,8.93-3.48l.65.43c-.14,2.95-.41,5.88-.82,8.77A67.93,67.93,0,0,0,332.63,249.19Z"/><path class="cls-2" d="M318.34,101.19c4.83-8.36,17.79-.8,12.95,7.57l-16.82,29.15c-4.83,8.37-17.79.8-13-7.57Z"/><path class="cls-2" d="M342.32,241.74c-.39-7.83-11.05-8.83-14.15-3l-1-.38a81.11,81.11,0,0,0-.89-8.29,78.92,78.92,0,0,1,15.84,7.19C342.23,238.76,342.3,240.24,342.32,241.74Z"/><path class="cls-2" d="M328.17,238.75a7.48,7.48,0,0,0-.84,3.5c0-1.3-.06-2.59-.13-3.88Z"/><path class="cls-2" d="M327.33,242.25a7,7,0,0,0,2.41,5.46c-.84-.42-1.7-.81-2.57-1.19C327.26,245.1,327.32,243.68,327.33,242.25Z"/><path class="cls-2" d="M220.54,263.5a62.17,62.17,0,0,1,12.29,1.22h0a60.56,60.56,0,0,1,6.89,1.8,73.75,73.75,0,0,1,87.48-28.16c.07,1.29.12,2.58.13,3.88s-.07,2.85-.16,4.27a66.85,66.85,0,0,0-13.82-4.31c-25.73-5-52.51,6.57-67.15,28.11-1.84,2.7-5.13,4.47-8.47,3.44-14.89-4.59-30.85-3.33-44.43,4.5A53.88,53.88,0,0,0,179.15,290a72.94,72.94,0,0,1-4.29-6.55A62,62,0,0,1,220.54,263.5Z"/><path class="cls-2" d="M241.72,259.3c-1.65-.51-3.31-.94-5-1.32A82.26,82.26,0,0,1,316,227.49a77.68,77.68,0,0,1,10.36,2.59,81.11,81.11,0,0,1,.89,8.29,73.75,73.75,0,0,0-87.48,28.16,60.56,60.56,0,0,0-6.89-1.8h0l.42-2Z"/><path class="cls-3" d="M261.39,162a82.64,82.64,0,0,1,64.92,68.08A77.68,77.68,0,0,0,316,227.49,82.26,82.26,0,0,0,236.74,258a71.07,71.07,0,0,0-65.5,18.5,83.06,83.06,0,0,1,4.39-76.63C193.17,170.91,228.11,155.25,261.39,162Z"/><path class="cls-2" d="M253.06,83.74V117.4c0,9.66-15,9.65-15,0V83.74C238.06,74.07,253.06,74.09,253.06,83.74Z"/><path class="cls-2" d="M241.72,259.3l-8.47,3.44c1.11-1.63,2.28-3.22,3.49-4.76C238.41,258.36,240.07,258.79,241.72,259.3Z"/><path class="cls-2" d="M236.74,258c-1.21,1.54-2.38,3.13-3.49,4.76l-.42,2a62.25,62.25,0,0,0-58,18.77,78.73,78.73,0,0,1-3.62-7A71.07,71.07,0,0,1,236.74,258Z"/><path class="cls-2" d="M189.61,130.34c4.84,8.38-8.13,15.93-13,7.57l-16.83-29.15c-4.84-8.38,8.13-15.92,12.95-7.57Z"/><path class="cls-2" d="M158.31,325.74A62.23,62.23,0,0,0,220.54,388h7.24c0,3.78-2.38,7.56-7.24,7.5a70.93,70.93,0,0,1-47.42-18.61c-23.28-21.42-28.82-57.14-13.66-84.79.5-.92,1-1.82,1.57-2.71.53,1,1.08,1.92,1.65,2.86.91,1.5,1.87,3,2.86,4.4A62,62,0,0,0,158.31,325.74Z"/><path class="cls-2" d="M174.86,283.49a72.94,72.94,0,0,0,4.29,6.55,55.56,55.56,0,0,0-8.47,13.42q-2.72-3.28-5.14-6.84A62,62,0,0,1,174.86,283.49Z"/><path class="cls-2" d="M175.63,199.85a83.06,83.06,0,0,0-4.39,76.63A68.43,68.43,0,0,0,161,289.36c-19.27-34.49-15-78.16,10-108.75,25.37-31.05,69.58-43.25,107.27-29.43a98,98,0,0,1,63.86,86.09,78.92,78.92,0,0,0-15.84-7.19A82.64,82.64,0,0,0,261.39,162C228.11,155.25,193.17,170.91,175.63,199.85Z"/><path class="cls-2" d="M171.24,276.48a78.73,78.73,0,0,0,3.62,7,62,62,0,0,0-9.32,13.13c-1-1.44-1.95-2.9-2.86-4.4-.57-.94-1.12-1.9-1.65-2.86A68.43,68.43,0,0,1,171.24,276.48Z"/><path class="cls-2" d="M227.78,388h-7.24a62.24,62.24,0,0,1-55-91.35q2.43,3.56,5.14,6.84a54.66,54.66,0,0,0-3,36.61c6.48,23.8,28.34,40.13,52.84,40.4C225.34,380.52,227.75,384.25,227.78,388Z"/><path class="cls-2" d="M141.22,173.35c8.37,4.83.8,17.79-7.57,12.95L104.5,169.47c-8.36-4.83-.8-17.78,7.57-13Z"/><path class="cls-2" d="M133.65,298.2c8.38-4.84,15.93,8.13,7.57,13L112.07,328c-8.38,4.84-15.92-8.12-7.57-12.95Z"/><path class="cls-2" d="M120.71,234.75c9.66,0,9.65,15,0,15H87.05c-9.67,0-9.65-15,0-15Z"/></g></svg>