<?xml version="1.0" ?><svg viewBox="0 0 500 500" xmlns="http://www.w3.org/2000/svg"><defs><style>.cls-1{fill:#231815;}.cls-2{fill:#dcdddd;}.cls-3{fill:#faee00;}.cls-4{fill:none;stroke:#231815;stroke-miterlimit:10;}</style></defs><title/><g data-name="图层 1" id="图层_1"><path class="cls-1" d="M292.48,141a7.49,7.49,0,0,0-.85,3.51c0-1.31-.05-2.6-.12-3.89Z"/><path class="cls-1" d="M135.55,178.76a78.8,78.8,0,0,0,3.61,7,62.74,62.74,0,0,0-9.32,13.13c-1-1.44-1.94-2.9-2.86-4.41-.57-.94-1.11-1.89-1.65-2.85A67.83,67.83,0,0,1,135.55,178.76Z"/><path class="cls-1" d="M290.62,132.37q.64,4.08.89,8.28A73.75,73.75,0,0,0,208,163.41l-2-1.83c-1.65-.51-3.31-.94-5-1.32a82.26,82.26,0,0,1,79.22-30.48A75.08,75.08,0,0,1,290.62,132.37Z"/><path class="cls-1" d="M343.07,185.8l-5.24-5.24c1.26.27,2.5.6,3.73.95C342.09,182.93,342.61,184.35,343.07,185.8Z"/><path class="cls-1" d="M127,194.5c.92,1.51,1.88,3,2.86,4.41a62.23,62.23,0,0,0,55,91.34h7.24c0,3.78-2.38,7.56-7.24,7.5a70.86,70.86,0,0,1-47.42-18.61c-23.29-21.42-28.83-57.13-13.66-84.79.5-.91,1-1.82,1.56-2.7C125.87,192.61,126.41,193.56,127,194.5Z"/><path class="cls-1" d="M291.51,140.65c.07,1.29.11,2.58.12,3.89s-.07,2.85-.15,4.27a67,67,0,0,0-13.82-4.31c-25.74-5-52.51,6.56-67.16,28.1-1.84,2.71-5.13,4.47-8.47,3.45-14.89-4.6-30.85-3.34-44.43,4.49a54.24,54.24,0,0,0-14.15,11.79c-1.54-2.13-3-4.31-4.29-6.55a62.38,62.38,0,0,1,64.87-17q1.86-2.79,4-5.4a73.75,73.75,0,0,1,83.53-22.76Z"/><path class="cls-1" d="M292.48,141a74.23,74.23,0,0,1,13.39,7c-1.64,3.24-5.6,4.39-8.94,3.48-.94-.52-1.91-1-2.88-1.48a7,7,0,0,1-2.42-5.45A7.49,7.49,0,0,1,292.48,141Z"/><path class="cls-1" d="M290.62,132.37a77.74,77.74,0,0,1,15.83,7.19c.09,1.48.16,3,.17,4.46-.39-7.83-11-8.82-14.14-3l-1-.38Q291.27,136.45,290.62,132.37Z"/><path class="cls-1" d="M207.64,290.25h45.43a8.41,8.41,0,0,1-.86,3.59L236.36,326q17.73-17.9,35.48-35.78H293q-38.76,39.1-77.53,78.19a6.18,6.18,0,0,1-6.86,2.88c-4.8-.8-8.68-6.62-5.58-11.4l30.71-62.37H215.1A7.58,7.58,0,0,1,207.64,290.25Z"/><path class="cls-1" d="M208.62,286.27l10.82-18.45q7.44-12.72,14.89-25.42c1-1.68,1.86-3.41,2.83-5,2-3.29,4.45-5.94,9.08-6.11q3.41-.1,6.82-.16c13-.21,26,.16,38.9.16,5.42,0,9.7,6.47,6.48,11.29l-12.06,18h18c6.52,0,9.87,8.2,5.3,12.8l-11.93,12c-1.6,1.61-3.19,3.22-4.79,4.82H271.84l14.54-14.66h-14c-5.42,0-9.71-6.47-6.48-11.29l12.06-18H249.43l-21.24,36.25h17.55a7.3,7.3,0,0,1,7.33,7.7H207.64A7.22,7.22,0,0,1,208.62,286.27Z"/><path class="cls-1" d="M296.93,151.47c3.34.91,7.3-.24,8.94-3.48.21.15.43.29.65.43-.14,2.95-.42,5.88-.82,8.78A66.41,66.41,0,0,0,296.93,151.47Z"/><path class="cls-1" d="M206,161.58l2,1.83q-2.09,2.61-4,5.4a62.53,62.53,0,0,0-6.88-1.79l.4-2Z"/><path class="cls-1" d="M291.63,144.54a7,7,0,0,0,2.42,5.45c-.85-.41-1.71-.81-2.57-1.18C291.56,147.39,291.62,146,291.63,144.54Z"/><path class="cls-1" d="M122.61,228a61.92,61.92,0,0,1,7.23-29.11c1.62,2.37,3.34,4.65,5.14,6.84a54.59,54.59,0,0,0-3,36.61c6.47,23.8,28.33,40.12,52.84,40.39,4.79.06,7.2,3.78,7.24,7.5h-7.24A62.23,62.23,0,0,1,122.61,228Z"/><path class="cls-1" d="M201,160.26c1.67.38,3.33.81,5,1.32L197.55,165Q199.23,162.57,201,160.26Z"/><path class="cls-2" d="M304.38,260.59h-18l12.06-18c3.22-4.82-1.06-11.29-6.48-11.29-12.94,0-25.95-.37-38.9-.16q-3.42.06-6.82.16c-4.63.17-7.06,2.82-9.08,6.11-1,1.58-1.85,3.31-2.83,5q-7.45,12.7-14.89,25.42l-10.82,18.45a7.22,7.22,0,0,0-1,4H192.09c0-3.72-2.45-7.44-7.24-7.5-24.51-.27-46.37-16.59-52.84-40.39a54.59,54.59,0,0,1,3-36.61,55.48,55.48,0,0,1,8.47-13.42,54.24,54.24,0,0,1,14.15-11.79c13.58-7.83,29.54-9.09,44.43-4.49,3.34,1,6.63-.74,8.47-3.45,14.65-21.54,41.42-33.14,67.16-28.1a67,67,0,0,1,13.82,4.31c.86.37,1.72.77,2.57,1.18s1.94,1,2.88,1.48a67.1,67.1,0,0,1,31.67,38.31,7.52,7.52,0,0,0,5.24,5.24c22.53,4.89,38.5,25.75,35.61,49-2.74,22.1-22,38.41-44,38.7-4.78.07-7.19,3.79-7.24,7.5H293c1.6-1.6,3.19-3.21,4.79-4.82l11.93-12C314.25,268.79,310.9,260.59,304.38,260.59Z"/><path class="cls-3" d="M277.92,246.3l-12.06,18c-3.23,4.82,1.06,11.29,6.48,11.29h14l-14.54,14.66H253.07a7.3,7.3,0,0,0-7.33-7.7H228.19l21.24-36.25Z"/><path class="cls-1" d="M306.63,144.61c0,.14,0,.28,0,.42C306.63,144.89,306.63,144.75,306.63,144.61Z"/><path class="cls-1" d="M139.16,185.78c1.31,2.24,2.75,4.42,4.29,6.55A55.48,55.48,0,0,0,135,205.75c-1.8-2.19-3.52-4.47-5.14-6.84A62.74,62.74,0,0,1,139.16,185.78Z"/><path class="cls-1" d="M305.87,148a7.32,7.32,0,0,0,.75-2.88c0,1.11-.05,2.21-.1,3.31C306.3,148.28,306.08,148.14,305.87,148Z"/><path class="cls-1" d="M325.49,290.25a51.75,51.75,0,0,0,10.35-102.46,74,74,0,0,0-29.32-39.37c.05-1.1.09-2.2.1-3.31V145c0-.14,0-.28,0-.42v-.07c0-.18,0-.35,0-.52,0-1.5-.08-3-.17-4.46a83.68,83.68,0,0,1,35.11,41.95c-1.23-.35-2.47-.68-3.73-.95l5.24,5.24c-.46-1.45-1-2.87-1.51-4.29,27.42,7.88,46.27,35.15,42.73,63.9a59.9,59.9,0,0,1-58.8,52.34c-4.87.07-7.28-3.71-7.24-7.5Z"/><path class="cls-1" d="M139.16,185.78a78.8,78.8,0,0,1-3.61-7A71.05,71.05,0,0,1,201,160.26q-1.82,2.31-3.49,4.77l-.4,2a62.19,62.19,0,0,0-58,18.76Z"/><path class="cls-1" d="M292.48,141c3.1-5.83,13.75-4.84,14.14,3,0,.17,0,.34,0,.52v.07c0,.14,0,.28,0,.42v.08a7.32,7.32,0,0,1-.75,2.88A74.23,74.23,0,0,0,292.48,141Z"/><path class="cls-1" d="M377.24,238.51a51.74,51.74,0,0,1-51.75,51.74h-7.24c0-3.71,2.46-7.43,7.24-7.5,22-.29,41.22-16.6,44-38.7,2.89-23.28-13.08-44.14-35.61-49a7.52,7.52,0,0,1-5.24-5.24,66.75,66.75,0,0,0-22.9-32.58c.4-2.9.68-5.83.82-8.78a74,74,0,0,1,29.32,39.37A51.77,51.77,0,0,1,377.24,238.51Z"/><path class="cls-3" d="M271.84,290.25Q254.1,308.14,236.36,326l15.85-32.19a8.41,8.41,0,0,0,.86-3.59Z"/><path class="cls-4" d="M125.33,191.65c-.54.88-1.06,1.79-1.56,2.7-15.17,27.66-9.63,63.37,13.66,84.79a70.86,70.86,0,0,0,47.42,18.61c4.86.06,7.27-3.72,7.24-7.5"/><path class="cls-4" d="M201,160.26a71.05,71.05,0,0,0-65.49,18.5"/><path class="cls-4" d="M290.62,132.37a75.08,75.08,0,0,0-10.36-2.59A82.26,82.26,0,0,0,201,160.26"/><path class="cls-4" d="M318.25,290.25c0,3.79,2.37,7.57,7.24,7.5a59.9,59.9,0,0,0,58.8-52.34c3.54-28.75-15.31-56-42.73-63.9"/><path class="cls-4" d="M341.56,181.51a83.68,83.68,0,0,0-35.11-41.95"/><path class="cls-4" d="M341.56,181.51c.53,1.42,1,2.84,1.51,4.29l-5.24-5.24C339.09,180.83,340.33,181.16,341.56,181.51Z"/><path class="cls-4" d="M206,161.58c-1.65-.51-3.31-.94-5-1.32q-1.82,2.31-3.49,4.77Z"/><path class="cls-4" d="M306.62,144c0-1.5-.08-3-.17-4.46a77.74,77.74,0,0,0-15.83-7.19q.64,4.08.89,8.28"/><path class="cls-4" d="M292.48,141c3.1-5.83,13.75-4.84,14.14,3"/><path class="cls-4" d="M139.16,185.78a78.8,78.8,0,0,1-3.61-7,67.83,67.83,0,0,0-10.22,12.89c.54,1,1.08,1.91,1.65,2.85.92,1.51,1.88,3,2.86,4.41"/><path class="cls-4" d="M306.62,144c0,.17,0,.34,0,.52v.07"/><path class="cls-4" d="M306.62,145c0-.14,0-.28,0-.42"/><path class="cls-4" d="M306.62,145v.08"/><path class="cls-4" d="M306.52,148.42c.05-1.1.09-2.2.1-3.31"/><path class="cls-4" d="M305.7,157.2a66.75,66.75,0,0,1,22.9,32.58,7.52,7.52,0,0,0,5.24,5.24c22.53,4.89,38.5,25.75,35.61,49-2.74,22.1-22,38.41-44,38.7-4.78.07-7.19,3.79-7.24,7.5h7.24a51.75,51.75,0,0,0,10.35-102.46,74,74,0,0,0-29.32-39.37"/><path class="cls-4" d="M291.51,140.65A73.75,73.75,0,0,0,208,163.41q-2.09,2.61-4,5.4a62.53,62.53,0,0,0-6.88-1.79,62.19,62.19,0,0,0-58,18.76"/><path class="cls-4" d="M143.45,192.33a54.24,54.24,0,0,1,14.15-11.79c13.58-7.83,29.54-9.09,44.43-4.49,3.34,1,6.63-.74,8.47-3.45,14.65-21.54,41.42-33.14,67.16-28.1a67,67,0,0,1,13.82,4.31"/><path class="cls-4" d="M129.84,198.91a62.23,62.23,0,0,0,55,91.34h7.24c0-3.72-2.45-7.44-7.24-7.5-24.51-.27-46.37-16.59-52.84-40.39a54.59,54.59,0,0,1,3-36.61"/><path class="cls-4" d="M305.87,148a74.23,74.23,0,0,0-13.39-7"/><path class="cls-4" d="M294.05,150c1,.47,1.94,1,2.88,1.48"/><path class="cls-4" d="M139.16,185.78a62.74,62.74,0,0,0-9.32,13.13c1.62,2.37,3.34,4.65,5.14,6.84a55.48,55.48,0,0,1,8.47-13.42C141.91,190.2,140.47,188,139.16,185.78Z"/><path class="cls-4" d="M292.48,141l-1-.38c.07,1.29.11,2.58.12,3.89A7.49,7.49,0,0,1,292.48,141Z"/><path class="cls-4" d="M291.63,144.54c0,1.42-.07,2.85-.15,4.27.86.37,1.72.77,2.57,1.18A7,7,0,0,1,291.63,144.54Z"/><path class="cls-4" d="M296.93,151.47a66.41,66.41,0,0,1,8.77,5.73c.4-2.9.68-5.83.82-8.78-.22-.14-.44-.28-.65-.43C304.23,151.23,300.27,152.38,296.93,151.47Z"/><path class="cls-4" d="M293,290.25c1.6-1.6,3.19-3.21,4.79-4.82l11.93-12c4.57-4.6,1.22-12.8-5.3-12.8h-18l12.06-18c3.22-4.82-1.06-11.29-6.48-11.29-12.94,0-25.95-.37-38.9-.16q-3.42.06-6.82.16c-4.63.17-7.06,2.82-9.08,6.11-1,1.58-1.85,3.31-2.83,5q-7.45,12.7-14.89,25.42l-10.82,18.45a7.22,7.22,0,0,0-1,4,7.58,7.58,0,0,0,7.46,7.3h18.6L203,359.92c-3.1,4.78.78,10.6,5.58,11.4a6.18,6.18,0,0,0,6.86-2.88Q254.19,329.35,293,290.25Z"/><path class="cls-4" d="M271.84,290.25Q254.1,308.14,236.36,326l15.85-32.19a8.41,8.41,0,0,0,.86-3.59,7.3,7.3,0,0,0-7.33-7.7H228.19l21.24-36.25h28.49l-12.06,18c-3.23,4.82,1.06,11.29,6.48,11.29h14Z"/></g></svg>