<?xml version="1.0" ?><svg viewBox="0 0 500 500" xmlns="http://www.w3.org/2000/svg"><defs><style>.cls-1{font-size:161.72px;stroke:#231815;stroke-miterlimit:10;font-family:DINAlternate-Bold, DIN Alternate;font-weight:700;}.cls-1,.cls-2{fill:#fff;}.cls-3{fill:#231815;}.cls-4{fill:#f4ec90;}</style></defs><title/><g data-name="图层 1" id="图层_1"><text class="cls-1" transform="translate(-3.4 -30.77)"/><path class="cls-2" d="M341.66,189.62h0a3.19,3.19,0,0,1,0,6.16h0a44.32,44.32,0,0,0-31.28,31.28h0a3.19,3.19,0,0,1-6.16,0h0a44.32,44.32,0,0,0-31.28-31.28h0a3.19,3.19,0,0,1,0-6.16h0a44.32,44.32,0,0,0,31.28-31.28h0a3.19,3.19,0,0,1,6.16,0h0A44.32,44.32,0,0,0,341.66,189.62Z"/><path class="cls-3" d="M339.67,196.85c-3.33-.9,4.21-8.58-1.38-7.91a10.45,10.45,0,0,0-2,.68c-1.72.61-3.42,1.32-5.07,2.07a49.7,49.7,0,0,0-9.93,6.15,51.17,51.17,0,0,0-13.39,15.6c-1.64,3-3.86,6.84-4.32,10.24-.35,2.53-2.14,1.38,3.76,1.38,4.86,0,4.53,1,3.54-2.06a58.81,58.81,0,0,0-2.25-5.78,50.43,50.43,0,0,0-12-16.73,53.52,53.52,0,0,0-18.89-11.12,10.82,10.82,0,0,0-2.74-.83v4.15q-2,5.08.69,4c1.37,0,3.4-1.11,4.7-1.63a50.73,50.73,0,0,0,10.38-5.47,51.2,51.2,0,0,0,19.18-24.48c.49-1.26,1.58-3.32,1.57-4.73h-8.31l.39,1.38a15.23,15.23,0,0,0,1.18,3.36,52.79,52.79,0,0,0,34.94,31.78c9.3,2.66,13.27-11.81,4-14.46a37.08,37.08,0,0,1-21-15c-4.32-6.59-5-18.48-14.87-18.87-10.58-.41-11.3,12.07-15.76,18.87A37.24,37.24,0,0,1,272.33,182c-4.12,1.38-7.58,3.31-8.83,7.84A10.73,10.73,0,0,0,268.7,202c3.45,1.9,7.43,2.51,10.91,4.5a37.86,37.86,0,0,1,10.21,8.53,36.14,36.14,0,0,1,5.86,9.89c1.78,4.51,2.41,8.91,7.44,11a10.65,10.65,0,0,0,12.16-2.72c2.78-3.21,3.23-7.95,5.2-11.66,4.73-8.91,12.35-14.94,21.79-18.22,4.62-1.61,8.37-4,9.08-9.27a10.71,10.71,0,0,0-7.7-11.75C334.32,179.87,330.34,194.34,339.67,196.85Z"/><path class="cls-4" d="M232.91,267.09a123.76,123.76,0,0,1-26.4-135.9,123.73,123.73,0,1,0,162.3,162.3A123.76,123.76,0,0,1,232.91,267.09Z"/><path class="cls-3" d="M238.21,261.79c-33.59-34-42.83-84.64-24.47-128.6,2.86-6.84-5.89-10.69-11-8.47A131.16,131.16,0,0,0,132.38,292c11.92,30.67,35.16,56.58,64.88,71a131.16,131.16,0,0,0,178-65.7c2.2-5.09-1.65-13.86-8.47-11-44,18.36-94.59,9.12-128.6-24.47-6.88-6.79-17.49,3.81-10.61,10.61,37.45,37,94.45,48.68,143.2,28.33l-8.47-11c-12.64,29.21-36.37,53.08-66.4,64.19a118.32,118.32,0,0,1-82.67-.24c-55.18-20.73-85.84-82.55-70.51-139.07,9.41-34.71,34.67-62.69,67.55-76.91l-11-8.47c-20.35,48.74-8.66,105.75,28.33,143.2C234.4,279.27,245,268.66,238.21,261.79Z"/></g></svg>