<?xml version="1.0" ?><svg viewBox="0 0 500 500" xmlns="http://www.w3.org/2000/svg"><defs><style>.cls-1{fill:#fff;}.cls-2{fill:#231815;}.cls-3{fill:#2ea7e0;}</style></defs><title/><g data-name="图层 1" id="图层_1"><path class="cls-1" d="M325.57,323.16A51.75,51.75,0,0,0,335.91,220.7a73.71,73.71,0,0,0-131.81-19,62.24,62.24,0,1,0-19.18,121.44"/><path class="cls-2" d="M325.57,330.66a59.9,59.9,0,0,0,58.79-52.34c3.7-30-17-58.47-46.46-64.86l5.24,5.24c-9.07-28.39-33.17-50.81-62.81-56a82.4,82.4,0,0,0-82.71,35.25l8.47-3.45c-31.4-9.69-66.35,3.77-82.26,32.77-15.16,27.65-9.62,63.37,13.66,84.79a70.91,70.91,0,0,0,47.42,18.61c9.66.11,9.66-14.89,0-15-24.5-.27-46.36-16.6-52.84-40.4a55.22,55.22,0,0,1,25.59-61.82c13.58-7.83,29.54-9.09,44.43-4.49,3.34,1,6.63-.74,8.47-3.45C225.22,184,252,172.37,277.73,177.4a67.05,67.05,0,0,1,50.95,45.29,7.54,7.54,0,0,0,5.24,5.24c22.53,4.89,38.5,25.75,35.61,49-2.74,22.09-22,38.41-44,38.7-9.64.13-9.67,15.13,0,15Z"/><line class="cls-3" x1="219.97" x2="212.6" y1="331.2" y2="312"/><path class="cls-3" d="M227.2,329.21,219.83,310c-1.45-3.78-5-6.39-9.23-5.24-3.61,1-6.7,5.42-5.24,9.23l7.37,19.2c1.45,3.78,5,6.39,9.23,5.24,3.61-1,6.7-5.42,5.24-9.23Z"/><line class="cls-3" x1="257.93" x2="250.56" y1="331.2" y2="312"/><path class="cls-3" d="M265.16,329.21,257.79,310c-1.45-3.78-5-6.39-9.23-5.24-3.61,1-6.7,5.42-5.24,9.23l7.37,19.2c1.45,3.78,5,6.39,9.23,5.24,3.61-1,6.7-5.42,5.24-9.23Z"/><line class="cls-3" x1="295.89" x2="288.52" y1="331.2" y2="312"/><path class="cls-3" d="M303.12,329.21,295.75,310c-1.45-3.78-5-6.39-9.23-5.24-3.61,1-6.7,5.42-5.24,9.23l7.37,19.2c1.45,3.78,5,6.39,9.23,5.24,3.61-1,6.7-5.42,5.24-9.23Z"/></g></svg>