<?xml version="1.0" ?><svg viewBox="0 0 500 500" xmlns="http://www.w3.org/2000/svg"><defs><style>.cls-1{fill:#f8b62d;}.cls-2{fill:#231815;}</style></defs><title/><g data-name="图层 1" id="图层_1"><path class="cls-1" d="M215.44,305.85h23.82l5.43-5.2a7.65,7.65,0,0,1,10.61,0l5.43,5.2h23.82c0-3.75,2.42-7.5,7.25-7.5h28.36a81.5,81.5,0,0,0-54.33-121.91c-33.28-6.74-68.23,8.91-85.76,37.86a82.85,82.85,0,0,0-.52,84.06H208.2C213,298.35,215.44,302.1,215.44,305.85Z"/><path class="cls-2" d="M180.07,214.3c17.54-28.95,52.48-44.6,85.76-37.86a82.68,82.68,0,0,1,65.94,80.25c.07-9.66,15.07-9.65,15,0a98,98,0,0,0-64-91.07C245,151.8,200.82,164,175.45,195.05c-23.69,29-28.74,69.75-12.79,103.3h16.88A82.85,82.85,0,0,1,180.07,214.3Z"/><path class="cls-2" d="M331.77,256.69c.07,9.65,15.07,9.67,15,0S331.84,247,331.77,256.69Z"/><path class="cls-2" d="M331.77,256.69a83.48,83.48,0,0,1-11.6,41.66H337a97.63,97.63,0,0,0,9.78-41.66C346.84,266.36,331.84,266.34,331.77,256.69Z"/><path class="cls-2" d="M257.5,131.84V98.18c0-9.65-15-9.67-15,0v33.65C242.5,141.49,257.5,141.5,257.5,131.84ZM250,98.18v0Z"/><path class="cls-2" d="M194,144.78l-16.83-29.15c-4.83-8.36-17.79-.81-13,7.57l16.83,29.15C185.92,160.71,198.89,153.16,194,144.78Zm-6.48,3.79-16.83-29.15Z"/><path class="cls-2" d="M108.94,183.91l29.15,16.83c8.38,4.84,15.94-8.12,7.57-13L116.51,171C108.14,166.13,100.57,179.08,108.94,183.91Zm3.79-6.48,29.15,16.83Z"/><path class="cls-2" d="M91.49,264.19h33.65c9.65,0,9.67-15,0-15H91.49C81.84,249.19,81.82,264.19,91.49,264.19Zm0-7.5h0Z"/><path class="cls-2" d="M408.51,249.19H374.86c-9.65,0-9.67,15,0,15h33.65C418.16,264.19,418.18,249.19,408.51,249.19Zm-33.65,7.5h0Z"/><path class="cls-2" d="M361.91,200.74l29.15-16.83c8.36-4.83.81-17.79-7.57-13l-29.15,16.83C346,192.61,353.53,205.58,361.91,200.74Zm25.36-23.3-29.15,16.83Z"/><path class="cls-2" d="M318.9,152.35l16.83-29.15c4.84-8.37-8.12-15.94-13-7.57L306,144.78C301.12,153.15,314.07,160.72,318.9,152.35Zm10.35-32.93-16.83,29.15Z"/><path class="cls-2" d="M407.32,298.35H291.8c-4.83,0-7.24,3.75-7.25,7.5s2.41,7.5,7.25,7.5H407.32C417,313.35,417,298.35,407.32,298.35Z"/><path class="cls-2" d="M171.58,313.35H208.2c4.83,0,7.24-3.75,7.24-7.5s-2.41-7.5-7.24-7.5H92.68c-9.65,0-9.67,15,0,15h78.89Z"/><path class="cls-2" d="M375.15,338.46H294.81l-8.71-8.33-25.37-24.28-5.43-5.2a7.65,7.65,0,0,0-10.61,0l-5.43,5.2-25.18,24.09-8.9,8.51H124.85c-9.65,0-9.67,15,0,15h61.74c7.14,0,14.48.49,21.61,0,3.86-.26,6.59-3.27,9.22-5.92l1-.94L219,346l10.72-10.26,1.77-1.69L250,316.36c6.65,6.5,13.25,13.12,20,19.61,3.5,3.38,7,6.73,10.63,10,.69.63,1.39,1.24,2.08,1.86,1.24,1.11,2.47,2.22,3.73,3.3,5,4.36,15.88,2.34,22,2.34h66.82C384.8,353.46,384.82,338.46,375.15,338.46Z"/><path class="cls-2" d="M346.5,378.57h-193c-9.65,0-9.67,15,0,15h193C356.15,393.57,356.17,378.57,346.5,378.57Z"/></g></svg>